<svg class="icon" style="width: 1em; height: 1em;vertical-align: middle;fill: currentColor;overflow: hidden;" viewBox="0 0 1024 1024" version="1.1" xmlns="http://www.w3.org/2000/svg"><path d="M694.624 201.376C688.384 195.136 680.192 192 672 192L352 192c-8.192 0-16.384 3.136-22.624 9.376C323.136 207.616 320 215.808 320 224l0 576c0 8.192 3.136 16.384 9.376 22.624S343.808 832 352 832l320 0c8.192 0 16.384-3.136 22.624-9.376S704 808.192 704 800L704 224C704 215.808 700.864 207.616 694.624 201.376zM512 810.656c-17.664 0-32-14.336-32-32s14.336-32 32-32 32 14.336 32 32S529.664 810.656 512 810.656zM672 736 352 736 352 256l320 0L672 736z" /></svg>