<svg class="icon" style="width: 1em; height: 1em;vertical-align: middle;fill: currentColor;overflow: hidden;" viewBox="0 0 1024 1024" version="1.1" xmlns="http://www.w3.org/2000/svg"><path d="M763.168 460.032C755.648 452.544 752.224 448 742.4 448L704 448l0-75.2c0-106.048-85.952-192-192-192s-192 85.952-192 192L320 448 281.6 448c-9.824 0-13.248 4.544-20.768 12.032C253.344 467.552 256 478.176 256 488l0 307.2c0 9.824-2.656 18.848 4.832 26.368C268.352 829.056 271.776 832 281.6 832l460.8 0c9.824 0 13.248-2.944 20.768-10.432C770.656 814.048 768 805.024 768 795.2l0-307.2C768 478.176 770.656 467.552 763.168 460.032zM352 372.8c0-84.832 75.168-153.6 160-153.6s160 68.768 160 153.6L672 448 352 448 352 372.8zM736 776c0 4.928 1.312 12.224-2.432 15.968C729.824 795.712 728.128 800 723.2 800L300.8 800c-4.928 0-6.624-4.288-10.368-8.032C286.688 788.224 288 780.928 288 776l0-268.8c0-4.928-1.312-13.824 2.432-17.568C294.176 485.888 295.872 480 300.8 480l422.4 0c4.928 0 6.624 5.888 10.368 9.632C737.312 493.376 736 502.272 736 507.2L736 776zM550.4 640l-76.8 0c-10.624 0-19.2 5.376-19.2 16s8.576 16 19.2 16l76.8 0c10.624 0 19.2-5.376 19.2-16S561.024 640 550.4 640z" /></svg>