<svg class="icon" style="width: 1em; height: 1em;vertical-align: middle;fill: currentColor;overflow: hidden;" viewBox="0 0 1024 1024" version="1.1" xmlns="http://www.w3.org/2000/svg"><path d="M512 192C335.264 192 192 335.264 192 512c0 176.736 143.264 320 320 320s320-143.264 320-320C832 335.264 688.736 192 512 192zM670.08 430.464l-181.024 181.024c-5.792 5.792-13.792 9.376-22.624 9.376-8.832 0-16.832-3.584-22.624-9.376L353.28 520.96c-5.728-5.728-5.312-15.424 0.928-21.696s15.968-6.656 21.696-0.928l79.2 79.2c2.88 2.88 6.88 4.672 11.328 4.672 4.416 0 8.416-1.792 11.328-4.672l169.696-169.696c6.24-6.24 16.384-6.24 22.624 0C676.32 414.08 676.32 424.224 670.08 430.464z" /></svg>