<svg class="icon" style="width: 1em; height: 1em;vertical-align: middle;fill: currentColor;overflow: hidden;" viewBox="0 0 1024 1024" version="1.1" xmlns="http://www.w3.org/2000/svg"><path d="M512 589.376c117.792 0 213.6-95.808 213.6-213.6S629.792 162.176 512 162.176s-213.6 95.84-213.6 213.6c0 72.16 36.064 135.936 90.976 174.624C271.68 599.488 192 716.256 192 845.824c0 8.832 7.168 16 16 16s16-7.168 16-16c0-125.28 82.784-237.376 201.856-274.72C452.224 582.784 481.344 589.376 512 589.376zM330.4 375.808c0-100.128 81.472-181.6 181.6-181.6s181.6 81.472 181.6 181.6c0 100.128-81.472 181.6-181.6 181.6S330.4 475.936 330.4 375.808zM767.872 653.632c-13.248-17.632-28.416-33.984-45.024-48.544-6.624-5.824-16.736-5.152-22.56 1.472-5.824 6.656-5.152 16.768 1.504 22.592 14.976 13.12 28.608 27.808 40.544 43.712C780.064 723.04 800 782.848 800 845.824c0 8.832 7.168 16 16 16s16-7.168 16-16C832 775.84 809.824 709.376 767.872 653.632zM647.424 631.84l-169.696 169.696c-2.88 2.88-6.88 4.672-11.328 4.672-4.416 0-8.416-1.792-11.328-4.672l-79.2-79.2c-5.728-5.728-15.424-5.312-21.696 0.928s-6.656 15.968-0.928 21.696l90.496 90.496c5.792 5.792 13.792 9.376 22.624 9.376 8.832 0 16.832-3.584 22.624-9.376l181.024-181.024c6.24-6.24 6.24-16.384 0-22.624C663.808 625.568 653.696 625.568 647.424 631.84z" /></svg>