<svg class="icon" style="width: 1em; height: 1em;vertical-align: middle;fill: currentColor;overflow: hidden;" viewBox="0 0 1024 1024" version="1.1" xmlns="http://www.w3.org/2000/svg"><path d="M359.104 477.664l147.072 147.072c2.912 2.912 6.912 4.672 11.328 4.672s8.416-1.792 11.328-4.672L832 321.536 832 256c0-16.384-6.24-32.768-18.752-45.248C800.768 198.24 784.384 192 768 192L256 192C239.616 192 223.232 198.24 210.752 210.752 198.24 223.232 192 239.616 192 256l0 512c0 16.384 6.24 32.768 18.752 45.248C223.232 825.76 239.616 832 256 832l512 0c16.384 0 32.768-6.24 45.248-18.752C825.76 800.768 832 784.384 832 768L832 366.784l-291.872 291.872c-5.792 5.792-13.792 9.376-22.624 9.376s-16.832-3.584-22.624-9.376l-158.4-158.4c-6.24-6.24-6.24-16.384 0-22.624S352.864 471.424 359.104 477.664z" /></svg>