<svg class="icon" style="width: 1em; height: 1em;vertical-align: middle;fill: currentColor;overflow: hidden;" viewBox="0 0 1024 1024" version="1.1" xmlns="http://www.w3.org/2000/svg"><path d="M512 162.176c-117.792 0-213.6 95.84-213.6 213.6 0 72.16 36.064 135.936 90.976 174.624C271.68 599.488 192 716.256 192 845.824c0 8.832 7.168 16 16 16s16-7.168 16-16c0-125.28 82.784-237.376 201.856-274.72 26.368 11.68 55.488 18.304 86.144 18.304 117.792 0 213.6-95.808 213.6-213.6S629.792 162.176 512 162.176zM512 557.376c-100.128 0-181.6-81.472-181.6-181.6 0-100.128 81.472-181.6 181.6-181.6s181.6 81.472 181.6 181.6C693.6 475.936 612.128 557.376 512 557.376zM767.872 653.632c-13.248-17.632-28.416-33.984-45.024-48.544-6.624-5.824-16.736-5.152-22.56 1.472-5.824 6.656-5.152 16.768 1.504 22.592 14.976 13.12 28.608 27.808 40.544 43.712C780.064 723.04 800 782.848 800 845.824c0 8.832 7.168 16 16 16s16-7.168 16-16C832 775.84 809.824 709.376 767.872 653.632z" /></svg>