<svg class="icon" style="width: 1em; height: 1em;vertical-align: middle;fill: currentColor;overflow: hidden;" viewBox="0 0 1024 1024" version="1.1" xmlns="http://www.w3.org/2000/svg"><path d="M512 224c-176.736 0-320 114.624-320 256 0 83.168 49.792 156.832 126.56 203.584L304 800l106.4-77.376C442.368 731.168 476.448 736 512 736c176.736 0 320-114.624 320-256S688.736 224 512 224zM352 528c-26.496 0-48-21.504-48-48s21.504-48 48-48 48 21.504 48 48S378.496 528 352 528zM512 528c-26.496 0-48-21.504-48-48s21.504-48 48-48 48 21.504 48 48S538.496 528 512 528zM672 528c-26.496 0-48-21.504-48-48s21.504-48 48-48 48 21.504 48 48S698.496 528 672 528z" /></svg>