<svg class="icon" style="width: 1em; height: 1em;vertical-align: middle;fill: currentColor;overflow: hidden;" viewBox="0 0 1024 1024" version="1.1" xmlns="http://www.w3.org/2000/svg"><path d="M758.624 201.376C764.864 207.616 768 215.808 768 224l0 256 32 0L800 224c0-16.384-6.24-32.768-18.752-45.248C768.768 166.24 752.384 160 736 160l-64 0 0 32 64 0C744.192 192 752.384 195.136 758.624 201.376zM448 160l128 0 0 32-128 0 0-32ZM265.376 822.624C259.136 816.384 256 808.192 256 800L256 224c0-8.192 3.136-16.384 9.376-22.624C271.616 195.136 279.808 192 288 192l64 0L352 160 288 160C271.616 160 255.232 166.24 242.752 178.752 230.24 191.232 224 207.616 224 224l0 576c0 16.384 6.24 32.768 18.752 45.248C255.232 857.76 271.616 864 288 864l224 0 0-32L288 832C279.808 832 271.616 828.864 265.376 822.624zM400 240C408.832 240 416 232.832 416 224L416 128c0-8.832-7.168-16-16-16S384 119.168 384 128l0 96C384 232.832 391.168 240 400 240zM624 240C632.832 240 640 232.832 640 224L640 128c0-8.832-7.168-16-16-16S608 119.168 608 128l0 96C608 232.832 615.168 240 624 240zM320 352c-8.832 0-16 7.168-16 16S311.168 384 320 384l384 0c8.832 0 16-7.168 16-16S712.832 352 704 352L320 352zM576 480l-256 0c-8.832 0-16 7.168-16 16S311.168 512 320 512l256 0c8.832 0 16-7.168 16-16S584.832 480 576 480zM448 640c8.832 0 16-7.168 16-16S456.832 608 448 608l-128 0c-8.832 0-16 7.168-16 16S311.168 640 320 640L448 640zM800 736l-64 0 0-32 64 0c8.832 0 16-7.168 16-16S808.832 672 800 672l-45.312 0 59.232-104.096c4.384-7.68 1.696-17.44-6.016-21.824-7.712-4.352-17.472-1.728-21.824 6.016l-63.328 111.328c-1.536 2.72-1.92 5.664-1.792 8.576l-1.248 0c0.128-2.912-0.256-5.856-1.792-8.576l-63.328-111.328c-4.384-7.712-14.176-10.336-21.824-6.016-7.68 4.384-10.368 14.112-6.016 21.824L685.984 672 640 672c-8.832 0-16 7.168-16 16S631.168 704 640 704l64 0 0 32-64 0c-8.832 0-16 7.168-16 16S631.168 768 640 768l64 0 0 64c0 8.832 7.168 16 16 16S736 840.832 736 832l0-64 64 0c8.832 0 16-7.168 16-16S808.832 736 800 736z" /></svg>