<svg class="icon" style="width: 1em; height: 1em;vertical-align: middle;fill: currentColor;overflow: hidden;" viewBox="0 0 1024 1024" version="1.1" xmlns="http://www.w3.org/2000/svg"><path d="M781.248 178.752C768.768 166.24 752.384 160 736 160L288 160C271.616 160 255.232 166.24 242.752 178.752 230.24 191.232 224 207.616 224 224l0 64 32 0L256 224c0-8.192 3.136-16.384 9.376-22.624C271.616 195.136 279.808 192 288 192l448 0c8.192 0 16.384 3.136 22.624 9.376C764.864 207.616 768 215.808 768 224l0 576c0 8.192-3.136 16.384-9.376 22.624S744.192 832 736 832L288 832c-8.192 0-16.384-3.136-22.624-9.376S256 808.192 256 800l0-96L224 704l0 96c0 16.384 6.24 32.768 18.752 45.248C255.232 857.76 271.616 864 288 864l448 0c16.384 0 32.768-6.24 45.248-18.752C793.76 832.768 800 816.384 800 800L800 224C800 207.616 793.76 191.232 781.248 178.752zM224 384l32 0c8.832 0 16-7.168 16-16S264.832 352 256 352L224 352c-8.832 0-16 7.168-16 16S215.168 384 224 384zM224 512l32 0c8.832 0 16-7.168 16-16S264.832 480 256 480L224 480c-8.832 0-16 7.168-16 16S215.168 512 224 512zM256 640c8.832 0 16-7.168 16-16S264.832 608 256 608L224 608c-8.832 0-16 7.168-16 16S215.168 640 224 640L256 640zM626.496 585.216c-5.824 6.656-5.152 16.768 1.472 22.592 38.144 33.44 60.032 81.696 60.032 132.384 0 8.832 7.168 16 16 16s16-7.168 16-16c0-59.904-25.856-116.896-70.912-156.448C642.4 577.952 632.32 578.592 626.496 585.216zM304 740.192c0 8.832 7.168 16 16 16s16-7.168 16-16c0-75.904 49.792-143.616 121.536-167.04 16.768 7.072 35.168 11.008 54.464 11.008 77.664 0 140.8-63.168 140.8-140.8 0-77.632-63.168-140.768-140.8-140.768-77.632 0-140.8 63.168-140.8 140.768 0 44 20.704 82.88 52.416 108.736C351.904 585.92 304 659.2 304 740.192zM403.2 443.328c0-59.968 48.8-108.768 108.8-108.768 60 0 108.8 48.8 108.8 108.768 0 60-48.8 108.8-108.8 108.8C452 552.16 403.2 503.328 403.2 443.328z" /></svg>