<svg class="icon" style="width: 1em; height: 1em;vertical-align: middle;fill: currentColor;overflow: hidden;" viewBox="0 0 1024 1024" version="1.1" xmlns="http://www.w3.org/2000/svg"><path d="M758.624 201.376C764.864 207.616 768 215.808 768 224l0 256 32 0L800 224c0-16.384-6.24-32.768-18.752-45.248C768.768 166.24 752.384 160 736 160l-64 0 0 32 64 0C744.192 192 752.384 195.136 758.624 201.376zM448 160l128 0 0 32-128 0 0-32ZM265.376 822.624C259.136 816.384 256 808.192 256 800L256 224c0-8.192 3.136-16.384 9.376-22.624C271.616 195.136 279.808 192 288 192l64 0L352 160 288 160C271.616 160 255.232 166.24 242.752 178.752 230.24 191.232 224 207.616 224 224l0 576c0 16.384 6.24 32.768 18.752 45.248C255.232 857.76 271.616 864 288 864l224 0 0-32L288 832C279.808 832 271.616 828.864 265.376 822.624zM640 576l32 0 0 32-32 0 0-32ZM608 704 640 704 640 672 800 672 800 640 640 640 640 608 608 608 608 640 576 640 576 672 608 672ZM640 704l32 0 0 32-32 0 0-32ZM800 768 800 736 768 736 768 768 608 768 608 800 768 800 768 832 800 832 800 800 832 800 832 768ZM736 704l32 0 0 32-32 0 0-32ZM736 832l32 0 0 32-32 0 0-32ZM400 240C408.832 240 416 232.832 416 224L416 128c0-8.832-7.168-16-16-16S384 119.168 384 128l0 96C384 232.832 391.168 240 400 240zM624 240C632.832 240 640 232.832 640 224L640 128c0-8.832-7.168-16-16-16S608 119.168 608 128l0 96C608 232.832 615.168 240 624 240zM720 368c0-8.832-7.168-16-16-16L320 352c-8.832 0-16 7.168-16 16S311.168 384 320 384l384 0C712.832 384 720 376.832 720 368zM592 496c0-8.832-7.168-16-16-16l-256 0c-8.832 0-16 7.168-16 16S311.168 512 320 512l256 0C584.832 512 592 504.832 592 496zM320 608c-8.832 0-16 7.168-16 16S311.168 640 320 640l128 0c8.832 0 16-7.168 16-16S456.832 608 448 608L320 608z" /></svg>