<svg class="icon" style="width: 1em; height: 1em;vertical-align: middle;fill: currentColor;overflow: hidden;" viewBox="0 0 1024 1024" version="1.1" xmlns="http://www.w3.org/2000/svg"><path d="M670.08 366.976c-6.24-6.24-16.384-6.24-22.624 0l-169.696 169.696c-2.88 2.88-6.88 4.672-11.328 4.672s-8.416-1.792-11.328-4.672l-79.2-79.2c-5.728-5.728-15.424-5.312-21.696 0.928-6.24 6.24-6.656 15.968-0.928 21.696l90.496 90.496 0 0c5.792 5.792 13.792 9.376 22.624 9.376s16.832-3.584 22.624-9.376l0 0 181.024-181.024C676.32 383.328 676.32 373.216 670.08 366.976zM496 848c-168.896 0-267.072-286.688-271.168-298.912L224 544 224 310.112l272-136 272 136-0.8 238.912C763.168 561.248 666.24 848 496 848zM256 541.312c9.632 27.168 101.344 274.688 240 274.688 140.064 0 230.56-247.68 240-274.656l0-211.424-240-120L256 329.888 256 541.312z" /></svg>