<svg class="icon" style="width: 1em; height: 1em;vertical-align: middle;fill: currentColor;overflow: hidden;" viewBox="0 0 1024 1024" version="1.1" xmlns="http://www.w3.org/2000/svg"><path d="M758.624 201.376C764.864 207.616 768 215.808 768 224l0 256 32 0L800 224c0-16.384-6.24-32.768-18.752-45.248C768.768 166.24 752.384 160 736 160l-64 0 0 32 64 0C744.192 192 752.384 195.136 758.624 201.376zM448 160l128 0 0 32-128 0 0-32ZM265.376 822.624C259.136 816.384 256 808.192 256 800L256 224c0-8.192 3.136-16.384 9.376-22.624C271.616 195.136 279.808 192 288 192l64 0L352 160 288 160C271.616 160 255.232 166.24 242.752 178.752 230.24 191.232 224 207.616 224 224l0 576c0 16.384 6.24 32.768 18.752 45.248C255.232 857.76 271.616 864 288 864l224 0 0-32L288 832C279.808 832 271.616 828.864 265.376 822.624zM400 240C408.832 240 416 232.832 416 224L416 128c0-8.832-7.168-16-16-16S384 119.168 384 128l0 96C384 232.832 391.168 240 400 240zM624 240C632.832 240 640 232.832 640 224L640 128c0-8.832-7.168-16-16-16S608 119.168 608 128l0 96C608 232.832 615.168 240 624 240zM720 368c0-8.832-7.168-16-16-16L320 352c-8.832 0-16 7.168-16 16S311.168 384 320 384l384 0C712.832 384 720 376.832 720 368zM592 496c0-8.832-7.168-16-16-16l-256 0c-8.832 0-16 7.168-16 16S311.168 512 320 512l256 0C584.832 512 592 504.832 592 496zM320 608c-8.832 0-16 7.168-16 16S311.168 640 320 640l128 0c8.832 0 16-7.168 16-16S456.832 608 448 608L320 608zM806.912 638.08c-3.584-8.928-9.696-16.512-17.728-21.92C781.216 610.848 771.968 608 762.4 608l-116.704 0c-9.6 0-18.912 2.848-26.912 8.256-7.968 5.376-14.08 12.96-17.664 21.952l-23.968 59.872L577.088 704 576 704l0 32 0.768 0L576 816c0 12.8 4.992 24.864 14.048 33.952S611.2 864 624 864l160 0c12.8 0 24.864-4.992 33.952-14.048S832 828.8 832 816L832 736l0-32 0-0.512L806.912 638.08zM800 816c0 4.288-1.664 8.288-4.672 11.328C792.288 830.336 788.256 832 784 832l-160 0c-4.256 0-8.288-1.664-11.328-4.672C609.664 824.288 608 820.288 608 816L608 736l192 0L800 816zM609.248 704l21.568-53.952c1.184-3.008 3.232-5.536 5.856-7.296C639.328 640.96 642.464 640 645.664 640l116.704 0c3.2 0 6.304 0.96 8.928 2.72 2.656 1.824 4.704 4.352 5.92 7.328L798.944 704 609.248 704zM704 800l64 0c8.832 0 16-7.168 16-16S776.832 768 768 768l-64 0c-8.832 0-16 7.168-16 16S695.168 800 704 800z" /></svg>