<svg class="icon" style="width: 1em; height: 1em;vertical-align: middle;fill: currentColor;overflow: hidden;" viewBox="0 0 1024 1024" version="1.1" xmlns="http://www.w3.org/2000/svg"><path d="M800 320 224 320c-17.664 0-32-14.336-32-32s14.336-32 32-32l576 0c17.696 0 32 14.336 32 32S817.696 320 800 320zM800 544 224 544c-17.664 0-32-14.336-32-32s14.336-32 32-32l576 0c17.696 0 32 14.336 32 32S817.696 544 800 544zM800 768 224 768c-17.664 0-32-14.336-32-32s14.336-32 32-32l576 0c17.696 0 32 14.336 32 32S817.696 768 800 768z" /></svg>