<svg class="icon" style="width: 1em; height: 1em;vertical-align: middle;fill: currentColor;overflow: hidden;" viewBox="0 0 1024 1024" version="1.1" xmlns="http://www.w3.org/2000/svg"><path d="M840 800 192 800l0-160 32 0 0-32L192 608l0-64 64 0 0-9.376 132-128 94.016 96 222.016-224L704.032 352c0 8.832 7.168 16 16 16S736 360.832 736 352L736 240C736 231.168 736.832 224 728 224l-112 0c-8.832 0-16 7.168-16 16S607.168 256 616 256l73.376 0-201.376 201.376-96-96L241.376 512 192 512l0-64 32 0 0-32L192 416l0-64 64 0 0-32L192 320 192 256l32 0L224 224 192 224 192 192c0-8.832-7.168-16-16-16S160 183.168 160 192l0 624C160 824.832 175.168 832 184 832l656 0c8.832 0 16-7.168 16-16S848.832 800 840 800z"  /><path d="M736 480l0 32-64 0 0-32-32 0 0 64-64 0 0 32 32 0 0 64-32 0 0 32 64 0 0 64 32 0 0-32 64 0 0 32 32 0 0-64 64 0 0-32-32 0 0-64 32 0 0-32-64 0 0-64L736 480zM768 640l-32 0 0 32-64 0 0-32-32 0 0-64 32 0 0-32 64 0 0 32 32 0L768 640z"  /></svg>