<svg class="icon" style="width: 1em; height: 1em;vertical-align: middle;fill: currentColor;overflow: hidden;" viewBox="0 0 1024 1024" version="1.1" xmlns="http://www.w3.org/2000/svg"><path d="M849.952 366.048C840.864 356.992 828.8 352 816 352L608 352 608 240c0-12.8-4.992-24.864-14.048-33.952S572.8 192 560 192l-352 0C195.2 192 183.136 196.992 174.048 206.048S160 227.2 160 240l0 544c0 12.8 4.992 24.864 14.048 33.952S195.2 832 208 832L576 832l32 0 208 0c12.8 0 24.864-4.992 33.952-14.048S864 796.8 864 784l0-384C864 387.2 859.008 375.136 849.952 366.048zM576 352l0 448L208 800c-4.256 0-8.288-1.664-11.328-4.672C193.664 792.288 192 788.256 192 784l0-544c0-4.256 1.664-8.288 4.672-11.328C199.712 225.664 203.744 224 208 224l352 0c4.256 0 8.288 1.664 11.328 4.672C574.336 231.712 576 235.744 576 240L576 352zM832 784c0 4.256-1.664 8.288-4.672 11.328C824.288 798.336 820.256 800 816 800L608 800 608 384l208 0c4.256 0 8.288 1.664 11.328 4.672C830.336 391.712 832 395.744 832 400L832 784zM352 384 256 384c-8.832 0-16 7.168-16 16S247.168 416 256 416l96 0c8.832 0 16-7.168 16-16S360.832 384 352 384zM512 384l-96 0c-8.832 0-16 7.168-16 16S407.168 416 416 416l96 0c8.832 0 16-7.168 16-16S520.832 384 512 384zM352 480 256 480c-8.832 0-16 7.168-16 16S247.168 512 256 512l96 0c8.832 0 16-7.168 16-16S360.832 480 352 480zM512 480l-96 0c-8.832 0-16 7.168-16 16S407.168 512 416 512l96 0c8.832 0 16-7.168 16-16S520.832 480 512 480zM352 576 256 576c-8.832 0-16 7.168-16 16S247.168 608 256 608l96 0c8.832 0 16-7.168 16-16S360.832 576 352 576zM512 576l-96 0c-8.832 0-16 7.168-16 16S407.168 608 416 608l96 0c8.832 0 16-7.168 16-16S520.832 576 512 576zM768 480l-96 0c-8.832 0-16 7.168-16 16S663.168 512 672 512l96 0c8.832 0 16-7.168 16-16S776.832 480 768 480zM768 576l-96 0c-8.832 0-16 7.168-16 16S663.168 608 672 608l96 0c8.832 0 16-7.168 16-16S776.832 576 768 576z" /></svg>