<svg class="icon" style="width: 1em; height: 1em;vertical-align: middle;fill: currentColor;overflow: hidden;" viewBox="0 0 1024 1024" version="1.1" xmlns="http://www.w3.org/2000/svg"><path d="M800 736 800 704 768 704 768 736 608 736 608 768 768 768 768 800 800 800 800 768 832 768 832 736Z"  /><path d="M736 672l32 0 0 32-32 0 0-32Z"  /><path d="M736 800l32 0 0 32-32 0 0-32Z"  /><path d="M758.624 201.376C764.864 207.616 768 215.808 768 224l0 256 32 0L800 224c0-16.384-6.24-32.768-18.752-45.248C768.768 166.24 752.384 160 736 160l-64 0 0 32 64 0C744.192 192 752.384 195.136 758.624 201.376z"  /><path d="M448 160l128 0 0 32-128 0 0-32Z"  /><path d="M265.376 822.624C259.136 816.384 256 808.192 256 800L256 224c0-8.192 3.136-16.384 9.376-22.624C271.616 195.136 279.808 192 288 192l64 0L352 160 288 160C271.616 160 255.232 166.24 242.752 178.752 230.24 191.232 224 207.616 224 224l0 576c0 16.384 6.24 32.768 18.752 45.248C255.232 857.76 271.616 864 288 864l224 0 0-32L288 832C279.808 832 271.616 828.864 265.376 822.624z"  /><path d="M400 240C408.832 240 416 232.832 416 224L416 128c0-8.832-7.168-16-16-16S384 119.168 384 128l0 96C384 232.832 391.168 240 400 240z"  /><path d="M624 240C632.832 240 640 232.832 640 224L640 128c0-8.832-7.168-16-16-16S608 119.168 608 128l0 96C608 232.832 615.168 240 624 240z"  /><path d="M596.973 558.348c6.397 0 11.587-5.191 11.587-11.587s-5.191-11.588-11.587-11.588h-69.523v-46.348h69.523c6.397 0 11.587-5.191 11.587-11.587s-5.191-11.587-11.587-11.587h-54.738l64.564-91.839c3.662-5.238 2.41-12.444-2.828-16.13-5.214-3.662-12.444-2.41-16.13 2.827l-71.979 102.361-71.656-102.361c-3.662-5.26-10.892-6.489-16.13-2.827s-6.512 10.892-2.828 16.13l64.309 91.839h-54.808c-6.397 0-11.588 5.191-11.588 11.587s5.191 11.588 11.588 11.588h69.523v46.348h-69.523c-6.397 0-11.588 5.191-11.588 11.588s5.191 11.587 11.588 11.587h69.523v92.697c0 6.396 5.191 11.588 11.587 11.588s11.587-5.191 11.587-11.588v-92.697h69.523z"  /></svg>