<svg class="icon" style="width: 1em; height: 1em;vertical-align: middle;fill: currentColor;overflow: hidden;" viewBox="0 0 1024 1024" version="1.1" xmlns="http://www.w3.org/2000/svg"><path d="M687.008 127.68 314.336 500.352c-0.064 0.064-0.064 0.16-0.128 0.192-0.064 0.064-0.128 0.064-0.192 0.128-2.752 2.752-4.032 6.304-4.32 9.952C309.632 511.104 309.44 511.552 309.44 512c0 0.48 0.192 0.896 0.256 1.376 0.288 3.648 1.568 7.2 4.32 9.952 0.064 0.064 0.128 0.064 0.192 0.128 0.064 0.064 0.064 0.16 0.128 0.192l372.672 372.672c6.432 6.432 16.704 6.592 22.976 0.32 6.24-6.24 6.112-16.512-0.32-22.976L347.936 512 709.632 150.304c6.432-6.432 6.592-16.704 0.32-22.976C703.744 121.088 693.44 121.248 687.008 127.68z" /></svg>