<svg class="icon" style="width: 1em; height: 1em;vertical-align: middle;fill: currentColor;overflow: hidden;" viewBox="0 0 1024 1024" version="1.1" xmlns="http://www.w3.org/2000/svg"><path d="M320 224v576.001c0 17.664-14.336 31.999-32 32s-31.999-14.336-32-32v-576.001c0-17.696 14.336-31.999 32-32s32 14.304 32 32zM544 224v576.001c0 17.664-14.336 31.999-32 32s-31.999-14.336-32-32v-576.001c0-17.696 14.336-31.999 32-32s32 14.304 32 32zM768 224v576.001c0 17.664-14.336 31.999-32 32s-31.999-14.336-32-32v-576.001c0-17.696 14.336-31.999 32-32s32 14.304 32 32z" /></svg>