<svg class="icon" style="width: 1em; height: 1em;vertical-align: middle;fill: currentColor;overflow: hidden;" viewBox="0 0 1024 1024" version="1.1" xmlns="http://www.w3.org/2000/svg"><path d="M787.488 428c0.16 0.512 0.192 1.056 0.352 1.536C752.256 310.816 642.144 224 512 224s-240.256 86.816-275.84 205.536c0.16-0.512 0.192-1.056 0.352-1.536C198.24 436.864 169.6 471.008 169.6 512c0 40.992 28.64 75.136 66.912 84-0.064-0.192-0.064-0.416-0.128-0.608 2.752 8.096 11.36 12.64 19.648 10.208 8.48-2.56 13.28-11.456 10.72-19.936C259.616 561.888 256 537.088 256 512c0-141.152 114.848-256 256-256s256 114.848 256 256c0 116.16-77.824 214.304-184 245.504C575.392 744.544 560.704 736 544 736l-64 0c-26.528 0-48 21.472-48 48S453.472 832 480 832l64 0c24.96 0 45.216-19.072 47.552-43.424 93.92-27.072 168.256-100.608 196.288-194.112-0.16 0.512-0.192 1.056-0.352 1.536C825.76 587.136 854.4 552.992 854.4 512 854.4 471.008 825.76 436.864 787.488 428zM228.288 464.352c-0.512 3.008-0.992 6.048-1.376 9.088C227.296 470.368 227.776 467.36 228.288 464.352zM227.2 554.72c0.416 2.912 1.376 5.696 1.888 8.576C228.576 560.384 227.648 557.632 227.2 554.72zM795.712 559.648c0.512-3.008 0.992-6.016 1.376-9.056C796.704 553.632 796.224 556.64 795.712 559.648zM795.712 464.352c0.512 3.008 0.96 6.016 1.376 9.088C796.704 470.368 796.224 467.36 795.712 464.352zM514.336 688.32c68.16 0 128.928-43.264 151.232-107.616 2.88-8.352-1.536-17.44-9.888-20.352-8.352-2.848-17.472 1.536-20.352 9.888-17.824 51.488-66.464 86.08-120.992 86.08-54.656 0-103.328-34.72-121.088-86.4-2.848-8.352-11.968-12.832-20.32-9.92-8.352 2.848-12.8 11.968-9.92 20.32C385.184 644.928 446.016 688.32 514.336 688.32z" /></svg>