<svg class="icon" style="width: 1em; height: 1em;vertical-align: middle;fill: currentColor;overflow: hidden;" viewBox="0 0 1024 1024" version="1.1" xmlns="http://www.w3.org/2000/svg"><path d="M364 320c-8.832 0-16 7.168-16 16s7.168 16 16 16L832 352l0 103.872c0 11.648 1.792 22.88-5.92 31.648-7.68 8.736-15.296 14.432-26.848 15.936L424.992 552.96c-21.44 2.816-39.68 13.888-52.704 31.168-10.816 14.368-11.84 37.6-10.912 55.584-9.024-0.96-17.312-4.416-24.544-10.176-8.608-6.848-14.336-16.096-16.544-25.44L271.744 265.184C270.08 253.76 264.384 243.296 255.68 235.712 246.944 228.16 235.808 224 224.256 224L172 224c-8.832 0-16 7.168-16 16S163.168 256 172 256l52.256 0c2.72 0 6.752 0.672 10.464 3.904 3.744 3.264 4.992 7.136 5.376 9.824L288.96 609.984c4.032 17.536 14.016 33.376 28.128 44.64C331.2 665.824 348.864 672 366.912 672l8.608 0c1.28 0.32 2.624 0.512 3.968 0.512 0.768 0 1.6-0.064 2.368-0.16 0.576-0.064 1.088-0.192 1.632-0.32l428.544 0c8.832 0 16-7.168 16-16s-7.168-16-16-16L393.856 640.032c-1.024-16.672 0.704-31.264 4.736-36.608 7.808-10.368 19.232-17.024 32.096-18.688l375.744-49.504c19.264-2.528 30.912-11.968 43.712-26.56C862.944 494.016 864 475.296 864 455.872L864 320 364 320zM362.016 784m-48 0a1.5 1.5 0 1 0 96 0 1.5 1.5 0 1 0-96 0ZM714.016 784m-48 0a1.5 1.5 0 1 0 96 0 1.5 1.5 0 1 0-96 0Z" /></svg>