<svg class="icon" style="width: 1em; height: 1em;vertical-align: middle;fill: currentColor;overflow: hidden;" viewBox="0 0 1024 1024" version="1.1" xmlns="http://www.w3.org/2000/svg"><path d="M758.624 201.376C764.864 207.616 768 215.808 768 224l0 256 32 0L800 224c0-16.384-6.24-32.768-18.752-45.248C768.768 166.24 752.384 160 736 160l-64 0 0 32 64 0C744.192 192 752.384 195.136 758.624 201.376zM448 160l128 0 0 32-128 0 0-32ZM265.376 822.624C259.136 816.384 256 808.192 256 800L256 224c0-8.192 3.136-16.384 9.376-22.624C271.616 195.136 279.808 192 288 192l64 0L352 160 288 160C271.616 160 255.232 166.24 242.752 178.752 230.24 191.232 224 207.616 224 224l0 576c0 16.384 6.24 32.768 18.752 45.248C255.232 857.76 271.616 864 288 864l224 0 0-32L288 832C279.808 832 271.616 828.864 265.376 822.624zM400 240C408.832 240 416 232.832 416 224L416 128c0-8.832-7.168-16-16-16S384 119.168 384 128l0 96C384 232.832 391.168 240 400 240zM624 240C632.832 240 640 232.832 640 224L640 128c0-8.832-7.168-16-16-16S608 119.168 608 128l0 96C608 232.832 615.168 240 624 240zM720 368c0-8.832-7.168-16-16-16L320 352c-8.832 0-16 7.168-16 16S311.168 384 320 384l384 0C712.832 384 720 376.832 720 368zM592 496c0-8.832-7.168-16-16-16l-256 0c-8.832 0-16 7.168-16 16S311.168 512 320 512l256 0C584.832 512 592 504.832 592 496zM320 608c-8.832 0-16 7.168-16 16S311.168 640 320 640l128 0c8.832 0 16-7.168 16-16S456.832 608 448 608L320 608zM832 832l-233.376 0 73.12-73.12 20.928 20.928c3.136 3.136 7.232 4.672 11.328 4.672s8.192-1.568 11.328-4.672L800 695.136 800 704c0 8.832 7.168 16 16 16S832 712.832 832 704l0-32 0-14.464c0.064-0.864 0.064-1.696 0-2.56L832 640l-32 0-32 0c-8.832 0-16 7.168-16 16 0 8.832 7.168 16 16 16l9.888 0L704 745.888l-20.928-20.928c-6.24-6.24-16.384-6.24-22.624 0L576 809.376 576 640c0-8.832-7.168-16-16-16S544 631.168 544 640l0 208c0 4.096 1.568 8.192 4.672 11.328C551.808 862.432 555.904 864 560 864L576 864l256 0c8.832 0 16-7.168 16-16C848 839.168 840.832 832 832 832z" /></svg>