<svg class="icon" style="width: 1em; height: 1em;vertical-align: middle;fill: currentColor;overflow: hidden;" viewBox="0 0 1024 1024" version="1.1" xmlns="http://www.w3.org/2000/svg"><path d="M696.608 626.88c-7.168-7.616-14.688-14.88-22.56-21.792-6.624-5.792-16.736-5.184-22.56 1.472-5.824 6.656-5.152 16.736 1.504 22.592 7.072 6.208 13.856 12.736 20.288 19.616 7.2 7.648 13.952 15.68 20.256 24.096 37.76 50.144 57.696 109.984 57.696 172.928 0 8.832 7.168 16 16 16s16-7.168 16-16c0-69.984-22.176-136.416-64.128-192.16C712.064 644.32 704.576 635.36 696.608 626.88zM822.752 638.464c-6.368-8.416-13.12-16.48-20.352-24.16-6.464-6.88-13.28-13.472-20.384-19.712-6.688-5.824-16.768-5.184-22.592 1.472-5.824 6.656-5.152 16.736 1.472 22.592 6.336 5.536 12.416 11.392 18.176 17.536 6.4 6.848 12.48 14.08 18.112 21.536 33.728 44.864 51.552 98.368 51.552 154.688 0 8.832 7.168 16 16 16s16-7.168 16-16C880.8 749.088 860.736 688.96 822.752 638.464zM785.056 389.408c0-106.88-86.976-193.824-193.856-193.824-4.32 0-8.512 0.384-12.768 0.64-33.28-21.44-72.8-34.048-115.232-34.048-117.792 0-213.6 95.84-213.6 213.6 0 72.16 36.032 135.936 90.976 174.624-117.696 49.056-197.376 165.856-197.376 295.392 0 8.832 7.168 16 16 16s16-7.168 16-16c0-125.28 82.752-237.376 201.856-274.72 26.368 11.68 55.488 18.304 86.144 18.304 26.4 0 51.584-5.024 74.912-13.824 16.896 4.864 34.624 7.68 53.088 7.68C698.08 583.264 785.056 496.288 785.056 389.408zM463.2 557.376c-100.128 0-181.6-81.472-181.6-181.6 0-100.128 81.472-181.6 181.6-181.6s181.6 81.472 181.6 181.6C644.8 475.936 563.328 557.376 463.2 557.376zM591.2 551.264c-1.952 0-3.776-0.512-5.728-0.576 55.136-38.656 91.328-102.56 91.328-174.88 0-56.192-21.984-107.232-57.568-145.408 0 0 0 0 0 0 75.872 13.376 133.792 79.36 133.792 159.008C753.056 478.656 680.448 551.264 591.2 551.264z" /></svg>