<svg class="icon" style="width: 1em; height: 1em;vertical-align: middle;fill: currentColor;overflow: hidden;" viewBox="0 0 1024 1024" version="1.1" xmlns="http://www.w3.org/2000/svg"><path d="M785.472 681.696l-158.4-158.4 158.4-158.4-135.776-135.776-158.4 158.4-158.4-158.4-113.152 113.152 158.4 158.4-113.152 113.152-22.624 158.4 158.4-22.624 113.152-113.152 158.4 158.4L785.472 681.696zM649.696 274.4l90.496 90.496-45.248 45.248L604.448 319.68 649.696 274.4zM355.552 432.8l45.248-45.248-22.624-22.624-45.248 45.248-22.624-22.624 45.248-45.248L332.928 319.68 287.68 364.928l-22.624-22.624 67.872-67.872 135.776 135.776-67.872 67.872L355.552 432.8zM265.024 749.6l16.96-118.784 5.664 5.664 90.496 90.496 5.664 5.664L265.024 749.6zM400.8 704.32l-90.496-90.496 90.496-90.496 113.152-113.152 67.872-67.872 90.496 90.496-67.872 67.872-113.152 113.152L400.8 704.32zM672.32 749.6l-22.624-22.624 45.248-45.248-22.624-22.624-45.248 45.248-22.624-22.624 45.248-45.248-22.624-22.624-45.248 45.248-45.248-45.248 67.872-67.872 135.776 135.776L672.32 749.6z" /></svg>