<svg class="icon" style="width: 1em; height: 1em;vertical-align: middle;fill: currentColor;overflow: hidden;" viewBox="0 0 1024 1024" version="1.1" xmlns="http://www.w3.org/2000/svg"><path d="M670.4 308.352 512 466.752l-158.4-158.4c-12.512-12.512-32.768-12.512-45.248 0s-12.512 32.768 0 45.248l158.4 158.4-158.4 158.4c-12.512 12.512-12.512 32.768 0 45.248 12.48 12.48 32.768 12.512 45.248 0l158.4-158.4 158.4 158.4c12.48 12.48 32.768 12.512 45.248 0 12.512-12.512 12.48-32.768 0-45.248L557.248 512l158.4-158.4c12.512-12.512 12.48-32.768 0-45.248C703.136 295.84 682.88 295.84 670.4 308.352z" /></svg>