<svg class="icon" style="width: 1em; height: 1em;vertical-align: middle;fill: currentColor;overflow: hidden;" viewBox="0 0 1024 1024" version="1.1" xmlns="http://www.w3.org/2000/svg"><path d="M459.936 512 821.632 150.304c6.432-6.432 6.592-16.704 0.32-22.976-6.24-6.24-16.544-6.112-22.976 0.32L426.336 500.352c-0.064 0.064-0.064 0.16-0.128 0.192-0.064 0.064-0.128 0.064-0.192 0.128-2.752 2.752-4.032 6.304-4.32 9.952C421.632 511.104 421.44 511.52 421.44 512c0 0.48 0.192 0.896 0.256 1.376 0.288 3.648 1.568 7.2 4.32 9.952 0.064 0.064 0.128 0.064 0.192 0.128 0.064 0.064 0.064 0.16 0.128 0.192L799.008 896.32c6.432 6.432 16.704 6.592 22.976 0.32 6.24-6.24 6.112-16.512-0.32-22.976L459.936 512zM235.936 512 597.632 150.304c6.432-6.432 6.592-16.704 0.32-22.976-6.24-6.24-16.544-6.112-22.976 0.32L202.336 500.352c-0.064 0.064-0.064 0.16-0.128 0.192-0.064 0.064-0.128 0.064-0.192 0.128-2.752 2.752-4.032 6.304-4.32 9.952C197.632 511.104 197.44 511.52 197.44 512c0 0.48 0.192 0.896 0.256 1.376 0.288 3.648 1.568 7.2 4.32 9.952 0.064 0.064 0.128 0.064 0.192 0.128 0.064 0.064 0.064 0.16 0.128 0.192L575.008 896.32c6.432 6.432 16.704 6.592 22.976 0.32 6.24-6.24 6.112-16.512-0.32-22.976L235.936 512z" /></svg>