<svg class="icon" style="width: 1em; height: 1em;vertical-align: middle;fill: currentColor;overflow: hidden;" viewBox="0 0 1024 1024" version="1.1" xmlns="http://www.w3.org/2000/svg"><path d="M161.568 188.352l0 0.16 0 202.912c0 15.52 12.608 28.096 28.096 28.096s28.096-12.608 28.096-28.096l0-130.88 162.656 178.944c10.432 11.52 28.096 12.288 39.616 1.856 11.52-10.432 12.288-28.096 1.856-39.616L252.48 215.552l140.704 0c15.52 0 28.096-12.608 28.096-28.096s-12.608-28.096-28.096-28.096L190.272 159.36c-6.912 0-13.376 2.464-18.112 6.752C171.712 166.4 171.232 166.848 170.784 167.328 164.64 172.864 161.568 180.672 161.568 188.352L161.568 188.352 161.568 188.352zM862.432 188.352l0 0.16 0 202.912c0 15.52-12.608 28.096-28.096 28.096-15.52 0-28.096-12.608-28.096-28.096l0-130.88-162.656 179.104c-10.432 11.52-28.096 12.288-39.616 1.856-11.52-10.432-12.288-28.096-1.856-39.616l169.408-186.304-140.704 0c-15.52 0-28.096-12.608-28.096-28.096s12.608-28.096 28.096-28.096l202.912 0c6.912 0 13.376 2.464 18.112 6.752 0.448 0.32 0.928 0.768 1.376 1.216C859.36 172.864 862.432 180.672 862.432 188.352L862.432 188.352 862.432 188.352zM161.568 835.488l0-0.16 0-202.912c0-15.52 12.608-28.096 28.096-28.096s28.096 12.608 28.096 28.096l0 130.88 162.656-178.944c10.432-11.52 28.096-12.288 39.616-1.856 11.52 10.432 12.288 28.096 1.856 39.616L252.48 808.288l140.704 0c15.52 0 28.096 12.608 28.096 28.096s-12.608 28.096-28.096 28.096L190.272 864.48c-6.912 0-13.376-2.464-18.112-6.752-0.448-0.32-0.928-0.768-1.376-1.216C164.64 851.008 161.568 843.328 161.568 835.488L161.568 835.488 161.568 835.488zM862.432 835.488l0-0.16 0-202.912c0-15.52-12.608-28.096-28.096-28.096-15.52 0-28.096 12.608-28.096 28.096l0 130.88-162.656-178.944c-10.432-11.52-28.096-12.288-39.616-1.856-11.52 10.432-12.288 28.096-1.856 39.616l169.408 186.304-140.704 0c-15.52 0-28.096 12.608-28.096 28.096s12.608 28.096 28.096 28.096l202.912 0c6.912 0 13.376-2.464 18.112-6.752 0.448-0.32 0.928-0.768 1.376-1.216C859.36 851.008 862.432 843.328 862.432 835.488L862.432 835.488 862.432 835.488z" /></svg>