<svg class="icon" style="width: 1em; height: 1em;vertical-align: middle;fill: currentColor;overflow: hidden;" viewBox="0 0 1024 1024" version="1.1" xmlns="http://www.w3.org/2000/svg"><path d="M877.248 268.736C864.768 256.256 848.384 256 832 256l-96 0 0 32 96 0c8.192 0 16.384-2.88 22.624 3.36C860.864 297.632 864 299.808 864 308L864 352 160 352 160 308c0-8.192 3.136-10.368 9.376-16.64C175.616 285.12 183.808 288 192 288l96 0L288 256 192 256C175.616 256 159.232 256.256 146.752 268.736 134.24 281.248 128 291.616 128 308l0 448c0 16.384 6.24 38.752 18.752 51.264C159.232 819.744 175.616 832 192 832l640 0c16.384 0 32.768-12.256 45.248-24.736C889.76 794.752 896 772.384 896 756l0-448C896 291.616 889.76 281.248 877.248 268.736zM864 756c0 8.192-3.136 22.368-9.376 28.64S840.192 800 832 800L192 800c-8.192 0-16.384-9.12-22.624-15.36S160 764.192 160 756L160 384l704 0L864 756zM384 256l256 0 0 32-256 0 0-32ZM336 324c8.832 0 16-7.168 16-16l0-96c0-8.832-7.168-16-16-16S320 203.168 320 212l0 96C320 316.832 327.168 324 336 324zM688 324c8.832 0 16-7.168 16-16l0-96c0-8.832-7.168-16-16-16S672 203.168 672 212l0 96C672 316.832 679.168 324 688 324zM288 468l32 0c8.832 0 16-7.168 16-16s-7.168-16-16-16L288 436c-8.832 0-16 7.168-16 16S279.168 468 288 468zM288 596l32 0c8.832 0 16-7.168 16-16s-7.168-16-16-16L288 564c-8.832 0-16 7.168-16 16S279.168 596 288 596zM288 724l32 0c8.832 0 16-7.168 16-16s-7.168-16-16-16L288 692c-8.832 0-16 7.168-16 16S279.168 724 288 724zM416 468l32 0c8.832 0 16-7.168 16-16s-7.168-16-16-16l-32 0c-8.832 0-16 7.168-16 16S407.168 468 416 468zM416 596l32 0c8.832 0 16-7.168 16-16s-7.168-16-16-16l-32 0c-8.832 0-16 7.168-16 16S407.168 596 416 596zM416 724l32 0c8.832 0 16-7.168 16-16s-7.168-16-16-16l-32 0c-8.832 0-16 7.168-16 16S407.168 724 416 724zM576 468l32 0c8.832 0 16-7.168 16-16s-7.168-16-16-16l-32 0c-8.832 0-16 7.168-16 16S567.168 468 576 468zM576 596l32 0c8.832 0 16-7.168 16-16s-7.168-16-16-16l-32 0c-8.832 0-16 7.168-16 16S567.168 596 576 596zM576 724l32 0c8.832 0 16-7.168 16-16s-7.168-16-16-16l-32 0c-8.832 0-16 7.168-16 16S567.168 724 576 724zM704 468l32 0c8.832 0 16-7.168 16-16s-7.168-16-16-16l-32 0c-8.832 0-16 7.168-16 16S695.168 468 704 468zM704 596l32 0c8.832 0 16-7.168 16-16s-7.168-16-16-16l-32 0c-8.832 0-16 7.168-16 16S695.168 596 704 596zM704 724l32 0c8.832 0 16-7.168 16-16s-7.168-16-16-16l-32 0c-8.832 0-16 7.168-16 16S695.168 724 704 724z" /></svg>