<svg class="icon" style="width: 1em; height: 1em;vertical-align: middle;fill: currentColor;overflow: hidden;" viewBox="0 0 1024 1024" version="1.1" xmlns="http://www.w3.org/2000/svg"><path d="M597.792 523.456c0.064-0.064 0.128-0.064 0.192-0.128 2.752-2.752 4.032-6.304 4.32-9.952 0.032-0.48 0.256-0.896 0.256-1.376 0-0.48-0.192-0.896-0.256-1.376-0.288-3.648-1.568-7.2-4.32-9.952-0.064-0.064-0.128-0.064-0.192-0.128-0.064-0.064-0.064-0.16-0.128-0.192L224.992 127.68C218.56 121.248 208.256 121.088 202.016 127.328c-6.24 6.24-6.112 16.512 0.32 22.976L564.064 512 202.368 873.696c-6.432 6.432-6.592 16.704-0.32 22.976 6.24 6.24 16.544 6.112 22.976-0.32l372.672-372.672C597.728 523.584 597.76 523.488 597.792 523.456zM826.336 510.624c-0.288-3.648-1.568-7.2-4.32-9.952-0.064-0.064-0.128-0.064-0.192-0.128-0.064-0.064-0.064-0.16-0.128-0.192L448.992 127.68c-6.432-6.432-16.704-6.592-22.976-0.32-6.24 6.24-6.112 16.512 0.32 22.976L788.064 512 426.368 873.696c-6.432 6.432-6.592 16.704-0.32 22.976 6.24 6.24 16.544 6.112 22.976-0.32l372.672-372.672c0.064-0.064 0.064-0.16 0.128-0.192 0.064-0.064 0.128-0.064 0.192-0.128 2.752-2.752 4.032-6.304 4.32-9.952 0.032-0.48 0.256-0.896 0.256-1.376C826.56 511.52 826.368 511.104 826.336 510.624z" /></svg>