<svg class="icon" style="width: 1em; height: 1em;vertical-align: middle;fill: currentColor;overflow: hidden;" viewBox="0 0 1024 1024" version="1.1" xmlns="http://www.w3.org/2000/svg"><path d="M174.304 884.416 174.304 139.648c0-15.712-12.736-28.448-28.416-28.448-15.712 0-28.448 12.736-28.448 28.448l0 744.768c0 15.712 12.736 28.416 28.416 28.416C161.568 912.832 174.304 900.096 174.304 884.416L174.304 884.416zM592 674.752c0-9.408-6.368-17.056-14.208-17.056L233.472 657.696c-7.872 0-14.24 7.648-14.24 17.056l0 112.384c0 9.408 6.368 17.056 14.24 17.056l344.288 0c7.84 0 14.208-7.648 14.208-17.056L591.968 674.752 592 674.752zM906.56 453.76c0-9.408-7.616-17.056-17.088-17.056L236.32 436.704c-9.44 0-17.088 7.648-17.088 17.056l0 112.384c0 9.408 7.648 17.056 17.088 17.056l653.184 0c9.44 0 17.088-7.648 17.088-17.056L906.592 453.76 906.56 453.76zM219.264 237.664l0 112.352c0 9.44 7.648 17.088 17.088 17.088l542.656 0c9.408 0 17.056-7.648 17.056-17.088L796.064 237.664c0-9.408-7.648-17.088-17.056-17.088L236.32 220.576C226.912 220.576 219.264 228.256 219.264 237.664L219.264 237.664zM800 640l0 32-64 0 0-32-32 0 0 64-64 0 0 32 32 0 0 64-32 0 0 32 64 0 0 64 32 0 0-32 64 0 0 32 32 0 0-64 64 0 0-32-32 0 0-64 32 0 0-32-64 0 0-64L800 640zM832 800l-32 0 0 32-64 0 0-32-32 0 0-64 32 0 0-32 64 0 0 32 32 0L832 800z" /></svg>