<svg class="icon" style="width: 1em; height: 1em;vertical-align: middle;fill: currentColor;overflow: hidden;" viewBox="0 0 1024 1024" version="1.1" xmlns="http://www.w3.org/2000/svg"><path d="M608 544l-288 0c-8.832 0-16 7.168-16 16S311.168 576 320 576l288 0c8.832 0 16-7.168 16-16S616.832 544 608 544zM547.2 608 316.8 608c-7.072 0-12.8 8.928-12.8 16S309.728 640 316.8 640l230.4 0c7.072 0 12.8-8.928 12.8-16S554.272 608 547.2 608zM768 672c0 8.192-3.136 16.384-9.376 22.624S744.192 704 736 704L288 704c-8.192 0-16.384-3.136-22.624-9.376S256 680.192 256 672l0-96c0-8.832-7.168-16-16-16S224 567.168 224 576l0 96c0 16.384 6.24 32.768 18.752 45.248C255.232 729.76 271.616 736 288 736l448 0c16.384 0 32.768-6.24 45.248-18.752C793.76 704.768 800 688.384 800 672l0-96c0-8.832-7.168-16-16-16S768 567.168 768 576L768 672zM506.304 512l-27.616 0-19.744-52.992-80.64 0L359.68 512l-27.616 0 73.76-193.632 26.752 0L506.304 512zM451.2 437.12l-29.248-80.512c-0.928-2.592-1.92-7.072-3.008-13.504l-0.64 0c-0.928 5.824-1.952 10.336-3.136 13.504l-28.992 80.512L451.2 437.12zM534.304 512 534.304 318.368l55.264 0c29.344 0 53.728 8.544 73.184 25.632s29.184 40 29.184 68.736c0 30.016-9.728 54.048-29.184 72.128S618.208 512 587.552 512L534.304 512zM559.328 340.64l0 149.248 28.128 0c24.608 0 43.776-6.688 57.568-20.128s20.672-32.192 20.672-56.384-7.104-42.336-21.248-54.496-32.768-18.24-55.872-18.24L559.328 340.64z" /></svg>