<svg class="icon" style="width: 1em; height: 1em;vertical-align: middle;fill: currentColor;overflow: hidden;" viewBox="0 0 1024 1024" version="1.1" xmlns="http://www.w3.org/2000/svg"><path d="M341.056 623.008c-17.824 9.376-40.16 14.048-67.04 14.048-34.688 0-62.4-11.008-83.136-33.056-20.704-22.016-31.104-51.136-31.104-87.36 0-39.008 11.648-70.304 35.008-94.048s52.96-35.616 88.896-35.616c23.136 0 42.24 3.264 57.344 9.824l0 32.672c-17.28-9.632-36.32-14.368-57.024-14.368-26.976 0-48.96 8.928-65.952 26.944-16.96 17.952-25.472 42.176-25.472 72.736 0 28.928 7.904 51.936 23.744 68.928 15.84 17.056 36.576 25.568 62.176 25.568 23.968 0 44.768-5.376 62.496-16.256L340.992 623.008zM566.208 632.992l-36.864 0-40.16-67.2c-8.032-13.44-15.36-22.56-22.016-27.424-6.656-4.8-14.624-7.264-23.904-7.264l-22.496 0 0 101.888-31.264 0 0-242.016 73.76 0c23.52 0 41.984 5.696 55.328 16.992 13.344 11.36 20 27.264 20 47.68 0 33.504-17.92 55.328-53.76 65.312l0 0.736c6.656 2.816 12.448 6.816 17.248 12.064 4.864 5.184 11.136 14.112 18.848 26.688L566.208 632.992zM420.736 418.304l0 85.504 36.864 0c14.272 0 25.888-4.192 34.752-12.512 8.928-8.384 13.376-19.328 13.376-32.8 0-12.64-4.064-22.432-12.192-29.568-8.128-7.072-19.936-10.624-35.456-10.624L420.736 418.304zM817.312 632.992l0-160.32c0-13.184 0.768-29.12 2.336-47.616L818.88 425.056c-2.72 11.616-5.088 19.744-7.2 24.384l-79.84 183.552-17.344 0-79.68-182.176c-1.888-4.128-4.288-12.736-7.2-25.76l-0.928 0c1.024 11.264 1.568 27.552 1.568 49.056l0 158.88L598.4 632.992l0-242.016 42.336 0 71.392 165.952c5.408 12.672 8.992 22.56 10.784 29.696l1.088 0c5.408-14.944 9.216-24.992 11.392-30.304l72.672-165.312 40.32 0 0 242.016L817.312 633.024zM272.576 352C324.224 274.848 412.16 224 512 224s187.776 50.848 239.424 128l37.408 0C733.472 256.448 630.368 192 512 192s-221.472 64.448-276.832 160L272.576 352zM751.424 672c-51.68 77.152-139.584 128-239.424 128s-187.776-50.848-239.424-128L235.168 672c55.36 95.552 158.464 160 276.832 160s221.472-64.448 276.832-160L751.424 672z" /></svg>