<svg class="icon" style="width: 1em; height: 1em;vertical-align: middle;fill: currentColor;overflow: hidden;" viewBox="0 0 1024 1024" version="1.1" xmlns="http://www.w3.org/2000/svg"><path d="M608 544h-288a16 16 0 0 0 0 32h288a16 16 0 0 0 0-32zM547.2 608H316.8c-7.072 0-12.8 8.928-12.8 16s5.728 16 12.8 16h230.4c7.072 0 12.8-8.928 12.8-16s-5.728-16-12.8-16z"  /><path d="M768 672a31.904 31.904 0 0 1-32 32H288a31.904 31.904 0 0 1-32-32v-96a16 16 0 0 0-32 0v96c0 16.384 6.24 32.768 18.752 45.248 12.48 12.512 28.864 18.752 45.248 18.752h448a63.68 63.68 0 0 0 45.248-18.752A63.68 63.68 0 0 0 800 672v-96a16 16 0 0 0-32 0v96z"  /><path d="M506.304 512h-27.616l-19.744-52.992h-80.64L359.68 512h-27.616l73.76-193.632h26.752L506.304 512zM451.2 437.12l-29.248-80.512a90.176 90.176 0 0 1-3.008-13.504h-0.64a74.112 74.112 0 0 1-3.136 13.504l-28.992 80.512H451.2zM534.304 512V318.368h55.264c29.344 0 53.728 8.544 73.184 25.632s29.184 40 29.184 68.736c0 30.016-9.728 54.048-29.184 72.128s-44.544 27.136-75.2 27.136h-53.248z m25.024-171.36v149.248h28.128c24.608 0 43.776-6.688 57.568-20.128s20.672-32.192 20.672-56.384-7.104-42.336-21.248-54.496-32.768-18.24-55.872-18.24h-29.248z"  /></svg>