<svg class="icon" style="width: 1em; height: 1em;vertical-align: middle;fill: currentColor;overflow: hidden;" viewBox="0 0 1024 1024" version="1.1" xmlns="http://www.w3.org/2000/svg"><path d="M510.561441 62.923897c-247.110628 0-447.434815 200.323164-447.434815 447.437886 0 247.112675 200.324188 447.437887 447.434815 447.437887s447.434815-200.325212 447.434815-447.437887c0-247.115747-200.324188-447.437887-447.434815-447.437886z m0 850.131985c-222.401203 0-402.691027-180.293919-402.691026-402.694099 0-222.402227 180.289824-402.694098 402.691026-402.694098s402.691027 180.291871 402.691027 402.694098c0 222.399155-180.289824 402.694098-402.691027 402.694099z"  /><path d="M510.561441 510.361783m-44.743789 0a44.743789 44.743789 0 1 0 89.487578 0 44.743789 44.743789 0 1 0-89.487578 0Z"  /><path d="M331.58731 510.361783m-44.743788 0a44.743789 44.743789 0 1 0 89.487577 0 44.743789 44.743789 0 1 0-89.487577 0Z"  /><path d="M689.535572 510.361783m-44.743789 0a44.743789 44.743789 0 1 0 89.487578 0 44.743789 44.743789 0 1 0-89.487578 0Z"  /></svg>