<svg class="icon" style="width: 1em; height: 1em;vertical-align: middle;fill: currentColor;overflow: hidden;" viewBox="0 0 1024 1024" version="1.1" xmlns="http://www.w3.org/2000/svg"><path d="M829.856 616.192h-64.256v-102.88c0-29.6-24.064-53.664-53.664-53.664H314.08c-29.6 0-53.664 24.064-53.664 53.664v102.88H194.144c-18.816 0-34.144 15.328-34.144 34.144v157.76c0 18.848 15.328 34.144 34.144 34.144h157.76c18.848 0 34.144-15.328 34.144-34.144v-157.76c0-18.848-15.328-34.144-34.144-34.144H289.696v-102.88c0-13.44 10.944-24.384 24.384-24.384h397.856c13.44 0 24.384 10.944 24.384 24.384v102.88h-64.256c-18.848 0-34.144 15.328-34.144 34.144v157.76c0 18.848 15.328 34.144 34.144 34.144h157.76c18.848 0 34.144-15.328 34.144-34.144v-157.76a34.144 34.144 0 0 0-34.112-34.144m-473.088 34.144v157.76a4.864 4.864 0 0 1-4.864 4.864h-157.76a4.864 4.864 0 0 1-4.864-4.864v-157.76c0-2.688 2.176-4.864 4.864-4.864h157.76c2.688 0 4.864 2.208 4.864 4.864m477.952 157.76a4.864 4.864 0 0 1-4.864 4.864h-157.76a4.864 4.864 0 0 1-4.864-4.864v-157.76c0-2.688 2.176-4.864 4.864-4.864h157.76c2.688 0 4.864 2.176 4.864 4.864v157.76m-243.328-595.84v164.96h-165.376V212.256h165.376z m0-30.496h-165.376a30.496 30.496 0 0 0-30.496 30.496v164.96c0 16.832 13.664 30.496 30.496 30.496h165.376a30.496 30.496 0 0 0 30.496-30.496V212.256a30.496 30.496 0 0 0-30.496-30.496" /></svg>