<svg class="icon" style="width: 1em; height: 1em;vertical-align: middle;fill: currentColor;overflow: hidden;" viewBox="0 0 1024 1024" version="1.1" xmlns="http://www.w3.org/2000/svg"><path d="M512 192C335.264 192 192 335.264 192 512s143.264 320 320 320 320-143.264 320-320S688.736 192 512 192z m0 608a288 288 0 0 1-288-288c0-159.072 128.928-288 288-288s288 128.928 288 288a288 288 0 0 1-288 288zM528.576 633.44a21.824 21.824 0 0 1 6.272 16.128 23.776 23.776 0 0 1-6.272 16.128c-4.768 4.224-10.304 6.304-16.576 6.304s-11.648-2.24-16.128-6.72a21.472 21.472 0 0 1-6.72-15.68c0-6.88 2.24-12.224 6.72-16.128A21.824 21.824 0 0 1 512 627.2a22.304 22.304 0 0 1 16.576 6.24zM496.768 352h30.496l-4.48 237.088h-21.504L496.768 352z" /></svg>