<svg class="icon" style="width: 1em; height: 1em;vertical-align: middle;fill: currentColor;overflow: hidden;" viewBox="0 0 1024 1024" version="1.1" xmlns="http://www.w3.org/2000/svg"><path d="M528.576 506.624v46.24h82.08a16.544 16.544 0 0 1 0 33.088h-82.08v51.872a16.544 16.544 0 0 1-33.152 0v-51.872h-82.08a16.512 16.512 0 1 1 0-33.088h82.08v-46.24h-82.08a16.512 16.512 0 1 1 0-33.088h76.384l-87.2-74.944a16.512 16.512 0 0 1 21.632-24.928l87.872 75.52 87.84-75.52a16.512 16.512 0 0 1 21.632 24.928l-87.2 74.944h76.384a16.544 16.544 0 0 1 0 33.088h-82.112z"  /><path d="M512 192C335.264 192 192 335.264 192 512s143.264 320 320 320 320-143.264 320-320S688.736 192 512 192z m0 608a288 288 0 0 1-288-288c0-159.072 128.928-288 288-288s288 128.928 288 288a288 288 0 0 1-288 288z"  /></svg>