<svg class="icon" style="width: 1em; height: 1em;vertical-align: middle;fill: currentColor;overflow: hidden;" viewBox="0 0 1024 1024" version="1.1" xmlns="http://www.w3.org/2000/svg"><path d="M556.544 606.08a138.176 138.176 0 0 1-98.048-40.544 18.88 18.88 0 0 1 0-26.624 18.88 18.88 0 0 1 26.624 0 101.056 101.056 0 0 0 142.816 0l136.928-136.928a101.056 101.056 0 0 0 0-142.816 101.056 101.056 0 0 0-142.816 0l-115.52 115.52a18.88 18.88 0 0 1-26.624 0 18.88 18.88 0 0 1 0-26.624l115.52-115.52a138.752 138.752 0 0 1 196.064 0 138.784 138.784 0 0 1 0 196.064l-136.928 136.896a138.144 138.144 0 0 1-98.08 40.576h0.064zM330.592 832a138.176 138.176 0 0 1-98.048-40.544 138.752 138.752 0 0 1 0-196.064l136.896-136.896a138.752 138.752 0 0 1 196.064 0 18.88 18.88 0 0 1 0 26.624 18.88 18.88 0 0 1-26.624 0 101.056 101.056 0 0 0-142.816 0l-136.896 136.928a101.056 101.056 0 0 0 0 142.816 101.056 101.056 0 0 0 142.816 0l115.52-115.52a18.88 18.88 0 0 1 26.624 0 18.88 18.88 0 0 1 0 26.624l-115.52 115.52A138.24 138.24 0 0 1 330.56 832h0.032z" /></svg>