<svg class="icon" style="width: 1em; height: 1em;vertical-align: middle;fill: currentColor;overflow: hidden;" viewBox="0 0 1024 1024" version="1.1" xmlns="http://www.w3.org/2000/svg"><path d="M488.064 511.392V216.768a24.512 24.512 0 1 1 49.088 0v294.624a24.512 24.512 0 1 1-49.088 0zM774.048 328.32a318.208 318.208 0 0 0-78.304-78.432l-0.064 0.064a24.544 24.544 0 0 0-28.096 40.192c0.096 0.096 0.224 0.096 0.352 0.16 33.248 23.392 42.4 32.512 65.92 66.144 85.408 121.984 55.68 290.752-66.336 376.16a270.912 270.912 0 0 1-309.792 0.064 268.288 268.288 0 0 1-66.24-66.432 268.032 268.032 0 0 1-44.736-201.728 268.128 268.128 0 0 1 111.104-174.304c0.192-0.128 0.384-0.224 0.544-0.384l-0.128-0.128a24.512 24.512 0 0 0-28.64-39.744c-0.128 0.032-0.16 0.16-0.256 0.192l-0.032-0.032c-144.192 101.152-179.2 300.032-78.144 444.352a317.664 317.664 0 0 0 78.304 78.432 319.36 319.36 0 0 0 366.176-0.064c144.384-101.152 179.456-300.16 78.368-444.512z" /></svg>