<svg class="icon" style="width: 1em; height: 1em;vertical-align: middle;fill: currentColor;overflow: hidden;" viewBox="0 0 1024 1024" version="1.1" xmlns="http://www.w3.org/2000/svg"><path d="M512 192C335.264 192 192 335.264 192 512s143.264 320 320 320 320-143.264 320-320S688.736 192 512 192z m0 608a288 288 0 0 1-288-288c0-159.072 128.928-288 288-288s288 128.928 288 288a288 288 0 0 1-288 288zM583.616 371.968c16.256 15.328 24.384 36.128 24.384 62.336 0 18.976-5.728 36-17.184 51.04-4.512 5.728-16.416 17.344-35.712 34.784-10.24 9.024-17.76 17.6-22.592 25.76a67.712 67.712 0 0 0-9.472 34.784v13.12h-27.552v-13.12c0-13.248 2.72-25.28 8.128-36.128 6.624-14.464 20.48-30.848 41.568-49.248 11.424-11.424 18.368-18.688 20.768-21.696 9.632-12.32 14.464-25.12 14.464-38.4 0-18.976-5.6-34.304-16.736-46.08-11.456-11.456-28-17.184-49.696-17.184-24.096 0-42.304 8.128-54.656 24.384-10.848 13.536-16.256 32.224-16.256 56H416c0-30.112 8.256-54.784 24.864-74.08 17.76-20.48 42.624-30.72 74.528-30.72 28.288 0.032 51.04 8.16 68.224 24.448z m-57.824 265.6c4.512 3.936 6.752 9.344 6.752 16.256 0 6.336-2.24 11.744-6.752 16.256a24.064 24.064 0 0 1-16.256 6.336 22.72 22.72 0 0 1-16.704-6.784 21.44 21.44 0 0 1-6.336-15.808c0-6.944 2.08-12.32 6.336-16.256a22.592 22.592 0 0 1 16.704-6.336 22.336 22.336 0 0 1 16.256 6.336z" /></svg>