<svg class="icon" style="width: 1em; height: 1em;vertical-align: middle;fill: currentColor;overflow: hidden;" viewBox="0 0 1024 1024" version="1.1" xmlns="http://www.w3.org/2000/svg"><path d="M845.248 242.752A63.68 63.68 0 0 0 800 224H224a63.68 63.68 0 0 0-45.248 18.752A63.68 63.68 0 0 0 160 288v384c0 16.384 6.24 32.768 18.752 45.248 12.48 12.512 28.864 18.752 45.248 18.752h192l96 96 96-96h192a63.68 63.68 0 0 0 45.248-18.752A63.68 63.68 0 0 0 864 672V288a63.68 63.68 0 0 0-18.752-45.248zM832 656c0 14.752-7.232 24.672-18.464 35.936-11.264 11.232-27.584 12.064-42.336 12.064H576l-64 63.744L448 704H252.8c-14.752 0-31.072-0.832-42.336-12.064C199.232 680.672 192 670.752 192 656v-352c0-14.752 7.232-24.672 18.464-35.936C221.728 256.832 238.048 256 252.8 256h518.4c14.752 0 31.072 0.832 42.336 12.064 11.232 11.264 18.464 21.184 18.464 35.936v352zM512 480m-48 0a48 48 0 1 0 96 0 48 48 0 1 0-96 0ZM320 480m-48 0a48 48 0 1 0 96 0 48 48 0 1 0-96 0ZM704 480m-48 0a48 48 0 1 0 96 0 48 48 0 1 0-96 0Z" /></svg>