<svg class="icon" style="width: 1em; height: 1em;vertical-align: middle;fill: currentColor;overflow: hidden;" viewBox="0 0 1024 1024" version="1.1" xmlns="http://www.w3.org/2000/svg"><path d="M446.88 331.104c0-38.24 28.864-69.344 64.32-69.344 35.456 0 64.32 31.104 64.32 69.344v107.424h37.664v-107.424C613.184 271.968 567.52 224 511.2 224c-56.32 0-101.984 47.936-101.984 107.104v107.424h37.664v-107.424m128.64 361.792c0 38.24-28.864 69.344-64.32 69.344-35.456 0-64.32-31.104-64.32-69.344v-105.6h-37.664v105.568c0 59.168 45.664 107.104 101.984 107.104 56.32 0 101.984-47.968 101.984-107.104v-105.6h-37.664v105.632M385.248 585.6l-59.584 59.744a16.416 16.416 0 0 1-23.136-23.2l59.584-59.744a16.416 16.416 0 0 1 23.136 23.2m-24.096-58.368a16.256 16.256 0 0 1-11.552 4.8H265.344a16.384 16.384 0 0 1 0-32.832h84.256a16.384 16.384 0 0 1 11.552 28.032m24.096-58.4c-6.4 6.4-16.736 6.4-23.136 0l-59.584-59.744a16.416 16.416 0 0 1 23.136-23.2l59.584 59.744c6.4 6.432 6.4 16.8 0 23.2m336.192 176.512c-6.4 6.4-16.736 6.4-23.136 0L638.752 585.6a16.416 16.416 0 0 1 23.136-23.2l59.584 59.744c6.368 6.4 6.368 16.8-0.032 23.2m48.8-118.112a16.256 16.256 0 0 1-11.584 4.8h-84.256a16.384 16.384 0 0 1 0-32.832h84.256a16.384 16.384 0 0 1 11.584 28.032m-48.8-118.112l-59.552 59.744a16.416 16.416 0 0 1-23.136-23.2l59.552-59.744a16.416 16.416 0 0 1 23.136 23.2m0 0z" /></svg>