<svg class="icon" style="width: 1em; height: 1em;vertical-align: middle;fill: currentColor;overflow: hidden;" viewBox="0 0 1024 1024" version="1.1" xmlns="http://www.w3.org/2000/svg"><path d="M825.568 451.328a15.392 15.392 0 0 0-11.488-12.16 120.16 120.16 0 0 1-77.888-58.208 123.104 123.104 0 0 1-10.784-97.376 15.488 15.488 0 0 0-4.576-16.128 316.48 316.48 0 0 0-103.584-60.64 15.072 15.072 0 0 0-16.128 4.064 119.168 119.168 0 0 1-88.608 39.232 119.36 119.36 0 0 1-88.576-39.2 15.136 15.136 0 0 0-16.128-4.032A315.68 315.68 0 0 0 304.224 267.52a15.584 15.584 0 0 0-4.576 16.128 123.264 123.264 0 0 1-10.784 97.344 120.032 120.032 0 0 1-77.888 58.208 15.2 15.2 0 0 0-11.488 12.16c-3.84 20.448-5.76 40.864-5.76 60.544 0 19.712 1.92 40.096 5.76 60.544a15.232 15.232 0 0 0 11.488 12.096 120.16 120.16 0 0 1 77.888 58.208c16.896 29.76 20.768 64.32 10.784 97.376a15.488 15.488 0 0 0 4.576 16.128 316.48 316.48 0 0 0 103.584 60.64 14.912 14.912 0 0 0 16.096-4.032 119.488 119.488 0 0 1 88.608-39.2c33.856 0 65.312 13.888 88.576 39.2a15.136 15.136 0 0 0 16.064 4.064 316.352 316.352 0 0 0 103.584-60.64 15.488 15.488 0 0 0 4.576-16.128 123.104 123.104 0 0 1 10.848-97.376 120.256 120.256 0 0 1 77.888-58.208 15.232 15.232 0 0 0 11.488-12.096c3.84-20.48 5.76-40.896 5.76-60.544a327.488 327.488 0 0 0-5.728-60.608z m-28.192 105.952a152.32 152.32 0 0 0-87.52 70.112 156.256 156.256 0 0 0-16.224 111.744 287.04 287.04 0 0 1-77.6 45.408 148.48 148.48 0 0 0-103.552-41.632 150.976 150.976 0 0 0-103.552 41.632 284.896 284.896 0 0 1-77.536-45.408 153.472 153.472 0 0 0-103.776-181.856C225.216 541.888 224 526.688 224 511.936s1.216-30.016 3.616-45.408a152.32 152.32 0 0 0 87.456-70.112 156.256 156.256 0 0 0 16.224-111.744 285.344 285.344 0 0 1 77.6-45.44 150.976 150.976 0 0 0 103.584 41.696 148.8 148.8 0 0 0 103.584-41.632 284.768 284.768 0 0 1 77.6 45.408 156.032 156.032 0 0 0 16.16 111.744 152.32 152.32 0 0 0 87.52 70.112c2.4 15.424 3.616 30.624 3.616 45.408 0.032 14.688-1.184 29.888-3.584 45.312zM512 404.32a106.112 106.112 0 1 0 0 212.224 106.112 106.112 0 0 0 0-212.224z m0 182.496a76.384 76.384 0 1 1 0-152.8 76.384 76.384 0 0 1 0 152.8z" /></svg>