<svg class="icon" style="width: 1em; height: 1em;vertical-align: middle;fill: currentColor;overflow: hidden;" viewBox="0 0 1024 1024" version="1.1" xmlns="http://www.w3.org/2000/svg"><path d="M783.52 240.48c-149.952-149.952-393.088-149.952-543.072 0-149.952 149.952-149.952 393.088 0 543.072s393.088 149.952 543.072 0c149.984-149.984 149.984-393.12 0-543.072z m-135.744 452.544L512 557.248l-135.776 135.776a32 32 0 1 1-45.248-45.248L466.752 512l-135.776-135.776a32 32 0 1 1 45.248-45.248L512 466.752l135.776-135.776a31.968 31.968 0 1 1 45.248 45.248L557.248 512l135.776 135.776a31.968 31.968 0 1 1-45.248 45.248z" /></svg>