<svg class="icon" style="width: 1em; height: 1em;vertical-align: middle;fill: currentColor;overflow: hidden;" viewBox="0 0 1024 1024" version="1.1" xmlns="http://www.w3.org/2000/svg"><path d="M512 128C299.936 128 128 299.904 128 512c0 212.064 171.936 384 384 384s384-171.936 384-384c0-212.096-171.936-384-384-384z m237.088 261.696l-271.52 271.52a47.968 47.968 0 0 1-67.904 0L273.92 525.472c-8.576-8.576-7.968-23.168 1.408-32.512 9.376-9.376 23.936-10.016 32.544-1.408l118.784 118.784a23.904 23.904 0 0 0 33.92 0l254.56-254.56a24 24 0 0 1 33.952 33.92z" /></svg>