<svg class="icon" style="width: 1em; height: 1em;vertical-align: middle;fill: currentColor;overflow: hidden;" viewBox="0 0 1024 1024" version="1.1" xmlns="http://www.w3.org/2000/svg"><path d="M844.832 279.904l-52.16-90.336H231.68L179.52 279.904a136.96 136.96 0 0 0 40.32 180.8v290.432a83.2 83.2 0 0 0 83.136 83.136h418.432a83.2 83.2 0 0 0 83.136-83.136v-290.464a135.584 135.584 0 0 0 53.984-76.928 136.064 136.064 0 0 0-13.696-103.84z m-123.424 507.68H302.976c-20.096 0-36.48-16.352-36.48-36.48v-269.696a137.216 137.216 0 0 0 137.248-46.944 136.256 136.256 0 0 0 109.44 54.912c43.2 0 83.008-20.512 108.416-53.632a135.904 135.904 0 0 0 69.6 44.512 135.744 135.744 0 0 0 66.688 1.216v269.664a36.48 36.48 0 0 1-36.48 36.448z m92.064-415.904a89.216 89.216 0 0 1-41.824 54.656 89.152 89.152 0 0 1-68.288 8.864 89.76 89.76 0 0 1-54.72-42.048l-33.76-58.432-16.864 47.808a89.92 89.92 0 0 1-170.272-1.76l-16.32-49.504-35.712 61.888a90.24 90.24 0 0 1-123.008 33.184 90.208 90.208 0 0 1-32.768-123.104l38.688-67.008h507.104l38.688 67.008c12.064 20.864 15.264 45.184 9.056 68.448zM400.992 638.016l-12-7.008a2133.312 2133.312 0 0 1 56-120l12.992 4a1743.52 1743.52 0 0 1-56.992 123.008z m25.024-27.008h14.016V745.024h-14.016a2338.048 2338.048 0 0 1-0.992-64.992 2634.88 2634.88 0 0 1 0.992-69.024z m201.984 44v12c-35.328 0.672-64 0.992-86.016 0.992s-51.328-0.32-88-0.992v-12c16.672 0.672 31.328 0.352 44-0.992v-63.008h-36.992v-14.016h36.992v-55.008h15.008v55.008h48.992a614.336 614.336 0 0 1 0.992-60h14.016v60h40v14.016h-40v28c0.672 8.672 0.992 20.352 0.992 35.008 14.688 1.312 31.36 1.664 50.016 0.992z m-131.008 29.984l11.008 8a370.944 370.944 0 0 1-43.008 51.008l-10.016-8.992c5.344-7.328 12.992-16.32 23.008-27.008 5.344-6.656 11.68-14.336 19.008-23.008z m16-30.976h48.992v-63.008c-8.672 0.672-16.992 0.992-24.992 0.992-8.672 0-16.672-0.32-24-0.992v63.008z m84 56c8 0.672 12.32 4.352 12.992 11.008-0.672 8.672-4.992 13.344-12.992 14.016a15.68 15.68 0 0 1-14.016-14.016c1.344-6.016 6.016-9.696 14.016-11.008z" /></svg>