<svg class="icon" style="width: 1em; height: 1em;vertical-align: middle;fill: currentColor;overflow: hidden;" viewBox="0 0 1024 1024" version="1.1" xmlns="http://www.w3.org/2000/svg"><path d="M824.48 824.608a23.04 23.04 0 0 1-32.16 0l-118.048-115.136a297.184 297.184 0 0 1-185.984 64.928c-163.168 0-295.456-130.176-295.456-290.816 0-160.576 132.288-290.752 295.456-290.752s295.456 130.176 295.456 290.752c0 75.104-29.184 143.328-76.672 194.912l117.376 114.432a22.176 22.176 0 0 1 0.032 31.68M488.32 237.632c-138.016 0-250.016 110.144-250.016 245.984 0 135.904 112 246.048 250.016 246.048 138.112 0 250.048-110.144 250.048-246.048-0.032-135.84-111.968-245.984-250.048-245.984m0 0zM324.16 484.992l-18.016-10.496a3198.528 3198.528 0 0 1 84-180l19.488 6.016a2626.048 2626.048 0 0 1-85.472 184.48z m37.504-40.48h20.992v201.024h-20.992c-0.992-36-1.504-68.48-1.504-97.504s0.512-63.52 1.504-103.52z m303.008 65.984v18.016c-52.992 0.992-96 1.504-128.992 1.504s-76.992-0.512-132-1.504v-18.016c24.992 0.992 47.008 0.512 66.016-1.504v-94.496h-55.488v-20.992h55.488V311.008h22.496v82.496h73.504a927.52 927.52 0 0 1 1.504-90.016h20.992v90.016h60v20.992h-60v42.016c0.992 12.992 1.504 30.528 1.504 52.512 21.952 1.984 46.976 2.464 74.976 1.472z m-196.512 44.992l16.512 12a557.376 557.376 0 0 1-64.512 76.512l-15.008-13.504c8-11.008 19.488-24.512 34.496-40.512 8-9.984 17.504-21.472 28.512-34.496z m24-46.496h73.504v-94.496c-12.992 0.992-25.504 1.504-37.504 1.504-12.992 0-24.992-0.512-36-1.504v94.496z m125.984 84c12 0.992 18.496 6.528 19.488 16.512-0.992 12.992-7.488 20-19.488 20.992-12-2.016-19.008-8.992-20.992-20.992 2.016-8.992 8.992-14.496 20.992-16.512z" /></svg>