<svg class="icon" style="width: 1em; height: 1em;vertical-align: middle;fill: currentColor;overflow: hidden;" viewBox="0 0 1024 1024" version="1.1" xmlns="http://www.w3.org/2000/svg"><path d="M656 493.44c-65.408 0-122.592 36.288-152.8 89.92l-69.568-34.336c17.312-22.72 27.648-51.168 27.648-81.984 0-20.192-4.416-39.328-12.352-56.544l127.2-55.104a112.064 112.064 0 0 0 91.104 46.976c62.016 0 112.48-50.848 112.48-113.344S729.248 175.68 667.264 175.68c-62.016 0-112.448 50.848-112.448 113.344 0 8.64 0.96 17.056 2.784 25.152l-134.72 58.432a132.928 132.928 0 0 0-95.424-40.416c-73.76 0-133.76 60.48-133.76 134.848 0 74.368 60 134.848 133.76 134.848 25.824 0 49.952-7.424 70.4-20.224l88.352 43.648c-3.776 14.4-5.792 29.504-5.792 45.088 0 97.6 78.784 176.992 175.584 176.992 96.832 0 175.648-79.392 175.648-176.992 0-97.568-78.816-176.96-175.648-176.96z m11.264-281.6a76.992 76.992 0 0 1 76.608 77.184 76.992 76.992 0 0 1-76.608 77.184 76.96 76.96 0 0 1-76.576-77.184 76.928 76.928 0 0 1 76.576-77.184zM656 802.208c-72.096 0-130.752-59.136-130.752-131.776 0-72.704 58.656-131.84 130.752-131.84 72.128 0 130.784 59.136 130.784 131.84 0 72.64-58.656 131.776-130.784 131.776z" /></svg>