<svg class="icon" style="width: 1em; height: 1em;vertical-align: middle;fill: currentColor;overflow: hidden;" viewBox="0 0 1024 1024" version="1.1" xmlns="http://www.w3.org/2000/svg"><path d="M512 111.008c-220.576 0-400 179.424-400 400s179.424 400 400 400 400-179.424 400-400-179.424-400-400-400z m0 768c-202.912 0-368-165.088-368-368s165.088-368 368-368 368 165.088 368 368-165.088 368-368 368zM715.168 354.752l-254.56 254.56a23.904 23.904 0 0 1-33.92 0l-118.784-118.784c-8.608-8.576-23.168-7.968-32.544 1.408-9.376 9.376-10.016 23.936-1.408 32.512l135.776 135.776a47.968 47.968 0 0 0 67.904 0l271.52-271.52a24 24 0 1 0-33.984-33.952z" /></svg>