<svg class="icon" style="width: 1em; height: 1em;vertical-align: middle;fill: currentColor;overflow: hidden;" viewBox="0 0 1024 1024" version="1.1" xmlns="http://www.w3.org/2000/svg"><path d="M168.192 499.584l39.424 20.256s17.888 10.272 27.36-8.928l97.536-203.936s9.216-17.408-5.856-25.6l-43.008-20.992s-13.344-7.456-21.984 8.224c-0.32 6.304-100.096 207.776-100.096 207.776s-6.368 16.544 6.624 23.2m0 0zM811.328 520.288l40.192-18.496s19.2-7.744 10.016-27.104l-100.32-202.592s-8.032-17.984-23.84-11.2l-42.976 20.864s-14.112 5.888-7.232 22.368c4.8 4.128 101.92 207.104 101.92 207.104s8.96 15.2 22.24 9.056m0 0zM263.616 519.584l13.248-28.096 46.624 58.848s30.304-6.976 40.928 11.968c0 0 10.048 11.488 5.696 33.248 0 0 6.272 4.576 6.688 7.392 0 0 20.896-5.024 33.44 9.728 0 0 11.552 9.248 10.176 27.136 0 0 8.288 3.584 10.016 8.448 0 0 20.544-5.056 30.432 6.816 0 0 12.16 11.424 11.264 24.672l19.04 13.888s17.696 1.504 20.608 15.36l17.056 12.608s27.264 10.784 28.864-16.48l-64.096-48.768s-7.52-19.648 15.936-16.608l95.52 67.232s15.584 6.656 25.024-8.16c0 0 9.216-12.832-3.872-26.624l-101.568-73.408s-8.96-20.544 14.112-18.944l120.512 85.312s17.152 6.784 24.352-5.952c0 0 9.728-12.736 0-25.92l-133.088-97.056s-7.968-23.264 16.928-17.28l137.152 97.728s20.736 6.528 30.048-10.4c0 0 11.712-18.144-4.064-33.184l-194.08-169.312s-36.032-17.28-57.6 18.816c0 0-3.776 58.72-69.024 69.472 0 0-44.576-3.424-34.176-32.64 0 0 13.088-17.312 11.936-53.696 0 0 1.504-26.112 19.616-48.416h-69.888l15.36-31.84h105.504s43.36-24.576 76.096-22.304c0 0 42.592 2.304 54.048 8.8 0 0 56.448 18.048 81.728 13.824l94.496 195.744-14.976 34.176s27.616 28.416 7.232 62.912c-5.696 11.552-20.224 22.72-44.064 23.744 0 0 3.616 23.264-13.088 36.352 0 0-12.288 16.864-42.08 12.192 0 0 1.728 20.48-17.984 34.144 0 0-23.488 20.192-59.712-4.448 0 0-5.76 23.072-34.72 27.84 0 0-21.088 3.296-33.408-8.576 0 0-22.112 41.632-53.632 18.208 0 0-19.904-16.512-5.888-39.872 0 0-26.88 42.4-58.784 10.528 0 0-17.664-13.312-1.28-41.12 0 0-25.344 28.768-53.216 2.688 0 0-18.976-15.52-3.84-44.416 0 0-25.856 30.592-56 1.408 0 0-12.64-11.68-5.376-37.632l29.152-39.872-39.328-50.208m0 0z" /></svg>