<svg class="icon" style="width: 1em; height: 1em;vertical-align: middle;fill: currentColor;overflow: hidden;" viewBox="0 0 1024 1024" version="1.1" xmlns="http://www.w3.org/2000/svg"><path d="M512 111.008c-220.576 0-400 179.424-400 400s179.424 400 400 400 400-179.424 400-400-179.424-400-400-400z m0 768c-202.912 0-368-165.088-368-368s165.088-368 368-368 368 165.088 368 368-165.088 368-368 368zM693.024 330.976a31.968 31.968 0 0 0-45.248 0L512 466.752l-135.776-135.776a31.968 31.968 0 1 0-45.248 45.248L466.752 512l-135.776 135.776a31.968 31.968 0 1 0 45.248 45.248L512 557.248l135.776 135.776a31.968 31.968 0 1 0 45.248-45.248L557.248 512l135.776-135.776a32 32 0 0 0 0-45.248z" /></svg>