<svg class="icon" style="width: 1em; height: 1em;vertical-align: middle;fill: currentColor;overflow: hidden;" viewBox="0 0 1024 1024" version="1.1" xmlns="http://www.w3.org/2000/svg"><path d="M326.688 281.376l-43.04-20.992s-13.344-7.456-21.984 8.256c-0.32 6.304-100.096 207.776-100.096 207.776s-6.336 16.512 6.656 23.168l39.424 20.256s17.888 10.272 27.36-8.928l97.536-203.936s9.216-17.408-5.856-25.6zM861.504 474.688l-100.32-202.592s-8.032-17.984-23.84-11.2l-42.944 20.864s-14.112 5.888-7.232 22.368c4.8 4.128 101.92 207.104 101.92 207.104s8.992 15.168 22.24 9.024l40.192-18.496c-0.032 0.032 19.2-7.712 9.984-27.072zM845.888 748.384a8.064 8.064 0 0 1-11.296 0l-41.44-40.416a104.192 104.192 0 0 1-65.28 22.784c-57.248 0-103.68-45.696-103.68-102.048 0-56.352 46.432-102.048 103.68-102.048 57.28 0 103.68 45.696 103.68 102.048 0 26.368-10.24 50.304-26.912 68.416l41.184 40.16c3.2 3.072 3.2 8.032 0.064 11.104m-117.984-205.984c-48.448 0-87.744 38.656-87.744 86.336s39.296 86.336 87.744 86.336c48.48 0 87.744-38.656 87.744-86.336 0.032-47.68-39.264-86.336-87.744-86.336m0 0M550.528 536.32l47.008 34.272c3.552-7.456 7.52-14.656 12.32-21.344l-42.4-30.208c-24.896-5.984-16.928 17.28-16.928 17.28zM524.672 598.912l60.704 43.872c-0.448-4.512-1.408-8.864-1.408-13.472 0-5.536 1.024-10.784 1.664-16.16l-46.88-33.184c-23.008-1.6-14.08 18.944-14.08 18.944zM608.768 708.064c-2.208-0.448-3.68-0.992-3.68-0.992l-95.52-67.232c-23.488-3.04-15.936 16.608-15.936 16.608l64.096 48.768c-1.6 27.264-28.864 16.48-28.864 16.48l-17.056-12.608c-2.912-13.888-20.608-15.36-20.608-15.36l-19.04-13.888c0.896-13.248-11.264-24.672-11.264-24.672-9.92-11.904-30.432-6.816-30.432-6.816-1.728-4.896-10.016-8.448-10.016-8.448 1.376-17.888-10.176-27.136-10.176-27.136-12.544-14.752-33.44-9.728-33.44-9.728-0.448-2.816-6.688-7.392-6.688-7.392 4.352-21.76-5.696-33.248-5.696-33.248-10.624-18.944-40.928-12-40.928-12l-46.624-58.848-13.248 28.096 39.424 50.368-29.152 39.872c-7.264 25.952 5.376 37.632 5.376 37.632 30.144 29.152 56-1.408 56-1.408-15.168 28.896 3.84 44.416 3.84 44.416 27.904 26.08 53.216-2.688 53.216-2.688-16.384 27.808 1.28 41.12 1.28 41.12 31.904 31.84 58.784-10.528 58.784-10.528-14.016 23.36 5.888 39.872 5.888 39.872 31.488 23.424 53.632-18.208 53.632-18.208 12.288 11.904 33.408 8.576 33.408 8.576 28.96-4.768 34.72-27.84 34.72-27.84 21.568 14.688 38.464 13.376 48.736 9.984a143.552 143.552 0 0 1-20.032-22.752zM387.648 403.136c1.152 36.384-11.936 55.072-11.936 55.072-10.4 29.216 34.176 33.312 34.176 33.312 65.248-10.752 69.024-69.152 69.024-69.152 21.536-36.096 57.568-18.656 57.568-18.656l119.648 104.448a145.28 145.28 0 0 1 71.808-19.392c7.488 0 14.656 1.088 21.824 2.144l-79.648-164.992c-25.28 4.224-81.728-13.824-81.728-13.824-11.424-6.528-54.016-11.616-54.016-11.616-32.736-2.272-76.096 19.52-76.096 19.52h-105.504l-15.36 32h69.888c-18.144 32-19.648 51.136-19.648 51.136z" /></svg>