<svg class="icon" style="width: 1em; height: 1em;vertical-align: middle;fill: currentColor;overflow: hidden;" viewBox="0 0 1024 1024" version="1.1" xmlns="http://www.w3.org/2000/svg"><path d="M758.624 233.376A31.904 31.904 0 0 1 768 256v256h32V256a63.68 63.68 0 0 0-18.752-45.248A63.68 63.68 0 0 0 736 192h-64v32h64c8.192 0 16.384 3.136 22.624 9.376zM448 192h128v32h-128zM265.376 854.624A31.904 31.904 0 0 1 256 832V256a31.904 31.904 0 0 1 32-32h64V192H288a63.68 63.68 0 0 0-45.248 18.752A63.68 63.68 0 0 0 224 256v576c0 16.384 6.24 32.768 18.752 45.248 12.48 12.512 28.864 18.752 45.248 18.752h224v-32H288a31.904 31.904 0 0 1-22.624-9.376zM400 272A16 16 0 0 0 416 256V160a16 16 0 0 0-32 0v96a16 16 0 0 0 16 16zM624 272A16 16 0 0 0 640 256V160a16 16 0 0 0-32 0v96a16 16 0 0 0 16 16z"  /><path d="M720 400a16 16 0 0 0-16-16H320a16 16 0 0 0 0 32h384a16 16 0 0 0 16-16zM592 528a16 16 0 0 0-16-16h-256a16 16 0 0 0 0 32h256a16 16 0 0 0 16-16zM320 640a16 16 0 0 0 0 32h128a16 16 0 0 0 0-32h-128z"  /><path d="M561.696 891.84l32.352-112.8 148.992-147.712 13.728-13.664c10.592-10.496 28.576-10.88 38.688-0.832l43.232 42.944a25.952 25.952 0 0 1 7.616 18.464 28.608 28.608 0 0 1-8.48 20.128l-26.368 26.144-0.032-0.032-136.32 135.456-113.408 31.904m47.328-103.936l-22.784 79.52 80.128-22.528 144.352-143.488 0.032 0.032 15.168-15.072a11.584 11.584 0 0 0 3.52-8.16 8.96 8.96 0 0 0-2.624-6.496l-43.232-42.944c-3.712-3.68-10.752-3.296-14.944 0.832l-25.6 25.472-0.032-0.032-133.984 132.864"  /></svg>