<svg class="icon" style="width: 1em; height: 1em;vertical-align: middle;fill: currentColor;overflow: hidden;" viewBox="0 0 1024 1024" version="1.1" xmlns="http://www.w3.org/2000/svg"><path d="M636.224 399.136c8.064 0 16 0.576 23.904 1.472-21.504-100.096-128.48-174.432-250.624-174.432-136.544 0-248.416 93.056-248.416 211.264 0 68.224 37.216 124.224 99.424 167.68l-24.832 74.72 86.816-43.552c31.104 6.144 56 12.48 87.008 12.48 7.776 0 15.52-0.384 23.2-0.992a184.544 184.544 0 0 1-7.68-52.032c0-108.544 93.184-196.608 211.2-196.608z m-133.568-67.36c18.688 0 31.104 12.288 31.104 31.008 0 18.624-12.384 31.072-31.104 31.072-18.624 0-37.28-12.48-37.28-31.072-0.032-18.688 18.656-31.008 37.28-31.008z m-173.856 62.112c-18.624 0-37.408-12.48-37.408-31.072 0-18.688 18.784-31.008 37.408-31.008 18.624 0 31.008 12.288 31.008 31.008 0 18.592-12.384 31.072-31.008 31.072zM862.912 592.736c0-99.296-99.36-180.256-210.976-180.256-118.176 0-211.264 80.96-211.264 180.256 0 99.488 93.088 180.256 211.264 180.256 24.736 0 49.696-6.24 74.56-12.48l68.128 37.312-18.688-62.08c49.856-37.376 86.976-86.976 86.976-143.008z m-279.488-31.072c-12.384 0-24.864-12.288-24.864-24.864 0-12.384 12.48-24.832 24.864-24.832 18.784 0 31.104 12.448 31.104 24.832 0 12.544-12.32 24.864-31.104 24.864z m136.64 0c-12.288 0-24.672-12.288-24.672-24.864 0-12.384 12.384-24.832 24.672-24.832 18.624 0 31.072 12.448 31.072 24.832 0 12.544-12.448 24.864-31.072 24.864z" /></svg>