<svg class="icon" style="width: 1em; height: 1em;vertical-align: middle;fill: currentColor;overflow: hidden;" viewBox="0 0 1024 1024" version="1.1" xmlns="http://www.w3.org/2000/svg"><path d="M896 800h-315.136l-29.632-96H832c16.384 0 32.768-8.32 45.248-20.832 12.512-12.48 18.752-30.944 18.752-47.328v-384c0-16.384-6.24-30.688-18.752-43.168C864.768 196.16 848.384 192 832 192H192c-16.384 0-32.768 4.16-45.248 16.672C134.24 221.152 128 235.456 128 251.84v384c0 16.384 6.24 34.848 18.752 47.328 12.48 12.512 28.864 20.832 45.248 20.832h260.416l-29.632 96H128a16 16 0 0 0 0 32h768a16 16 0 0 0 0-32z m-32-164.16" /></svg>