<svg class="icon" style="width: 1em; height: 1em;vertical-align: middle;fill: currentColor;overflow: hidden;" viewBox="0 0 1024 1024" version="1.1" xmlns="http://www.w3.org/2000/svg"><path d="M768.672 231.712a95.136 95.136 0 0 1 95.008 86.976c4 49.728-30.528 93.184-80.256 101.408a86.816 86.816 0 0 1-33.888-0.896c-4.384-0.992-6.048 0.288-7.968 3.648-34.944 60.512-69.856 121.024-105.152 181.312-3.648 6.24 0.832 7.2 3.872 9.6 24.224 19.232 35.488 44.416 31.488 74.976-4.192 31.936-22.24 54.304-52.448 65.792a80.064 80.064 0 0 1-90.272-24.256 80.16 80.16 0 0 1-7.168-93.152c3.04-5.056 3.136-7.264-2.016-11.072a21575.136 21575.136 0 0 1-147.648-110.304c-4.128-3.104-7.168-3.744-12.032-1.408a61.184 61.184 0 0 1-35.712 5.632c-5.344-0.8-7.552 0.96-9.92 5.12-14.656 25.632-29.44 51.232-44.448 76.64-2.784 4.736-2.912 7.52 0.8 12.32 16.576 21.344 18.656 44.672 6.208 68.672a61.248 61.248 0 0 1-61.216 32.128c-26.304-3.52-44.544-17.984-52.768-43.456-14.368-44.448 24.352-88.192 70.368-79.68 5.184 0.96 7.552-0.512 9.984-4.8 13.888-24.448 27.904-48.8 42.304-72.96 3.136-5.248 3.072-7.968-1.76-12.352a69.952 69.952 0 0 1-17.248-80.352 71.36 71.36 0 0 1 70.624-42.4c28.992 1.92 54.24 22.624 62.496 51.328a67.392 67.392 0 0 1-7.04 55.008c-2.688 4.544-1.92 6.528 1.984 9.44 49.76 36.992 99.424 74.112 149.056 111.296 3.264 2.464 5.664 3.264 9.664 1.024a73.824 73.824 0 0 1 44.384-9.216c5.6 0.544 7.872-1.504 10.464-5.952 34.432-59.808 69.024-119.52 103.84-179.104 3.136-5.344 3.264-7.968-2.08-12.128a94.144 94.144 0 0 1-30.592-105.088 94.912 94.912 0 0 1 89.088-63.744z" /></svg>