<svg class="icon" style="width: 1em; height: 1em;vertical-align: middle;fill: currentColor;overflow: hidden;" viewBox="0 0 1024 1024" version="1.1" xmlns="http://www.w3.org/2000/svg"><path d="M709.376 788.224a25.44 25.44 0 1 0 50.88 0 25.44 25.44 0 0 0-50.88 0M809.856 788.224a25.44 25.44 0 1 0 50.88 0 25.44 25.44 0 0 0-50.88 0M813.12 685.792a25.44 25.44 0 1 0 50.88 0 25.44 25.44 0 0 0-50.88 0M749.152 493.312h-139.616a23.136 23.136 0 0 1-22.848-22.848c0-12.384 10.432-22.848 22.848-22.848h139.616c12.384 0 22.848 10.432 22.848 22.848a22.72 22.72 0 0 1-22.848 22.848zM703.488 591.2h-93.952c-12.384 0-22.848-10.432-22.848-22.848s10.432-22.848 22.848-22.848h93.952c12.384 0 22.848 10.432 22.848 22.848s-9.792 22.848-22.848 22.848zM649.984 812.384H235.04A75.488 75.488 0 0 1 160 737.344V270.848a75.456 75.456 0 0 1 75.04-75.04h37.184c10.432 0 20.224 7.168 22.176 17.6a34.912 34.912 0 0 0 67.84 0 22.944 22.944 0 0 1 22.176-17.6h78.304c10.432 0 20.224 7.168 22.176 17.6a34.912 34.912 0 0 0 67.84 0 22.944 22.944 0 0 1 22.176-17.6h71.776c10.432 0 20.224 7.168 22.176 17.6a34.88 34.88 0 0 0 67.84 0 22.944 22.944 0 0 1 22.176-17.6h28.064a75.456 75.456 0 0 1 75.04 75.04v322.304a23.136 23.136 0 0 1-22.848 22.848 23.136 23.136 0 0 1-22.848-22.848V270.848a29.216 29.216 0 0 0-29.376-29.344h-12.384c-13.056 26.752-40.448 45.024-71.776 45.024s-58.72-17.6-71.776-45.024h-39.808c-13.056 26.752-40.448 45.024-71.776 45.024s-58.72-17.6-71.776-45.024H401.28c-13.056 26.752-40.448 45.024-71.776 45.024s-58.72-17.6-71.776-45.024h-21.376a29.216 29.216 0 0 0-29.344 29.344v466.496c0 16.32 13.056 29.344 29.344 29.344h414.976c12.384 0 22.848 10.432 22.848 22.848-0.032 12.384-11.776 22.848-24.192 22.848zM542.848 469.184v15.008c-33.344 1.696-82.08 2.08-146.24 1.248H334.08c-10.016 12.512-19.584 24.992-28.736 37.504-10.848 14.176-22.496 29.184-35.008 44.992l-13.76-8.736c8.32-10.816 16.256-21.664 23.744-32.512 10.016-14.144 20-27.904 30.016-41.248a311.2 311.2 0 0 1-48.736-1.248v-15.008h26.24c7.488-0.8 19.168-1.248 35.008-1.248a40.96 40.96 0 0 0 3.744-4.992c4.16-4.992 9.568-12.896 16.256-23.744H282.848v-17.504h73.76c3.328-4.992 9.152-12.896 17.504-23.744l33.76-44.992 12.512 8.736a2284.16 2284.16 0 0 1-41.248 60H441.6c4.992-7.488 11.264-15.808 18.752-24.992 8.32-10.016 15.008-18.304 20-24.992l11.264 7.488c-5.856 9.184-10.848 17.088-15.008 23.744-4.192 7.488-7.936 13.76-11.264 18.752 4.992 0 13.312 0.448 24.992 1.248h28.736v16.256h-152.512c-3.328 5.856-8.736 13.76-16.256 23.744a40.96 40.96 0 0 1-3.744 4.992h50.016c15.008 0 37.92 0.448 68.736 1.248h77.536z m-178.752 91.264l11.264 11.264a964.64 964.64 0 0 1-83.744 71.264l-11.264-12.512a262.176 262.176 0 0 1 32.512-26.24c13.28-11.68 30.4-26.272 51.232-43.776z m-51.264-187.52c9.152 1.696 14.56 7.488 16.256 17.504-1.696 10.016-7.104 15.424-16.256 16.256-10.848-0.8-16.672-6.24-17.504-16.256 0.832-10.816 6.688-16.64 17.504-17.504z m77.504 255.008l2.496-15.008c21.664 2.496 40.416 5.408 56.256 8.736a885.12 885.12 0 0 1 11.264-77.504h-140v-16.256h96.256a1168.416 1168.416 0 0 1 64.992-1.248c-4.192 29.184-10.016 67.488-17.504 115.008a1934.08 1934.08 0 0 1-73.76-13.728z m164.992-77.504l-8.736 12.512c-35.008-20.8-62.944-39.168-83.744-55.008l10.016-12.512a1036.608 1036.608 0 0 1 82.464 55.008z" /></svg>