<svg class="icon" style="width: 1em; height: 1em;vertical-align: middle;fill: currentColor;overflow: hidden;" viewBox="0 0 1024 1024" version="1.1" xmlns="http://www.w3.org/2000/svg"><path d="M758.624 201.374c5.792 5.777 9.376 13.765 9.376 22.591 0 0.012 0 0.023 0 0.035v255.998h32v-256c0-0.035 0-0.077 0-0.119 0-17.635-7.168-33.595-18.75-45.127-11.536-11.586-27.497-18.754-45.131-18.754-0.042 0-0.084 0-0.125 0h-63.994v32h64c8.192 0 16.384 3.136 22.624 9.376zM448 159.998h128v32h-128zM265.376 822.622c-5.792-5.777-9.376-13.765-9.376-22.591 0-0.012 0-0.023 0-0.035v-575.998c0-0.029 0-0.062 0-0.096 0-17.62 14.284-31.904 31.904-31.904 0.034 0 0.068 0 0.101 0h63.995v-32h-64c-0.035 0-0.077 0-0.119 0-17.635 0-33.595 7.168-45.127 18.75-11.586 11.536-18.754 27.497-18.754 45.131 0 0.042 0 0.084 0 0.125v575.994c0 16.384 6.24 32.768 18.752 45.248 12.48 12.512 28.864 18.752 45.248 18.752h224v-32h-224c-0.010 0-0.021 0-0.033 0-8.826 0-16.814-3.584-22.59-9.375zM400 239.998c8.837 0 16-7.163 16-16v-96c0-8.837-7.163-16-16-16s-16 7.163-16 16v96c0 8.837 7.163 16 16 16zM624 239.998c8.837 0 16-7.163 16-16v-96c0-8.837-7.163-16-16-16s-16 7.163-16 16v96c0 8.837 7.163 16 16 16z"  /><path d="M720 367.998c0-8.837-7.163-16-16-16h-384c-8.837 0-16 7.163-16 16s7.163 16 16 16h384c8.837 0 16-7.163 16-16zM592 495.998c0-8.837-7.163-16-16-16h-256c-8.837 0-16 7.163-16 16s7.163 16 16 16h256c8.837 0 16-7.163 16-16zM320 607.998c-8.837 0-16 7.163-16 16s7.163 16 16 16h128c8.837 0 16-7.163 16-16s-7.163-16-16-16h-128z"  /><path d="M781.632 832.254l-27.808-23.072c5.76-7.2 10.432-15.232 13.952-23.904 4.736-11.744 7.136-24.192 7.136-37.024s-2.4-25.312-7.136-37.024c-7.156-17.495-18.767-31.934-33.443-42.332 1.673-0.832-14.227-10.112-32.114-14.151 6.478 0.876-5.801-1.917-18.731-1.917-12.93 0-25.208 2.793-36.264 7.808-16.278 7.355-29.979 19.364-39.421 34.329-1.435-1.129-10.205 15.306-13.738 33.606 0.62-6.45-2.002 6.201-2.002 19.465 0 0.076 0 0.152 0 0.227 0 12.82 2.4 25.3 7.136 37.012 4.576 11.36 11.168 21.536 19.52 30.304 8.384 8.768 18.176 15.68 29.056 20.512 10.504 4.791 22.782 7.584 35.712 7.584 12.93 0 25.208-2.793 36.264-7.808 8.952-3.968 17.592-9.76 25.208-16.96l28.32 23.488c1.118 0.936 2.571 1.504 4.157 1.504 0.012 0 0.025 0 0.037 0 0.010 0 0.024 0 0.038 0 2.015 0 3.816-0.917 5.007-2.357 0.93-1.144 1.488-2.604 1.488-4.194 0-2.041-0.919-3.867-2.365-5.088zM683.456 830.494c-43.168 0-78.304-36.896-78.304-82.24s35.136-82.24 78.304-82.24 78.304 36.896 78.304 82.24c0 45.344-35.136 82.24-78.304 82.24z"  /></svg>