<svg class="icon" style="width: 1em; height: 1em;vertical-align: middle;fill: currentColor;overflow: hidden;" viewBox="0 0 1024 1024" version="1.1" xmlns="http://www.w3.org/2000/svg"><path d="M594.144 621.312V598.4h-23.456v22.944h23.456m0-0.032zM629.344 621.312c5.856 0 10.656-4.8 10.656-10.656v-12.8h-22.944v23.456h12.288zM476.8 388.8v69.856h-69.344V388.8H476.8z m12.8-23.488h-94.944a10.688 10.688 0 0 0-10.656 10.656v94.944c0 5.856 4.8 10.656 10.656 10.656H489.6c5.856 0 10.656-4.8 10.656-10.656V376a10.688 10.688 0 0 0-10.656-10.688m0 0z"  /><path d="M430.4 423.456c0 3.2 1.056 5.856 3.2 8s5.344 3.2 8 3.2c3.2 0 5.856-1.056 8-3.2a11.744 11.744 0 0 0 3.2-8c0-3.2-1.056-5.856-3.2-8a11.744 11.744 0 0 0-8-3.2c-3.2 0-5.856 1.056-8 3.2-2.144 1.6-3.2 4.8-3.2 8m0 0zM616.544 388.8v69.856H547.2V388.8h69.344z m12.8-23.488H534.4a10.688 10.688 0 0 0-10.656 10.656v94.944c0 5.856 4.8 10.656 10.656 10.656h94.944a10.656 10.656 0 0 0 10.656-10.656V376a10.688 10.688 0 0 0-10.656-10.688m0 0z"  /><path d="M570.144 423.456c0 3.2 1.056 5.856 3.2 8s5.344 3.2 8 3.2c3.2 0 5.856-1.056 8-3.2a11.744 11.744 0 0 0 3.2-8c0-3.2-1.056-5.856-3.2-8a11.744 11.744 0 0 0-8-3.2c-3.2 0-5.856 1.056-8 3.2-1.6 1.6-3.2 4.8-3.2 8m0 0zM476.8 528.512V598.4h-69.344v-69.856H476.8v-0.032z m12.8-23.456h-94.944a10.688 10.688 0 0 0-10.656 10.656v94.944c0 5.856 4.8 10.656 10.656 10.656H489.6c5.856 0 10.656-4.8 10.656-10.656v-94.944a10.688 10.688 0 0 0-10.656-10.656m0 0z"  /><path d="M430.4 563.2c0 3.2 1.056 5.856 3.2 8s5.344 3.2 8 3.2c3.2 0 5.856-1.056 8-3.2a11.744 11.744 0 0 0 3.2-8c0-3.2-1.056-5.856-3.2-8a11.744 11.744 0 0 0-8-3.2c-3.2 0-5.856 1.056-8 3.2a11.648 11.648 0 0 0-3.2 8m0 0zM629.344 505.056h-12.8v46.4h-23.456v-46.4H534.4a10.688 10.688 0 0 0-10.656 10.656v94.944c0 5.856 4.8 10.656 10.656 10.656h12.8v-70.368h23.456v23.456H640v-58.656a10.688 10.688 0 0 0-10.656-10.688m0 0z"  /><path d="M694.624 201.376A31.904 31.904 0 0 0 672 192H352a31.904 31.904 0 0 0-32 32v576a31.904 31.904 0 0 0 32 32h320a31.904 31.904 0 0 0 32-32V224a31.904 31.904 0 0 0-9.376-22.624zM512 810.656a32 32 0 1 1 0-64 32 32 0 0 1 0 64zM672 736H352V256h320v480z"  /></svg>