<svg class="icon" style="width: 1em; height: 1em;vertical-align: middle;fill: currentColor;overflow: hidden;" viewBox="0 0 1024 1024" version="1.1" xmlns="http://www.w3.org/2000/svg"><path d="M515.136 569.888c-1.568-1.568-6.272-1.568-6.272 0l3.136-4.704 3.136 4.704z m95.424-114.208l-75.104 129.856c-9.376 17.216-29.728 18.784-43.808 4.704l-92.288-98.56-92.288 170.528c-6.272 12.512-21.888 21.888-37.536 21.888H206.944A46.112 46.112 0 0 1 160 637.152V246.048c0-26.592 20.352-46.944 46.944-46.944h610.144c26.56 0 46.912 20.352 46.912 46.944v391.104c0 26.592-20.352 46.944-46.944 46.944h-287.872V793.6h140.8c9.376 0 15.648 6.272 15.648 15.648s-6.272 15.648-15.648 15.648H357.12c-9.376 0-15.648-6.272-15.648-15.648s6.272-15.648 15.648-15.648h140.8v-109.504a31.36 31.36 0 0 1 31.296-31.296h289.408c9.376 0 15.648-6.272 15.648-15.648V246.048c0-7.808-7.808-15.648-15.648-15.648H208.512c-9.376 0-15.648 6.272-15.648 15.648v391.104c0 7.808 7.808 15.648 15.648 15.648h62.592c3.136 0 7.808-3.136 9.376-4.704l95.424-176.768c9.376-17.216 29.728-20.352 43.808-6.272L512 563.616l75.104-129.856a94.144 94.144 0 0 1 68.832-157.984c51.616 0 93.856 42.24 93.856 93.856s-42.24 93.856-93.856 93.856c-17.216 3.136-32.864-1.536-45.376-7.808z m43.808-20.352c34.432 0 62.592-28.16 62.592-62.592s-28.16-62.592-62.592-62.592-62.592 28.16-62.592 62.592 28.16 62.592 62.592 62.592z" /></svg>