<svg class="icon" style="width: 1em; height: 1em;vertical-align: middle;fill: currentColor;overflow: hidden;" viewBox="0 0 1024 1024" version="1.1" xmlns="http://www.w3.org/2000/svg"><path d="M704 448h96v64h-96zM704 352h96v64h-96zM800 256h-32l-64 64h96zM704 640h96v64h-96zM704 544h96v64h-96zM672 416v-56.128L618.016 416zM382.592 568.32l-26.528-67.008-39.456 85.6-45.536-3.168 57.664-104.576-51.552-114.048 45.504-2.912 30.336 85.792h6.048l33.376-92.192 48.544-3.264-60.672 120.32 31.84 64.736 178.624-185.6H576v-32h45.568L672 267.584V256h-96V224h137.952l30.784-32h-164.128c-3.2 0-4.608 9.024-4.608 10.208V126.88L160 206.656V751.04l39.456 7.584 183.136-190.304zM850.688 192h-17.12l-30.784 32H832v512h-256v-32h96v-64h-96v-32h96v-64h-96v-32h96v-64h-84.8L274.432 772.992 576 830.88v-71.552c0 1.184 1.408 8.672 4.64 8.672h270.048c13.408 0 13.312-18.208 13.312-32.16V225.696C864 211.68 864.096 192 850.688 192zM315.776 712.544l34.464-35.712 34.848-36.096 21.568-22.336 45.888-47.52 210.528-217.984 2.08-2.144L697.984 316.8l9.984-10.336 26.432-27.424 5.12-5.28 30.4-31.52 56.128-58.176a21.152 21.152 0 1 0-30.496-29.408l-59.136 61.248-35.904 37.152-37.248 38.592-14.368 14.848-21.6 22.368-236.8 245.312-30.592 31.712-20.032 20.768-15.904 16.48-14.912 15.424-20.384 21.12-34.72 35.968-56.032 58.016a21.152 21.152 0 1 0 30.496 29.408l52.992-54.944 34.368-35.584z" /></svg>