<svg class="icon" style="width: 1em; height: 1em;vertical-align: middle;fill: currentColor;overflow: hidden;" viewBox="0 0 1024 1024" version="1.1" xmlns="http://www.w3.org/2000/svg"><path d="M448 160h128v32h-128zM400 240A16 16 0 0 0 416 224V128a16 16 0 0 0-32 0v96a16 16 0 0 0 16 16zM624 240A16 16 0 0 0 640 224V128a16 16 0 0 0-32 0v96a16 16 0 0 0 16 16zM781.248 178.752A63.68 63.68 0 0 0 736 160h-64v32h64a31.904 31.904 0 0 1 32 32v576a31.904 31.904 0 0 1-32 32H288a31.904 31.904 0 0 1-32-32V224a31.904 31.904 0 0 1 32-32h64V160H288a63.68 63.68 0 0 0-45.248 18.752A63.68 63.68 0 0 0 224 224v576c0 16.384 6.24 32.768 18.752 45.248 12.48 12.512 28.864 18.752 45.248 18.752h448a63.68 63.68 0 0 0 45.248-18.752A63.68 63.68 0 0 0 800 800V224a63.68 63.68 0 0 0-18.752-45.248zM322.656 463.744c-7.488 7.488-8 19.136-1.12 26.016l108.608 108.608c6.944 6.944 16.544 11.232 27.168 11.232s20.192-4.288 27.168-11.232l217.216-217.216a19.232 19.232 0 0 0-27.168-27.168l-203.648 203.648a19.136 19.136 0 0 1-27.136 0l-95.04-95.04c-6.88-6.848-18.528-6.336-26.048 1.152z" /></svg>