<svg class="icon" style="width: 1em; height: 1em;vertical-align: middle;fill: currentColor;overflow: hidden;" viewBox="0 0 1024 1024" version="1.1" xmlns="http://www.w3.org/2000/svg"><path d="M792.992 853.888H230.176c-11.84 0-22.08-5.12-28.16-14.048-6.048-8.928-7.008-20.352-2.624-31.36l63.744-159.456c6.976-17.504 26.496-30.752 45.344-30.816l61.664-0.192c2.56-24.928 8.864-76.256 23.072-185.664a42.88 42.88 0 0 1 41.888-36.8h158.176c20.64 0 39.168 16 42.176 36.416l28.992 196.416a19.744 19.744 0 0 1-39.072 5.792l-28.992-196.416c-0.16-1.056-2.048-2.656-3.104-2.656h-158.176c-0.928 0-2.592 1.44-2.72 2.368-9.152 70.624-23.744 185.92-24.512 199.392a19.744 19.744 0 0 1-19.648 20.608l-79.584 0.224c-2.816 0-7.744 3.36-8.8 5.984l-60.256 150.72h540.48l-76.96-146.528a19.744 19.744 0 1 1 34.944-18.368l82.976 157.984c5.696 10.848 5.728 22.4 0.096 31.744-5.6 9.312-15.872 14.656-28.128 14.656zM511.968 383.52a116.928 116.928 0 0 1-116.8-116.8 116.928 116.928 0 0 1 116.8-116.8c64.416 0 116.832 52.416 116.832 116.8s-52.416 116.8-116.832 116.8z m0-197.568a80.832 80.832 0 0 0-80.736 80.736 80.832 80.832 0 0 0 80.736 80.736 80.832 80.832 0 0 0 80.736-80.736 80.832 80.832 0 0 0-80.736-80.736zM519.648 552.096v24.768h43.968a8.864 8.864 0 1 1 0 17.728h-43.968v27.808a8.896 8.896 0 0 1-17.76 0v-27.808H457.92a8.864 8.864 0 1 1 0-17.728h43.968v-24.768H457.92a8.864 8.864 0 1 1 0-17.728h40.928l-46.72-40.16a8.832 8.832 0 1 1 11.584-13.344l47.072 40.48 47.04-40.48a8.832 8.832 0 1 1 11.584 13.344l-46.72 40.16h40.928a8.864 8.864 0 1 1 0 17.728h-43.968z" /></svg>