<svg class="icon" style="width: 1em; height: 1em;vertical-align: middle;fill: currentColor;overflow: hidden;" viewBox="0 0 1024 1024" version="1.1" xmlns="http://www.w3.org/2000/svg"><path d="M610.688 525.429c0-6.4-5.187-11.588-11.587-11.588h-69.523v-46.348h69.523c6.4 0 11.587-5.187 11.587-11.588s-5.187-11.587-11.587-11.587h-54.738l64.564-91.839c1.166-1.778 1.86-3.956 1.86-6.296 0-6.4-5.187-11.588-11.587-11.588-3.754 0-7.091 1.786-9.209 4.553l-72 102.39-71.656-102.361c-2.122-2.996-5.574-4.928-9.478-4.928-6.395 0-11.58 5.184-11.58 11.58 0 2.491 0.786 4.799 2.125 6.687l64.285 91.804h-54.808c-6.4 0-11.587 5.187-11.587 11.587s5.187 11.587 11.587 11.587h69.523v46.348h-69.523c-6.4 0-11.587 5.187-11.587 11.588s5.187 11.587 11.587 11.587h69.523v92.697c0 6.4 5.187 11.588 11.587 11.588s11.588-5.187 11.588-11.588v-92.697h69.523c6.4 0 11.587-5.187 11.587-11.587z"  /><path d="M448 160h128v32h-128zM400 240A16 16 0 0 0 416 224V128a16 16 0 0 0-32 0v96a16 16 0 0 0 16 16zM624 240A16 16 0 0 0 640 224V128a16 16 0 0 0-32 0v96a16 16 0 0 0 16 16z"  /><path d="M781.248 178.752A63.68 63.68 0 0 0 736 160h-64v32h64a31.904 31.904 0 0 1 32 32v576a31.904 31.904 0 0 1-32 32H288a31.904 31.904 0 0 1-32-32V224a31.904 31.904 0 0 1 32-32h64V160H288a63.68 63.68 0 0 0-45.248 18.752A63.68 63.68 0 0 0 224 224v576c0 16.384 6.24 32.768 18.752 45.248 12.48 12.512 28.864 18.752 45.248 18.752h448a63.68 63.68 0 0 0 45.248-18.752A63.68 63.68 0 0 0 800 800V224a63.68 63.68 0 0 0-18.752-45.248z"  /></svg>