<svg class="icon" style="width: 1em; height: 1em;vertical-align: middle;fill: currentColor;overflow: hidden;" viewBox="0 0 1024 1024" version="1.1" xmlns="http://www.w3.org/2000/svg"><path d="M874.56 160H192v696.352c18.592 1.632 37.344 2.816 56.352 2.816 348.256 0 630.528-280.704 630.528-628.896 0.032-24.32-1.664-38.272-4.32-70.272z m-242.432 402.08a26.88 26.88 0 0 1-38.016 38.016L480 486.016l-114.08 114.08a26.88 26.88 0 0 1-38.016-38.016L441.984 448l-114.08-114.08a26.88 26.88 0 0 1 38.016-38.016L480 409.984l114.08-114.08a26.88 26.88 0 0 1 38.016 38.016L518.016 448l114.112 114.08z" /></svg>