<svg class="icon" style="width: 1em; height: 1em;vertical-align: middle;fill: currentColor;overflow: hidden;" viewBox="0 0 1024 1024" version="1.1" xmlns="http://www.w3.org/2000/svg"><path d="M768.928 334.016l-94.208-94.208L300.544 614.016l-4.416 98.592 98.592-4.416 374.208-374.176zM862.048 777.472H246.048a44.16 44.16 0 0 0-44 44 44.16 44.16 0 0 0 44 44h616a44.16 44.16 0 0 0 44-44c0-24.192-19.776-44-44-44zM787.712 315.2l-94.208-94.208 26.4-26.4a39.488 39.488 0 0 1 55.648 0l38.56 38.56a39.488 39.488 0 0 1 0 55.648l-26.4 26.4z" /></svg>