<svg class="icon" style="width: 1em; height: 1em;vertical-align: middle;fill: currentColor;overflow: hidden;" viewBox="0 0 1024 1024" version="1.1" xmlns="http://www.w3.org/2000/svg"><path d="M800.448 705.312H394.272a75.904 75.904 0 0 0-73.312-56.64 75.648 75.648 0 0 0-75.712 75.424 75.648 75.648 0 0 0 75.712 75.424 75.712 75.712 0 0 0 73.312-56.544h406.272a18.944 18.944 0 0 0 18.944-18.88 18.976 18.976 0 0 0-19.04-18.784zM320.96 761.856a37.76 37.76 0 0 1-37.792-37.664 37.792 37.792 0 0 1 75.616 0c0 20.736-17.024 37.664-37.824 37.664z m479.872-268.672h-58.336a75.712 75.712 0 0 0-73.312-56.544 75.712 75.712 0 0 0-73.312 56.544H266.624a18.944 18.944 0 0 0-18.944 18.88c0 10.4 8.512 18.88 18.944 18.88h329.28a75.712 75.712 0 0 0 73.312 56.544 75.712 75.712 0 0 0 73.312-56.544h58.336a18.912 18.912 0 0 0-0.032-37.76z m-131.648 56.512a37.76 37.76 0 0 1-37.824-37.664c0-20.704 17.024-37.664 37.824-37.664a37.76 37.76 0 0 1 37.824 37.664 37.76 37.76 0 0 1-37.824 37.664zM320.96 375.232a75.712 75.712 0 0 0 73.312-56.544h406.272a18.944 18.944 0 0 0 18.944-18.88 18.944 18.944 0 0 0-18.944-18.88H394.272a75.84 75.84 0 0 0-73.312-56.448 75.584 75.584 0 0 0-75.712 75.424 75.648 75.648 0 0 0 75.712 75.328z m0-113.088a37.76 37.76 0 0 1 37.824 37.664 37.792 37.792 0 0 1-75.616 0 37.728 37.728 0 0 1 37.792-37.664z" /></svg>