<svg class="icon" style="width: 1em; height: 1em;vertical-align: middle;fill: currentColor;overflow: hidden;" viewBox="0 0 1024 1024" version="1.1" xmlns="http://www.w3.org/2000/svg"><path d="M828.992 625.984a20.256 20.256 0 0 1-8.032-1.728l-108.448-48.224c-17.6 8.384-58.112 23.904-117.984 23.904-92.224 0-256.992-72.832-256.992-217.952 0-151.168 156.928-219.2 268.416-219.2 190.4 0 263.648 123.2 265.056 200.864 1.12 56.992-19.04 96.832-44.288 137.92l21.728 100.288a19.936 19.936 0 0 1-19.456 24.128z m-117.152-91.872a19.52 19.52 0 0 1 8.032 1.728l81.44 36.16-15.2-69.792a19.872 19.872 0 0 1 2.592-14.752c24.672-39.52 43.488-73.696 42.624-123.04-1.216-62.56-63.36-161.824-225.344-161.824-94.944 0-228.64 55.68-228.64 179.424 0 125.184 155.392 178.176 217.216 178.176 68.128 0 106.432-22.848 106.816-23.136a20.288 20.288 0 0 1 10.464-2.944zM201.152 860.448a19.616 19.616 0 0 1-12.16-4.192 19.744 19.744 0 0 1-7.232-20.064l24.32-108.32c-13.28-23.872-51.264-101.376-32.096-178.688 19.296-77.696 71.392-113.792 100.736-128.384a19.84 19.84 0 1 1 17.728 35.584c-23.2 11.52-64.448 40.16-79.808 102.368-18.56 74.72 30.88 154.432 31.392 155.264a20.128 20.128 0 0 1 2.56 14.976l-16.704 74.368 83.264-43.008a19.872 19.872 0 0 1 16.992-0.576c0.768 0.288 74.112 31.328 160.576 15.616 61.952-11.264 124.192-62.56 148.064-121.92a19.776 19.776 0 0 1 25.792-11.04 19.744 19.744 0 0 1 11.04 25.792c-28.992 72.384-102.112 132.512-177.824 146.24-80.928 14.72-150.112-5.952-174.368-14.72L210.272 858.24a20.16 20.16 0 0 1-9.12 2.208z" /></svg>