<svg class="icon" style="width: 1em; height: 1em;vertical-align: middle;fill: currentColor;overflow: hidden;" viewBox="0 0 1024 1024" version="1.1" xmlns="http://www.w3.org/2000/svg"><path d="M548.544 351.968V260.48a35.936 35.936 0 0 0-71.872 0v91.488a71.584 71.584 0 0 0-35.936 61.888c0 26.528 14.56 49.44 35.936 61.888v287.648a35.936 35.936 0 0 0 71.872 0v-287.648a71.584 71.584 0 0 0 35.936-61.888c0-26.528-14.56-49.44-35.936-61.888zM764.096 563.712v-231.392a35.936 35.936 0 0 0-71.872 0v231.392a71.584 71.584 0 0 0-35.936 61.888c0 26.496 14.56 49.44 35.936 61.888v75.904a35.936 35.936 0 1 0 71.872 0v-75.904A71.584 71.584 0 0 0 800 625.6c0-26.496-14.528-49.44-35.904-61.888zM333.024 491.872v-51.808a35.936 35.936 0 0 0-71.872 0v51.808a71.616 71.616 0 0 0-35.872 61.888c0 26.496 14.56 49.44 35.936 61.888v147.744a35.936 35.936 0 0 0 71.872 0v-147.744a71.584 71.584 0 0 0 35.936-61.888 71.808 71.808 0 0 0-36-61.888z" /></svg>