<svg class="icon" style="width: 1em; height: 1em;vertical-align: middle;fill: currentColor;overflow: hidden;" viewBox="0 0 1024 1024" version="1.1" xmlns="http://www.w3.org/2000/svg"><path d="M493.92 736.064a23.424 23.424 0 0 0 36.192 0l282.496-327.104c9.952-11.392 5.728-24.96-9.376-24.96h-127.136c-15.136 0-36.096-3.84-36.096-18.976V153.216c0-15.104-3.776-25.216-18.88-25.216h-218.176c-15.136 0-18.944 10.112-18.944 25.216v211.808c0 15.136-20.928 18.976-36.064 18.976H220.8c-15.104 0-19.36 13.568-9.376 24.96l282.496 327.104zM832 827.488a27.52 27.52 0 0 0-27.488-27.488H219.488a27.52 27.52 0 0 0-27.488 27.488v41.024a27.52 27.52 0 0 0 27.488 27.488h585.024a27.52 27.52 0 0 0 27.488-27.488v-41.024zM199.328 808.928z" /></svg>