<svg class="icon" style="width: 1em; height: 1em;vertical-align: middle;fill: currentColor;overflow: hidden;" viewBox="0 0 1024 1024" version="1.1" xmlns="http://www.w3.org/2000/svg"><path d="M550.624 134.272a23.424 23.424 0 0 0-36.192 0L231.936 457.12c-9.952 11.392-5.728 20.704 9.376 20.704h127.136c15.104 0 27.488 12.384 27.488 27.488v211.808c0 15.104 12.384 27.488 27.488 27.488h218.176a27.584 27.584 0 0 0 27.488-27.488v-211.808c0-15.104 12.384-27.488 27.488-27.488h127.136c15.104 0 19.36-9.312 9.376-20.704L550.624 134.272M213.824 834.72c0-15.104 12.384-27.488 27.488-27.488h582.432c15.104 0 27.488 12.384 27.488 27.488v36.064a27.584 27.584 0 0 1-27.488 27.488H241.312a27.584 27.584 0 0 1-27.488-27.488v-36.064m6.016-25.792z" /></svg>