<svg class="icon" style="width: 1em; height: 1em;vertical-align: middle;fill: currentColor;overflow: hidden;" viewBox="0 0 1024 1024" version="1.1" xmlns="http://www.w3.org/2000/svg"><path d="M487.552 846.624c16.896 0 34.528-5.824 52.416-17.056 42.624-27.232 47.52-71.872 43.264-99.872l206.528-104.096c3.168 30.72 2.56 62.592-4.16 71.616-13.184 18.016-118.656 72.8-189.44 105.728a14.72 14.72 0 0 0-7.104 19.424c3.52 7.264 12.16 10.528 19.424 6.912 29.504-13.632 178.048-84.224 200.672-114.592 19.616-26.72 9.088-99.392 6.88-113.632a14.528 14.528 0 0 0-8-10.72 14.304 14.304 0 0 0-13.088 0L560 708.704a14.56 14.56 0 0 0-7.296 17.344c0.544 2.08 14.56 51.68-28.32 79.232-18.56 11.552-35.168 15.008-50.72 10.336-31.808-9.696-52.992-51.872-60.672-69.504-35.456-81.312-113.952-313.504-134.72-374.88l291.168-68.768 110.272 292.608c2.624 7.616 11.2 11.2 18.816 8.544a14.56 14.56 0 0 0 8.256-18.72l-114.656-304.64a14.688 14.688 0 0 0-17.056-8.992L256.16 346.24a14.816 14.816 0 0 0-10.56 19.008c4.096 12 99.648 297.728 140.736 392.544 11.456 26.464 37.152 72.704 78.944 85.568 7.2 2.24 14.752 3.296 22.272 3.264z m28.288-467.808c0 11.712 9.568 20.992 21.28 20.992a21.024 21.024 0 0 0 0-42.048 21.216 21.216 0 0 0-21.28 21.056z m-161.728 69.504c1.28 0 2.912-0.256 4.192-0.608l135.808-39.168a14.464 14.464 0 0 0 9.92-17.92 14.336 14.336 0 0 0-17.92-9.92l-135.936 39.168a14.464 14.464 0 0 0 3.936 28.448z m195.84 19.232a21.184 21.184 0 0 0 42.304 0 21.184 21.184 0 0 0-21.152-21.088 21.088 21.088 0 0 0-21.152 21.088z m-161.952 69.696c1.28 0 2.752-0.096 4.096-0.608l135.936-39.136a14.496 14.496 0 0 0 9.888-18.016 14.432 14.432 0 0 0-17.92-10.016L384 508.8a14.592 14.592 0 0 0-10.016 17.984 14.912 14.912 0 0 0 14.016 10.464z m195.84 19.232c0 11.616 9.344 21.088 21.056 21.088a21.28 21.28 0 0 0 21.344-21.088 21.28 21.28 0 0 0-21.344-21.152 21.088 21.088 0 0 0-21.056 21.152z m-161.888 69.6a12.992 12.992 0 0 0 4.16-0.64l135.904-39.264a14.432 14.432 0 0 0 9.888-17.888 14.336 14.336 0 0 0-17.92-9.888l-136 39.136a14.4 14.4 0 0 0-9.888 17.984c1.792 6.4 7.68 10.56 13.856 10.56z" /></svg>