<svg class="icon" style="width: 1em; height: 1em;vertical-align: middle;fill: currentColor;overflow: hidden;" viewBox="0 0 1024 1024" version="1.1" xmlns="http://www.w3.org/2000/svg"><path d="M478.272 215.872l-0.704 0.096a30.304 30.304 0 0 0-6.784 0.288c-2.496 0.416-4.864 1.12-7.328 1.6l-2.112 0.48A346.88 346.88 0 0 0 182.08 559.296c0 166.848 118.784 310.624 282.4 341.856a29.344 29.344 0 0 0 33.856-35.712c-2.304-11.168-11.776-19.328-22.976-21.44-136.16-26.08-235.04-145.792-235.04-284.736 0-40.8 8.48-79.776 23.808-115.232 5.472-12.64 13.632-10.88 18.4-1.664 3.968 7.712 18.336 38.592 28.672 59.136 6.4 12.736 12.256 17.024 17.952 17.024 7.456 0 13.28-6.976 16.352-18.656 43.456-164.96 147.936-229.216 148.416-229.536a29.056 29.056 0 1 0-15.648-54.464zM586.784 901.632l0.704-0.096c2.208 0.128 4.48 0.096 6.752-0.288 2.496-0.416 4.864-1.12 7.328-1.6l2.112-0.448a346.88 346.88 0 0 0 279.264-340.96c0-166.848-118.784-310.624-282.4-341.856a29.344 29.344 0 0 0-33.856 35.712c2.304 11.168 11.776 19.328 22.976 21.44 136.224 26.016 235.104 145.76 235.104 284.704a289.76 289.76 0 0 1-23.808 115.232c-5.472 12.64-13.632 10.88-18.4 1.664-3.968-7.712-18.336-38.592-28.672-59.136-6.4-12.736-12.256-17.024-17.952-17.024-7.456 0-13.28 6.976-16.352 18.656-43.456 164.96-147.936 229.216-148.416 229.536a29.12 29.12 0 0 0-13.824 33.44 28.992 28.992 0 0 0 29.44 21.024z" /></svg>