<svg class="icon" style="width: 1em; height: 1em;vertical-align: middle;fill: currentColor;overflow: hidden;" viewBox="0 0 1024 1024" version="1.1" xmlns="http://www.w3.org/2000/svg"><path d="M740.832 488.832c-48.32 48.32-123.2 57.28-180.512 26.56l-253.76 251.232c-17.6 17.6-45.44 17.6-61.76 0-17.6-17.6-17.6-45.44 0-61.76l252.512-252.832c-30.72-58.88-23.36-132.16 26.56-180.832 29.44-29.44 67.52-44.16 105.6-44.16-40.96 42.56-39.68 110.08 1.6 152.64a108.672 108.672 0 0 0 152.64 1.6c-0.288 40.032-13.408 78.112-42.88 107.552z m70.432-191.072c-10.24 11.84-29.44 27.84-54.4 51.52-27.84 27.84-65.92 27.84-92.48 0-27.84-27.84-27.84-66.24 0-92.48 23.36-24.96 51.2-55.68 49.92-55.68a194.944 194.944 0 0 0-221.472 39.36c-54.4 54.4-70.4 133.76-47.04 202.912l-231.712 230.4a88.288 88.288 0 0 0 0 123.52c33.6 33.92 89.6 33.92 124.8 0l231.712-232.032c68.8 23.36 148.16 7.36 202.592-47.04 58.56-58.848 70.4-147.2 38.08-220.48z" /></svg>