<svg class="icon" style="width: 1em; height: 1em;vertical-align: middle;fill: currentColor;overflow: hidden;" viewBox="0 0 1024 1024" version="1.1" xmlns="http://www.w3.org/2000/svg"><path d="M261.248 627.936l314.208-333.408 141.056 132.832-314.304 333.504-140.96-132.928z m255.84-205.088c-2.912 2.048-7.136 4.096-10.144 7.296-41.888 44.192-83.616 88.512-125.376 132.832-15.04 15.968-30.112 31.936-45.12 47.936-4.16 4.416-9.824 9.76-5.696 15.616 4.512 6.336 11.136 11.904 18.048 15.424 2.688 1.376 9.76-2.72 12.992-6.112 32.032-33.504 63.712-67.36 95.488-101.12l75.04-79.648c4.256-4.512 8.704-9.376 5.344-15.904a30.432 30.432 0 0 0-20.576-16.32z m63.52-65.44c-4.128 2.016-7.296 2.784-9.312 4.736-5.888 5.696-11.36 11.84-16.864 17.952a8.48 8.48 0 0 0-2.08 4.384c-1.6 11.712 8.416 14.816 15.296 20.096 5.44 4.192 10.368 1.952 14.592-2.368a358.4 358.4 0 0 0 13.44-14.432c5.6-6.496 5.472-12.672-0.864-18.848-4.416-4.256-9.536-7.744-14.208-11.52zM697.568 502.688l-50.624 53.6c-9.216 9.792-18.208 19.808-27.712 29.312-5.152 5.152-3.776 9.024 0.864 13.024 7.392 6.368 16.032 5.44 24.064-2.752 12.096-12.352 24.064-24.832 35.936-37.376 2.048-2.176 3.456-4.96 5.312-7.68l13.024 12.704-39.456 41.024c-10.528 10.944-11.904 20.512-4.032 27.808 7.616 7.04 16.128 4.896 27.104-5.472 13.728-13.024 28-25.472 42.048-38.176l-1.76-2.976 11.648 11.072-33.92 35.232c-2.848 2.976-5.792 5.856-8.576 8.864-8.032 8.768-8.704 18.112-1.856 24.8 6.848 6.688 16.544 5.856 24.736-2.464 10.976-11.168 21.728-22.496 32.544-33.824 3.2-3.36 6.272-6.848 10.24-11.2l11.712 12.384-38.4 40.256c-2.08 2.176-4.288 4.256-6.208 6.592-5.664 6.944-5.6 15.872 0.032 21.728 5.888 6.112 15.2 6.496 22.304 0.416 4.352-3.712 7.968-8.32 12.192-12.224 11.52-10.56 23.2-20.96 35.104-31.68 9.056 7.04 9.568 22.976-1.632 34.784-20.576 21.728-41.408 43.2-62.144 64.768-10.848 11.264-21.632 22.624-32.608 33.76-13.568 13.76-27.968 14.144-41.824 0.864-37.44-35.872-74.72-71.936-112.096-107.904l-7.808-7.392-28.768 30.304c8.704 8.992 16.8 17.856 25.376 26.176 42.208 40.832 84.544 81.568 126.88 122.304 13.248 12.736 23.936 12.576 36.864-0.8a110558.08 110558.08 0 0 0 158.912-164.736c10.944-11.36 11.168-23.488 0.256-34.048-51.296-49.6-102.752-99.04-154.144-148.544-0.832-0.704-1.824-1.248-3.584-2.528zM453.184 325.728l-60.768 62.816c-4.576 4.736-9.248 9.376-13.6 14.304-8.256 9.312-4.352 24.288 7.488 27.04 3.616 0.832 9.408-0.192 11.776-2.688 34.912-36.448 69.44-73.312 104.032-110.08 0.512-0.544 0.704-1.44 1.28-2.592l-63.84-61.696-74.08-71.456c-12.64-12.192-24.256-12.096-36.416 0.544l-158.24 164.192c-12.64 13.12-12.48 23.968 0.832 36.832 45.76 44.256 91.552 88.448 137.376 132.672 0.96 0.928 2.08 1.632 3.52 2.752l26.304-27.84c-14.496-16.032-27.968-32-42.592-46.848-20.416-20.704-41.76-40.48-62.528-60.832-12.256-12.032-12.48-26.944-0.544-39.36a21393.152 21393.152 0 0 1 95.456-98.944c10.912-11.232 25.792-13.024 36.96-2.688 29.312 27.232 57.856 55.328 87.584 83.872zM639.36 226.112c18.912-19.456 36.448-39.168 55.808-56.864 15.104-13.76 37.696-11.424 53.984 3.648 26.4 24.416 52.512 49.088 78.496 73.952 15.616 14.976 19.328 38.048 6.592 53.76-16.512 20.352-35.136 38.976-53.312 58.848L639.36 226.112z m80.16-28.864l-25.92 27.488 85.376 80.544 26.048-27.456-85.504-80.576zM384.064 779.456c-2.56 1.12-3.744 1.728-4.992 2.208a432059.072 432059.072 0 0 1-159.04 60.736c-8.768 3.328-17.312 3.68-24.608-3.232-6.912-6.592-7.712-14.752-4.928-23.552 0.48-1.568 0.768-3.2 1.28-4.768l45.28-143.52 6.528-20.416 140.48 132.544z m-128.48-86.272l-9.984 31.392c-3.168 9.92-6.208 19.872-9.536 29.728-1.504 4.448-0.672 7.488 2.976 10.752 9.792 8.768 19.072 18.08 28.736 26.944 1.568 1.44 4.64 2.976 6.272 2.368 20.736-7.584 41.312-15.552 63.392-24l-81.856-77.184zM730.784 412.064l36.384-38.592-140.96-132.864-36.32 38.56 140.896 132.896zM332.448 390.368c-30.144-0.48-54.144-24.704-53.568-54.048 0.576-29.472 25.152-53.728 53.888-53.152 30.08 0.608 54.08 24.992 53.44 54.304-0.672 29.92-24.48 53.376-53.76 52.896z m-21.376-53.024a21.28 21.28 0 0 0 21.728 21.088 21.504 21.504 0 0 0 21.408-21.568 21.568 21.568 0 0 0-43.136 0.48z" /></svg>