<svg class="icon" style="width: 1em; height: 1em;vertical-align: middle;fill: currentColor;overflow: hidden;" viewBox="0 0 1024 1024" version="1.1" xmlns="http://www.w3.org/2000/svg"><path d="M249.472 628.48l314.208-333.408 141.056 132.832-314.304 333.504-140.96-132.928z m255.872-205.088c-2.912 2.048-7.136 4.096-10.144 7.296-41.888 44.192-83.616 88.512-125.376 132.832-15.04 15.968-30.112 31.936-45.12 47.936-4.16 4.416-9.824 9.76-5.696 15.616 4.512 6.336 11.136 11.904 18.048 15.424 2.688 1.376 9.76-2.72 12.992-6.112 32.032-33.504 63.712-67.36 95.488-101.12l75.04-79.648c4.256-4.512 8.704-9.376 5.344-15.904a30.528 30.528 0 0 0-20.576-16.32z m63.488-65.44c-4.128 2.016-7.296 2.784-9.312 4.736-5.888 5.696-11.36 11.84-16.864 17.952a8.48 8.48 0 0 0-2.08 4.384c-1.6 11.712 8.416 14.816 15.296 20.096 5.44 4.192 10.368 1.952 14.592-2.368a358.4 358.4 0 0 0 13.44-14.432c5.6-6.496 5.472-12.672-0.864-18.848-4.416-4.256-9.504-7.744-14.208-11.52zM441.44 326.272l-60.768 62.816c-4.576 4.736-9.248 9.376-13.6 14.304-8.256 9.312-4.352 24.288 7.488 27.04 3.616 0.832 9.408-0.192 11.776-2.688 34.912-36.448 69.44-73.312 104.032-110.08 0.512-0.544 0.704-1.44 1.28-2.592l-63.84-61.696-74.08-71.456c-12.64-12.192-24.256-12.096-36.416 0.544l-158.24 164.192c-12.64 13.12-12.48 23.968 0.832 36.832 45.76 44.256 91.552 88.448 137.376 132.672 0.96 0.928 2.08 1.632 3.52 2.752l26.304-27.84c-14.496-16.032-27.968-32-42.592-46.848-20.416-20.704-41.76-40.48-62.528-60.832-12.256-12.032-12.48-26.944-0.544-39.36 31.68-33.056 63.52-66.048 95.424-98.912 10.912-11.232 25.792-13.024 36.96-2.688 29.344 27.2 57.856 55.264 87.616 83.84zM627.584 226.656c18.912-19.456 36.448-39.168 55.808-56.864 15.104-13.76 37.696-11.424 53.984 3.648 26.4 24.416 52.512 49.088 78.496 73.952 15.616 14.976 19.328 38.048 6.592 53.76-16.512 20.352-35.136 38.976-53.312 58.848l-141.568-133.344z m80.16-28.864l-25.92 27.488 85.376 80.544 26.048-27.456-85.504-80.576zM372.288 780c-2.56 1.12-3.744 1.728-4.992 2.208a432059.072 432059.072 0 0 1-159.04 60.736c-8.768 3.328-17.312 3.68-24.608-3.232-6.912-6.592-7.712-14.752-4.928-23.552 0.48-1.568 0.768-3.2 1.28-4.768l45.28-143.52 6.528-20.416 140.48 132.544z m-128.48-86.272l-9.984 31.392c-3.168 9.92-6.208 19.872-9.536 29.728-1.504 4.448-0.672 7.488 2.976 10.752 9.792 8.768 19.072 18.08 28.736 26.944 1.568 1.44 4.64 2.976 6.272 2.368 20.736-7.584 41.312-15.552 63.392-24l-81.856-77.184zM719.04 412.608l36.384-38.592-140.96-132.864-36.32 38.56 140.896 132.896zM320.672 390.912c-30.144-0.48-54.144-24.704-53.568-54.048 0.576-29.472 25.152-53.728 53.888-53.152 30.08 0.608 54.08 24.992 53.44 54.304-0.64 29.92-24.448 53.344-53.76 52.896z m-21.376-53.024a21.28 21.28 0 0 0 21.728 21.088 21.504 21.504 0 0 0 21.408-21.568 21.6 21.6 0 0 0-43.136 0.48zM814.4 696.32h-96.672v-96.672a19.008 19.008 0 0 0-37.952 0v96.672h-96.672a19.008 19.008 0 0 0 0 37.952h96.672v96.672a19.008 19.008 0 0 0 37.952 0v-96.672h96.672a19.008 19.008 0 0 0 0-37.952" /></svg>