<svg class="icon" style="width: 1em; height: 1em;vertical-align: middle;fill: currentColor;overflow: hidden;" viewBox="0 0 1024 1024" version="1.1" xmlns="http://www.w3.org/2000/svg"><path d="M512 160C317.408 160 160 318.4 160 512c0 194.592 157.408 352 352 352s352-157.408 352-352c0-193.6-157.408-352-352-352z m95.808 152.544s31.296 12.704 62.592 44 44 62.592 44 62.592l-106.592 105.6V312.544z m-98.752-23.488c44 0 75.296 12.704 75.296 12.704v147.648l2.944 2.944h-2.944v-2.944l-149.6-146.656s30.304-13.696 74.304-13.696z m-152.512 65.536c31.296-31.296 62.592-44 62.592-44l106.56 106.56H312.544c0-0.96 12.704-32.256 44-62.56z m-64.544 160.352c0-46.944 12.704-75.296 12.704-75.296h147.648l2.944-2.944v2.944h-2.944l-147.648 149.6s-12.704-30.304-12.704-74.304z m127.104 196.512s-31.296-12.704-62.592-44-44-62.592-44-62.592l106.592-106.56v213.152z m95.84 20.544c-44 0-75.296-12.704-75.296-12.704v-147.648l-2.944-2.944h2.944v2.944l150.56 147.648c-0.96 0-31.264 12.704-75.264 12.704z m152.512-64.544c-31.296 33.248-59.648 46.944-59.648 46.944l-108.544-109.504h212.192s-12.704 31.296-44 62.56z m53.792-83.104h-147.648l-2.944 2.944v-2.944h2.944l147.648-150.592s12.704 31.296 12.704 75.296c0.992 46.944-12.704 75.296-12.704 75.296z m0 0" /></svg>