<svg class="icon" style="width: 1em; height: 1em;vertical-align: middle;fill: currentColor;overflow: hidden;" viewBox="0 0 1024 1024" version="1.1" xmlns="http://www.w3.org/2000/svg"><path d="M254.944 254.784C209.248 254.784 208 297.44 208 297.44V476.8c0 37.6 42.016 47.008 42.016 47.008h25.312c29.952 0 26.88 34.528 26.88 34.528l-39.456 179.68c-8.896 32.32 11.104 31.2 11.104 31.2h158.112c16.704 0 18.912-31.2 1.12-47.872-17.824-16.672-18.272-35.36-18.272-35.36l14.88-53.696h30.592c11.68 0 16.8-14.496 16.8-14.496v-47.84c0-14.496-16.8-16.704-16.8-16.704 0.544-14.496 32.864-30.048 32.864-30.048h65.824c33.568 0 106.72-47.84 106.72-47.84V304.896c-33.312-31.136-111.264-50.112-111.264-50.112H254.944z m637.792 108.544h-61.536c-11.936-38.56-52.352-54.208-52.352-54.208h-66.112c-21.12 0-18.368 20.192-18.368 20.192v121.216c0 18.368 18.368 17.472 18.368 17.472h71.616c33.056-14.688 46.848-53.248 46.848-53.248h61.184c11.008 0 19.616-11.008 19.616-28.48s-19.264-22.944-19.264-22.944z m0 0" /></svg>