<svg class="icon" style="width: 1em; height: 1em;vertical-align: middle;fill: currentColor;overflow: hidden;" viewBox="0 0 1024 1024" version="1.1" xmlns="http://www.w3.org/2000/svg"><path d="M704 654.976h-23.84v47.68c0 2.368 2.976 9.536 11.936 9.536 7.744 0 11.328-7.168 11.328-9.536v-20.864c71.52 0 92.384 44.704 92.384 92.384s-33.984 92.384-94.176 92.384c-47.68 0-91.2-44.704-91.2-92.384 0-23.84 5.952-45.888 27.424-66.144 1.792-1.792 7.136-13.696 1.184-18.464-5.376-5.952-15.488-1.792-17.28 0-12.512 8.928-36.352 37.536-36.352 84.64 0 65.568 47.68 118.592 118.592 118.592 71.52 0 119.2-47.68 118.592-118.592 0-72.16-53.024-119.232-118.592-119.232z"  /><path d="M723.648 799.2c12.512-9.536 12.512-26.816 4.16-36.96-7.744-10.144-78.08-57.824-78.08-57.824s27.424 79.264 36.352 90.592c10.176 11.328 25.664 14.336 37.568 4.192z"  /><path d="M758.624 233.376A31.904 31.904 0 0 1 768 256v256h32V256a63.68 63.68 0 0 0-18.752-45.248A63.68 63.68 0 0 0 736 192h-64v32h64c8.192 0 16.384 3.136 22.624 9.376zM448 192h128v32h-128zM265.376 854.624A31.904 31.904 0 0 1 256 832V256a31.904 31.904 0 0 1 32-32h64V192H288a63.68 63.68 0 0 0-45.248 18.752A63.68 63.68 0 0 0 224 256v576c0 16.384 6.24 32.768 18.752 45.248 12.48 12.512 28.864 18.752 45.248 18.752h224v-32H288a31.904 31.904 0 0 1-22.624-9.376zM400 272A16 16 0 0 0 416 256V160a16 16 0 0 0-32 0v96a16 16 0 0 0 16 16zM624 272A16 16 0 0 0 640 256V160a16 16 0 0 0-32 0v96a16 16 0 0 0 16 16z"  /><path d="M411.9875 377.40833333l66.76875 68.090625h-56.30625a14.821875 14.821875 0 0 0-15.075 15.046875c0 8.521875 6.553125 15.075 15.075 15.075h74.64375v45.16875h-74.64375a14.821875 14.821875 0 0 0-15.075 15.046875c0 8.521875 6.553125 15.046875 15.075 15.046875h74.64375v44.521875c0 8.521875 6.553125 15.046875 15.046875 15.046875a14.821875 14.821875 0 0 0 15.075-15.046875v-45.16875h74.64375a14.79375 14.79375 0 0 0 15.046875-15.075 14.79375 14.79375 0 0 0-15.046875-15.046875h-75.290625v-44.521875h74.64375a14.79375 14.79375 0 0 0 15.046875-15.075 14.79375 14.79375 0 0 0-15.046875-15.046875h-55.659375l66.796875-68.090625c5.90625-7.2 5.90625-15.075 0-21.6-6.553125-6.553125-15.046875-6.553125-20.953125 0l-79.228125 81.84375-79.228125-81.196875c-6.553125-6.553125-15.046875-6.553125-20.953125 0-6.553125 6.58125-6.553125 14.45625 0 20.98125zM550.278125 747.16770833c0-7.846875-3.9375-15.046875-12.43125-15.046875h-163.040625l25.5375-25.5375c5.23125-5.23125 5.23125-15.721875 0-21.6-5.23125-5.23125-15.721875-5.23125-21.6 0l-48.459375 48.459375c-4.584375 3.2625-7.2 7.2-7.2 13.10625 0 5.23125 3.2625 9.815625 7.2 13.10625l48.459375 48.459375a14.85 14.85 0 0 0 9.815625 4.584375 13.55625 13.55625 0 0 0 9.815625-4.584375c5.23125-5.23125 5.23125-15.721875 0-21.6l-25.5375-25.5375h163.040625a14.540625 14.540625 0 0 0 14.4-13.809375z"  /></svg>