<svg class="icon" style="width: 1em; height: 1em;vertical-align: middle;fill: currentColor;overflow: hidden;" viewBox="0 0 1024 1024" version="1.1" xmlns="http://www.w3.org/2000/svg"><path d="M862.656 784.704c-15.04 54.176-113.6 98.048-221.088 71.2-108-26.912-216.192-83.904-303.232-170.336-86.304-86.88-143.36-195.04-170.272-303.136-26.816-107.52 17.024-205.952 71.168-221.088 13.856-3.84 69.824-9.984 154.208 140.416 24.064 43.328 5.568 41.248-48.352 129.12-25.216 41.056 16.096 96.832 16.096 96.832s28.064 44.16 59.52 75.68c31.424 31.552 75.648 59.456 75.648 59.456s55.776 41.184 96.832 16.192c87.936-53.856 85.824-72.544 128.928-48.288 150.528 84.32 144.288 140.224 140.544 153.952z m0 0" /></svg>