<svg class="icon" style="width: 1em; height: 1em;vertical-align: middle;fill: currentColor;overflow: hidden;" viewBox="0 0 1024 1024" version="1.1" xmlns="http://www.w3.org/2000/svg"><path d="M774.752 410.848c6.432 1.76 11.104 7.104 11.104 13.12v394.336c0 7.456-7.2 13.728-15.712 13.728H253.856c-8.512 0-15.712-6.304-15.712-13.728V423.968c0-6.016 4.672-11.36 11.104-13.12l226.4 90.624a97.568 97.568 0 0 0 72.704 0l226.4-90.624m-1.568-32.448a17.664 17.664 0 0 0-6.688 1.312l-230.016 92.064a65.728 65.728 0 0 1-48.96 0l-230.016-92.064a17.92 17.92 0 0 0-6.688-1.312l-1.536 0.064c-24.096 2.24-43.104 21.856-43.104 45.504v394.336c0 25.12 21.44 45.696 47.68 45.696h516.256c26.208 0 47.68-20.576 47.68-45.696V423.968c0-23.648-19.008-43.264-43.104-45.504a22.656 22.656 0 0 0-1.504-0.064z m-198.976 312.992a15.424 15.424 0 0 1 0 30.848h-46.272v32.384c0 7.648-6.912 13.856-15.424 13.856s-15.424-6.208-15.424-13.856V722.24h-46.272a15.424 15.424 0 0 1 0-30.848h46.272v-30.816h-46.272a15.424 15.424 0 0 1 0-30.848h31.648l-29.568-55.232a15.232 15.232 0 0 1 4.96-20 13.12 13.12 0 0 1 18.56 5.344l33.984 63.456a15.392 15.392 0 0 1 1.792 6.432h0.16a15.2 15.2 0 0 1 1.824-6.432l34.528-63.456a13.344 13.344 0 0 1 18.848-5.344 15.168 15.168 0 0 1 5.056 20l-30.048 55.232h31.648a15.424 15.424 0 1 1 0 30.848h-46.272v30.816h46.272z m112.768-386.464h-33.568l-84.48-137.312a16 16 0 0 0-21.952-5.248l-282.912 174.08a16 16 0 0 0-5.248 21.984l45.888 74.592 27.232-16.736-37.504-60.992 44.416-27.328v105.312h31.968v-96.384h300.224v96.384h31.968v-112.352a16.096 16.096 0 0 0-16.032-16z m-310.752 0l173.856-106.976 65.824 106.976h-239.68z m236.672 81.824h-184.032a16 16 0 0 0 0 31.936h184.032a16 16 0 0 0 0-31.936z m0 0" /></svg>