<svg class="icon" style="width: 1em; height: 1em;vertical-align: middle;fill: currentColor;overflow: hidden;" viewBox="0 0 1024 1024" version="1.1" xmlns="http://www.w3.org/2000/svg"><path d="M241.632 594.752c0 20.48 14.624 38.048 35.136 40.992h17.568c14.624 38.08 55.616 84.896 58.56 87.84l2.944 2.944c20.512 17.568 23.424 40.992 23.424 46.848v20.48a26.24 26.24 0 0 0 26.336 26.336h81.984a26.24 26.24 0 0 0 26.336-26.336v-5.856h40.992v5.856a26.24 26.24 0 0 0 26.336 26.336h81.984c11.712 0 23.424-11.712 26.336-20.48v-8.8c0-14.624 2.944-43.904 26.336-67.328a208.32 208.32 0 0 0 43.904-64.416c8.8-14.624 14.656-29.28 17.568-43.904 5.856-20.48 5.856-43.904 5.856-46.848 0-11.712 0-20.48-2.944-32.192 0-8.768-8.768-11.712-14.624-11.712-8.768 0-11.712 8.768-11.712 14.624 2.944 8.8 2.944 20.48 2.944 29.28 0 2.944 0 23.424-5.856 40.992a204.192 204.192 0 0 1-14.624 38.048c-11.712 23.424-23.424 43.904-38.08 58.56-29.28 29.28-35.136 67.328-35.136 81.984v5.856h-84.896v-20.48c0-2.944-2.944-5.856-5.856-8.768-2.912-2.944-8.768-2.944-11.712-2.944a215.04 215.04 0 0 1-61.472 0c-2.944 0-5.856 0-11.712-2.944 0 2.944-2.944 5.856-2.944 8.8v20.48h-81.984v-20.48c0-8.8-2.944-40.992-32.192-67.328l-2.912-2.944c-14.656-17.568-49.76-61.472-58.56-87.84 0-5.856-5.856-8.8-11.712-8.8h-17.536a12.608 12.608 0 0 1-11.712-11.712v-61.472c0-5.856 5.856-11.712 11.712-11.712h17.568c5.856 0 8.768-2.944 11.712-8.8 11.712-35.136 35.136-67.328 64.416-90.752 2.944 0 5.856-5.856 5.856-8.768 8.768-23.424 2.944-46.848-11.712-70.272v-2.944h2.912c38.08 5.856 58.56 23.424 67.328 38.08 2.944 5.856 8.768 8.768 14.624 5.856 14.624-2.912 32.192-5.856 46.848-8.768 8.8 0 11.712-8.768 11.712-14.624 0-8.8-8.768-11.712-14.624-11.712l-43.904 8.768c-14.624-17.568-40.992-35.136-81.984-38.08-8.768-2.912-20.48 2.944-26.336 11.712a26.592 26.592 0 0 0 0 29.28c8.768 17.568 14.624 35.136 8.768 49.76-29.28 26.336-52.704 55.616-64.416 90.752h-8.768c-20.48 0-38.048 17.568-38.048 38.048v61.504h-0.032z m0 0M663.264 275.616a117.44 117.44 0 0 0-117.12 117.12c0 64.416 52.704 117.12 117.12 117.12s117.12-52.704 117.12-117.12a117.44 117.44 0 0 0-117.12-117.12z m2.912 207.872a91.2 91.2 0 0 1-90.752-90.752c0-49.76 38.08-90.752 87.84-90.752 49.76 0 90.752 43.904 90.752 90.752s-38.048 90.752-87.84 90.752zM531.488 117.504c-43.904 0-84.928 35.136-84.928 81.984 0 46.848 35.136 81.984 81.984 81.984a81.856 81.856 0 0 0 81.984-81.984c0.032-46.848-35.104-81.984-79.04-81.984z m0 137.6a55.584 55.584 0 0 1-55.616-55.616c0-32.224 20.48-55.648 52.704-55.648s55.648 26.368 55.648 55.648c-0.032 29.28-20.512 55.616-52.736 55.616zM576.064 607.52a11.84 11.84 0 1 1 0 23.744h-35.616v24.928c0 5.888-5.312 10.688-11.872 10.688s-11.872-4.8-11.872-10.688v-24.928h-35.648a11.84 11.84 0 1 1 0-23.744h35.616v-23.744h-35.616a11.84 11.84 0 1 1 0-23.744h24.384l-22.784-42.528a11.744 11.744 0 0 1 3.84-15.424 10.08 10.08 0 0 1 14.304 4.128l26.176 48.864c0.832 1.568 1.28 3.264 1.376 4.96h0.128a11.808 11.808 0 0 1 1.408-4.96l26.592-48.864a10.304 10.304 0 0 1 14.528-4.128 11.648 11.648 0 0 1 3.872 15.424l-23.136 42.528h24.384a11.84 11.84 0 1 1 0 23.744h-35.616v23.744h35.552zM687.008 404.64a5.952 5.952 0 1 1 0 11.872h-17.824v12.48c0 2.944-2.656 5.344-5.952 5.344s-5.952-2.4-5.952-5.344v-12.48h-17.824a5.92 5.92 0 1 1 0-11.872h17.824v-11.872h-17.824a5.952 5.952 0 1 1 0-11.872h12.192l-11.392-21.248a5.92 5.92 0 0 1 1.92-7.712 5.024 5.024 0 0 1 7.136 2.048l13.088 24.416c0.416 0.768 0.64 1.632 0.672 2.464h0.064a5.6 5.6 0 0 1 0.704-2.464l13.28-24.416a5.12 5.12 0 0 1 7.264-2.048 5.856 5.856 0 0 1 1.952 7.712l-11.552 21.248h12.192a5.92 5.92 0 1 1 0 11.872h-17.824v11.872h17.856zM544.992 206.624a3.52 3.52 0 1 1 0 7.104h-10.688v7.488c0 1.76-1.6 3.2-3.552 3.2-1.984 0-3.552-1.44-3.552-3.2V213.76h-10.72a3.52 3.52 0 1 1 0-7.104h10.688v-7.136h-10.688a3.52 3.52 0 1 1 0-7.104h7.328l-6.848-12.768a3.552 3.552 0 0 1 1.152-4.64 3.008 3.008 0 0 1 4.288 1.248l7.84 14.656a3.648 3.648 0 0 1 0.416 1.472h0.032a3.392 3.392 0 0 1 0.416-1.472l7.968-14.656a3.072 3.072 0 0 1 4.352-1.248 3.488 3.488 0 0 1 1.152 4.64l-6.944 12.768h7.328a3.52 3.52 0 1 1 0 7.104h-10.688v7.136h10.72z" /></svg>