<svg class="icon" style="width: 1em; height: 1em;vertical-align: middle;fill: currentColor;overflow: hidden;" viewBox="0 0 1024 1024" version="1.1" xmlns="http://www.w3.org/2000/svg"><path d="M833.152 194.848l-21.856-6.912a13.92 13.92 0 0 1-8.064-8.064l-6.912-21.856a12 12 0 0 0-23.008 0l-6.912 21.888a13.92 13.92 0 0 1-8.064 8.064l-21.856 6.912a12 12 0 0 0 0 23.008l21.856 6.912a13.92 13.92 0 0 1 8.064 8.064l6.912 21.856c3.456 11.52 19.552 11.52 23.008 0l6.912-21.856a13.92 13.92 0 0 1 8.064-8.064l21.856-6.912a12 12 0 0 0 0-23.04zM237.6 245.856l21.6 7.648c3.424 1.28 6.752 4.832 7.776 8.32l6.144 22.08c3.04 11.616 19.136 12.16 23.008 0.8l7.68-21.6a13.952 13.952 0 0 1 8.32-7.776l22.08-6.144a12 12 0 0 0 0.8-23.008l-21.6-7.616a13.856 13.856 0 0 1-7.776-8.32l-6.144-22.08a11.968 11.968 0 0 0-22.976-0.832l-7.68 21.6a13.952 13.952 0 0 1-8.32 7.776l-22.08 6.144a12 12 0 0 0-0.832 23.008z m98.816 39.136c-3.68 6.784-0.544 16.096 6.208 19.808 1.152 0.032 74.624 42.784 101.216 105.888a14.944 14.944 0 0 0 13.472 9.664c2.304 0.096 4.608 0.16 5.792-0.96 8.192-3.168 10.784-12.288 8.736-19.264-29.664-73.568-111.072-120.032-114.496-121.312a16.16 16.16 0 0 0-20.928 6.176z m13.824 127.36c-6.912-4.608-16.096-1.152-20.704 5.76-4.608 6.912-1.152 16.096 5.76 20.704l59.616 34.592c2.304 1.152 4.608 2.304 6.912 2.304 5.76 0 10.336-2.304 12.64-8.064 4.608-6.912 1.152-16.096-5.76-20.704l-58.464-34.592z m-51.776-25.312a14.496 14.496 0 0 0-19.552 9.216 15.84 15.84 0 0 0 9.216 19.552h1.152c1.152 1.152 3.456 1.152 4.608 1.152 5.76 0 11.52-3.456 13.824-10.368 2.272-8.064-2.336-17.248-9.248-19.552z m-62.144 10.336h1.152c8.064 0 14.976-5.76 14.976-13.792a16.128 16.128 0 0 0-13.824-16.096h-1.12a16.128 16.128 0 0 0-16.096 13.792c-0.032 8.064 6.88 14.944 14.912 16.096z m281.152-21.856h3.456c6.912 0 12.64-4.608 14.976-11.52l13.792-63.296c1.152-8.064-3.456-16.096-11.52-17.248-8.064-1.152-16.128 3.456-17.248 11.52l-13.792 63.296c-3.456 8.032 2.304 16.096 10.336 17.248z m25.312-119.68h3.456c6.912 0 12.64-4.608 14.944-11.52V243.2c1.152-8.064-3.456-16.096-11.488-17.248-8.064-1.152-16.096 3.456-17.248 11.52v1.152c-2.304 6.88 2.304 14.912 10.336 17.216z m16.128-75.936h3.456a15.904 15.904 0 0 0 14.976-11.52v-1.12c1.152-8.064-3.456-16.128-11.52-17.248-8.064-1.152-16.096 3.456-17.248 11.52v1.152c-3.488 8 2.272 16.064 10.336 17.216z m127.232 311.84c2.304 0 5.76-1.152 8.064-2.304l76.512-45.824a16.512 16.512 0 0 0 5.76-20.704 16.544 16.544 0 0 0-20.704-5.76l-76.512 45.824a16.512 16.512 0 0 0-5.76 20.704c3.456 5.76 8.032 8.064 12.64 8.064z m119.104-103.36c-8.064 4.608-10.336 13.792-5.76 20.704 2.304 4.608 8.064 6.912 12.672 6.912 2.304 0 5.76-1.152 8.064-2.304h1.152a16.512 16.512 0 0 0 5.76-20.704 19.36 19.36 0 0 0-21.888-4.608z m87.456-33.376a16.512 16.512 0 0 0-20.704-5.76h-1.152a16.512 16.512 0 0 0-5.76 20.704c2.304 4.608 8.064 6.912 12.672 6.912 2.304 0 5.76-1.152 8.064-2.304h1.152a13.024 13.024 0 0 0 5.728-19.552z m0 0M863.04 508.416h-319.264l134.464-130.656 48.32-48.32a20.128 20.128 0 0 0 0-28.768l-20.704-20.704a19.04 19.04 0 0 0-14.944-5.76c-5.76 0-10.368 2.304-14.976 5.76l-48.32 48.32-194.496 180.128H237.12c-11.52 0-21.856 6.336-21.856 18.976 0 11.52 9.216 18.976 21.856 18.976h52.928v233.6c0 40.992 41.76 71.392 82.72 71.392l354.208 0.288c40.896 0 83.104-30.72 83.104-71.584v-233.696h52.928c11.52 0 21.856-6.336 21.856-18.976 0.032-11.488-9.184-18.976-21.824-18.976z m-171.008-201.984l8.064 8.064-42.592 42.592-8.064-8.064 42.592-42.592z m34.848 507.744l-354.112-0.096c-16.224 0-45.28-17.824-45.28-34.048v-233.6h445.088l0.16 233.6c0.032 16.224-29.632 34.144-45.856 34.144z m0 0" /></svg>