<svg class="icon" style="width: 1em; height: 1em;vertical-align: middle;fill: currentColor;overflow: hidden;" viewBox="0 0 1024 1024" version="1.1" xmlns="http://www.w3.org/2000/svg"><path d="M205.568 269.152c-45.696 0-46.944 42.688-46.944 42.688v179.36c0 37.6 42.016 47.008 42.016 47.008h25.28c29.952 0 26.88 34.528 26.88 34.528l-39.456 179.68c-8.896 32.32 11.104 31.2 11.104 31.2h158.112c16.704 0 18.912-31.2 1.12-47.872-17.824-16.672-18.272-35.36-18.272-35.36l14.88-53.696h30.592c11.68 0 16.8-14.496 16.8-14.496V584.32c0-14.496-16.8-16.704-16.8-16.704 0.544-14.496 32.864-30.048 32.864-30.048h65.824c33.568 0 106.72-47.84 106.72-47.84V319.264c-33.312-31.136-111.264-50.112-111.264-50.112H205.568z m637.76 108.544h-61.536c-11.936-38.56-52.352-54.208-52.352-54.208h-66.112c-21.12 0-18.368 20.192-18.368 20.192v121.216c0 18.368 18.368 17.472 18.368 17.472h71.616c33.056-14.688 46.848-53.248 46.848-53.248h61.184c11.008 0 19.616-11.008 19.616-28.48s-19.264-22.944-19.264-22.944z m0 0M849.344 705.76a19.008 19.008 0 0 1 0 37.984H792.32v39.904c0 9.44-8.512 17.088-19.008 17.088-10.496 0-19.008-7.648-19.008-17.088v-39.904H697.28a19.008 19.008 0 1 1 0-37.984h57.024v-37.984H697.28a19.008 19.008 0 0 1 0-37.984h39.008l-36.448-68.032a18.848 18.848 0 0 1 6.112-24.672 16.128 16.128 0 0 1 22.88 6.592l41.856 78.176a19.04 19.04 0 0 1 2.208 7.904h0.192a18.432 18.432 0 0 1 2.24-7.904l42.528-78.176a16.48 16.48 0 0 1 23.232-6.592 18.688 18.688 0 0 1 6.208 24.672l-36.992 68.032h39.008a19.008 19.008 0 1 1 0 37.984h-57.024v37.984h57.056z" /></svg>