<svg class="icon" style="width: 1em; height: 1em;vertical-align: middle;fill: currentColor;overflow: hidden;" viewBox="0 0 1024 1024" version="1.1" xmlns="http://www.w3.org/2000/svg"><path d="M528.576 506.624v46.24h82.08a16.544 16.544 0 0 1 0 33.088h-82.08v51.872a16.544 16.544 0 0 1-33.152 0v-51.872h-82.08a16.512 16.512 0 1 1 0-33.088h82.08v-46.24h-82.08a16.512 16.512 0 1 1 0-33.088h76.384l-87.2-74.944a16.512 16.512 0 0 1 21.632-24.928l87.872 75.52 87.84-75.52a16.512 16.512 0 0 1 21.632 24.928l-87.2 74.944h76.384a16.544 16.544 0 0 1 0 33.088h-82.112zM512 192C335.264 192 192 335.264 192 512s143.264 320 320 320v-32a288 288 0 0 1-288-288c0-159.072 128.928-288 288-288s288 128.928 288 288h32c0-176.736-143.264-320-320-320zM691.424 620.8h-46.848a23.52 23.52 0 0 0-23.488 23.488v46.848c0 12.96 10.56 23.488 23.488 23.488h46.848c12.96 0 23.488-10.56 23.488-23.488v-46.848a23.808 23.808 0 0 0-23.488-23.488z m11.488 70.368c0 6.4-5.216 11.744-11.744 11.744h-46.848a11.776 11.776 0 0 1-11.744-11.744v-46.848c0-6.4 5.216-11.744 11.744-11.744h46.848c6.4 0 11.744 5.216 11.744 11.744v46.848z m-11.488 46.976h-46.848a23.52 23.52 0 0 0-23.488 23.488v46.848c0 12.96 10.56 23.488 23.488 23.488h46.848c12.96 0 23.488-10.56 23.488-23.488v-46.848a23.808 23.808 0 0 0-23.488-23.488z m11.488 70.368c0 6.4-5.216 11.744-11.744 11.744h-46.848a11.776 11.776 0 0 1-11.744-11.744v-46.848c0-6.4 5.216-11.744 11.744-11.744h46.848c6.4 0 11.744 5.216 11.744 11.744v46.848z m105.6-70.368h-46.848a23.52 23.52 0 0 0-23.488 23.488v46.848c0 12.96 10.56 23.488 23.488 23.488h58.592c3.2 0 5.888-2.656 5.888-5.888 0-3.2-2.656-5.888-5.888-5.888h-58.592a11.776 11.776 0 0 1-11.744-11.744V761.6c0-6.4 5.216-11.744 11.744-11.744h46.848c6.4 0 11.744 5.216 11.744 11.744v29.376c0 3.2 2.656 5.888 5.888 5.888 3.2 0 5.888-2.656 5.888-5.888V761.6a23.68 23.68 0 0 0-23.52-23.456z m0-117.344h-46.848a23.52 23.52 0 0 0-23.488 23.488v46.848c0 12.96 10.56 23.488 23.488 23.488h46.848c12.96 0 23.488-10.56 23.488-23.488v-46.848a23.616 23.616 0 0 0-23.488-23.488z m11.744 70.368c0 6.4-5.216 11.744-11.744 11.744h-46.848a11.776 11.776 0 0 1-11.744-11.744v-46.848c0-6.4 5.216-11.744 11.744-11.744h46.848c6.4 0 11.744 5.216 11.744 11.744v46.848z m0 0M511.488 816m-16 0a16 16 0 1 0 32 0 16 16 0 1 0-32 0ZM816.128 511.392m-15.872 0a15.872 15.872 0 1 0 31.744 0 15.872 15.872 0 1 0-31.744 0Z" /></svg>