<svg class="icon" style="width: 1em; height: 1em;vertical-align: middle;fill: currentColor;overflow: hidden;" viewBox="0 0 1024 1024" version="1.1" xmlns="http://www.w3.org/2000/svg"><path d="M843.264 368.96H182.624c-25.632 0-20.64 21.888-20.64 48.864v47.168c0 17.92-4.576 32.544 12.416 32.544l42.208 0.352v196.672h38.144v-195.808h517.536v195.808h35.424v-197.12l42.208 0.096c19.008 0 15.008-12.896 15.168-36.352v-43.392c0.32-32.192 3.68-48.832-21.824-48.832z m-66.624 81.408H244a15.936 15.936 0 0 1-15.456-16.288c0-8.96 6.976-16.288 15.456-16.288H776.64c8.512 0 15.456 7.328 15.456 16.288s-6.944 16.288-15.456 16.288z m-38.048-81.408M814.336 394.464a8.064 8.064 0 0 0 8.064-8.064v-64.352a8.064 8.064 0 0 0-8.064-8.064h-96.512a8.064 8.064 0 0 0-8.064 8.064v64.352a8.064 8.064 0 0 0 8.064 8.064h40.224v12.064h-14.08a1.984 1.984 0 0 0-1.408 0.576 1.984 1.984 0 0 0-0.576 1.408v4.032c0 0.512 0.192 1.024 0.576 1.408a1.984 1.984 0 0 0 1.408 0.576h44.224a1.984 1.984 0 0 0 1.408-0.576 1.984 1.984 0 0 0 0.576-1.408v-4.032a1.984 1.984 0 0 0-0.576-1.408 1.984 1.984 0 0 0-1.408-0.576h-14.08v-12.064h40.224z m-44.224-7.904a4.032 4.032 0 1 1-8.064 0 4.032 4.032 0 0 1 8.064 0z m44.224-60.448v52.288h-96.512v-52.288c0-1.024 0.384-2.048 1.184-2.848a4 4 0 0 1 2.848-1.184h88.448c1.024 0 2.048 0.384 2.848 1.184a4 4 0 0 1 1.184 2.848z m0 0M249.44 376.736a4.032 4.032 0 1 1-8.064 0 4.032 4.032 0 0 1 8.064 0zM272.256 356.256m-3.68 0a3.68 3.68 0 1 0 7.36 0 3.68 3.68 0 1 0-7.36 0ZM238.144 377.024m-3.68 0a3.68 3.68 0 1 0 7.36 0 3.68 3.68 0 1 0-7.36 0ZM238.144 331.808a3.68 3.68 0 0 0-2.624 1.088 3.712 3.712 0 1 0 2.624-1.088zM301.088 320H216.64c-14.08 0-24.64-5.952-24.64 8.128V384h128v-55.872c0-14.08-4.864-8.128-18.912-8.128z" /></svg>