<svg class="icon" style="width: 1em; height: 1em;vertical-align: middle;fill: currentColor;overflow: hidden;" viewBox="0 0 1024 1024" version="1.1" xmlns="http://www.w3.org/2000/svg"><path d="M748.352 399.712a177.856 177.856 0 0 0-177.696-177.664c-3.936 0-7.808 0.352-11.712 0.608a194.496 194.496 0 0 0-105.632-31.2 196.032 196.032 0 0 0-195.808 195.808 195.584 195.584 0 0 0 83.392 160.064C233.056 592.288 160 699.328 160 818.08a14.656 14.656 0 1 0 29.312 0c0-114.848 75.872-217.6 185.024-251.84a194.304 194.304 0 0 0 78.976 16.768 194.24 194.24 0 0 0 68.672-12.672c15.488 4.448 31.744 7.04 48.64 7.04a177.856 177.856 0 0 0 177.728-177.664z m-295.008 153.984a166.656 166.656 0 0 1-166.464-166.464c0-91.808 74.688-166.464 166.464-166.464s166.464 74.688 166.464 166.464a166.656 166.656 0 0 1-166.464 166.464z m117.312-5.632c-1.792 0-3.456-0.48-5.248-0.544a195.616 195.616 0 0 0 83.712-160.288 194.88 194.88 0 0 0-52.768-133.28c69.536 12.256 122.656 72.736 122.656 145.76a148.512 148.512 0 0 1-148.352 148.352zM394.656 746.752l58.688 58.656L512 746.752l-58.656-146.656zM796.256 629.184a34.912 34.912 0 0 1 34.848 31.904 34.784 34.784 0 0 1-41.856 36.864c-1.6-0.384-2.208 0.096-2.912 1.344-12.8 22.176-25.632 44.384-38.56 66.496-1.344 2.272 0.32 2.624 1.408 3.52 8.896 7.04 12.992 16.288 11.552 27.488a28.448 28.448 0 0 1-19.232 24.128 29.312 29.312 0 0 1-33.088-8.896 29.344 29.344 0 0 1-2.624-34.144c1.12-1.856 1.152-2.656-0.736-4.064-18.112-13.408-36.128-26.912-54.144-40.448-1.504-1.12-2.624-1.376-4.416-0.512a22.304 22.304 0 0 1-13.088 2.08c-1.952-0.288-2.752 0.352-3.648 1.888-5.376 9.408-10.784 18.784-16.288 28.096-1.024 1.728-1.056 2.752 0.288 4.512 6.08 7.84 6.848 16.384 2.272 25.184a22.4 22.4 0 0 1-22.464 11.776 22.08 22.08 0 0 1-19.36-15.936 22.72 22.72 0 0 1 25.792-29.216c1.888 0.352 2.784-0.192 3.68-1.76 5.088-8.96 10.24-17.888 15.52-26.752 1.152-1.92 1.12-2.912-0.64-4.544a25.696 25.696 0 0 1-6.336-29.472 25.92 25.92 0 1 1 48.8 3.264 24.64 24.64 0 0 1-2.592 20.16c-0.992 1.664-0.704 2.4 0.736 3.456 18.24 13.568 36.448 27.168 54.656 40.8 1.184 0.896 2.08 1.216 3.552 0.384a27.008 27.008 0 0 1 16.288-3.392c2.048 0.192 2.88-0.544 3.84-2.176 12.64-21.92 25.312-43.84 38.08-65.664 1.152-1.952 1.184-2.912-0.768-4.448a34.752 34.752 0 0 1 21.44-61.92zM849.344 832.736a14.656 14.656 0 0 1-14.656-14.656c0-13.024-0.96-26.112-2.848-38.816a14.72 14.72 0 0 1 29.024-4.32c2.08 14.176 3.136 28.672 3.136 43.136a14.656 14.656 0 0 1-14.656 14.656z" /></svg>