<svg class="icon" style="width: 1em; height: 1em;vertical-align: middle;fill: currentColor;overflow: hidden;" viewBox="0 0 1024 1024" version="1.1" xmlns="http://www.w3.org/2000/svg"><path d="M238.976 399.712c-14.336 0-19.456-6.944-19.584-19.072V241.92a81.152 81.152 0 0 1 81.568-81.44h430.72c43.04 0 81.088 38.528 81.088 81.44v539.168c0 42.912-33.44 82.048-81.088 82.048H538.56c-9.6 0-19.072-9.984-19.072-19.456s9.6-19.456 19.072-19.456h193.152c23.968 0 42.176-19.328 42.176-43.168V241.92c0-23.84-18.368-42.56-42.176-42.56H301.088a42.24 42.24 0 0 0-42.656 42.56v138.72c0 14.944-9.984 19.072-19.456 19.072z"  /><path d="M266.56 658.304a19.52 19.52 0 1 0 0.032 39.072h91.008l-132.448 132.448a19.52 19.52 0 1 0 27.648 27.648l132.448-132.448V816a19.52 19.52 0 1 0 39.04 0v-138.176a19.52 19.52 0 0 0-19.52-19.52H266.56z m0 0"  /><path d="M531.232 460.53333334v42.304h75.072a15.136 15.136 0 1 1 0 30.24h-75.072v47.456a15.136 15.136 0 0 1-30.304 0v-47.456h-75.072a15.104 15.104 0 1 1 0-30.24h75.072v-42.304h-75.072a15.104 15.104 0 1 1 0-30.24h69.888l-79.776-68.544a15.136 15.136 0 0 1 19.776-22.784l80.352 69.088 80.32-69.088a15.04 15.04 0 1 1 19.776 22.784l-79.776 68.544h69.888a15.136 15.136 0 1 1 0 30.24h-75.072z"  /></svg>