<svg class="icon" style="width: 1em; height: 1em;vertical-align: middle;fill: currentColor;overflow: hidden;" viewBox="0 0 1024 1024" version="1.1" xmlns="http://www.w3.org/2000/svg"><path d="M564.928 676.864c-16.32 34.08-37.44 82.336-37.44 103.776 0 30.272 55.968 51.36 55.968 51.36s55.968-21.088 55.968-51.36c0-21.408-21.152-69.728-37.44-103.776a41.088 41.088 0 0 1-37.056 0zM583.424 617.6a22.208 22.208 0 1 0 0.032-0.032h-0.032zM755.424 580.288a26.08 26.08 0 0 0-31.648 41.44 230.112 230.112 0 0 1 91.04 184.096 26.208 26.208 0 0 0 26.048 26.176h0.032a26.208 26.208 0 0 0 26.048-26.176 281.888 281.888 0 0 0-111.52-225.536zM775.008 382.784a191.52 191.52 0 0 0-191.52-191.52 191.328 191.328 0 0 0-105.088 351.36 285.344 285.344 0 0 0-178.4 263.072 26.112 26.112 0 0 0 52.224 0 231.648 231.648 0 0 1 231.232-231.36 191.584 191.584 0 0 0 191.552-191.552z m-330.912 0a139.424 139.424 0 1 1 278.816 0.032 139.424 139.424 0 0 1-278.816-0.032zM359.936 544.416c0.224 0 0.384 0.128 0.608 0.128a24.544 24.544 0 0 0 24.544-24.544 24.352 24.352 0 0 0-23.008-24.224 111.264 111.264 0 0 1-83.808-107.616c0-47.296 29.536-87.456 71.072-103.68 7.776-17.632 17.6-33.856 29.216-48.672a152.704 152.704 0 0 0-135.648 108.288 153.024 153.024 0 0 0 62.752 171.872 228.288 228.288 0 0 0-142.72 210.464 20.896 20.896 0 1 0 41.792 0c0.128-91.904 67.328-167.584 155.2-182.016z" /></svg>