<svg class="icon" style="width: 1em; height: 1em;vertical-align: middle;fill: currentColor;overflow: hidden;" viewBox="0 0 1024 1024" version="1.1" xmlns="http://www.w3.org/2000/svg"><path d="M742.592 495.68c-48.32 48.32-123.2 57.28-180.512 26.56l-253.792 251.2c-17.6 17.6-45.44 17.6-61.76 0-17.6-17.6-17.6-45.44 0-61.76l252.512-252.832c-30.72-58.88-23.36-132.16 26.56-180.832 29.44-29.44 67.52-44.16 105.6-44.16-40.96 42.56-39.68 110.08 1.6 152.64a108.672 108.672 0 0 0 152.64 1.6c-0.288 40.032-13.408 78.112-42.848 107.584z m70.4-191.072c-10.24 11.84-29.44 27.84-54.4 51.52-27.84 27.84-65.92 27.84-92.48 0-27.84-27.84-27.84-66.24 0-92.48 23.36-24.96 51.2-55.68 49.92-55.68a194.944 194.944 0 0 0-221.472 39.36c-54.4 54.4-70.4 133.76-47.04 202.912l-231.712 230.4a88.288 88.288 0 0 0 0 123.52c33.6 33.92 89.6 33.92 124.8 0l231.712-232.032c68.8 23.36 148.16 7.36 202.592-47.04 58.56-58.88 70.4-147.2 38.08-220.48zM759.328 818.368h-5.472c-0.672-36.16-19.2-58.784-40.448-77.504-6.176-5.824-4.128-12.928 0-16.16 21.248-19.36 39.776-41.344 40.448-78.144h5.472c4.8 0 8.928-3.872 8.928-8.384 0-4.512-4.128-8.384-8.928-8.384h-134.4c-5.472-0.64-9.6 3.232-9.6 7.744s4.128 8.384 8.928 8.384h5.472c0.672 36.8 18.528 58.784 40.448 78.144a10.88 10.88 0 0 1 0 16.16c-21.248 18.72-39.776 41.344-40.448 77.504h-4.8c-4.8 0-8.928 3.872-8.928 8.384 0 4.512 4.128 8.384 8.928 8.384h135.072c4.8 0 8.928-3.872 8.928-8.384 0-3.84-4.096-7.744-9.6-7.744z m-14.368-171.776c0 11.616-2.752 21.952-6.176 31.008-15.776 4.512-78.176 4.512-93.952 0a73.888 73.888 0 0 1-6.176-31.008h106.304z m-53.504 158.24c-8.928 0-29.472 13.568-43.872 13.568h-8.928c0.672-30.368 15.072-49.728 33.6-66.528 4.8-4.512 12.352-14.208 19.872-14.208 7.552 0 15.072 10.336 19.872 14.848 18.528 16.8 32.928 36.16 33.6 66.528h-10.24c-14.432-0.672-34.304-14.208-43.904-14.208z m0 0" /></svg>