<svg class="icon" style="width: 1em; height: 1em;vertical-align: middle;fill: currentColor;overflow: hidden;" viewBox="0 0 1024 1024" version="1.1" xmlns="http://www.w3.org/2000/svg"><path d="M789.632 399.712c-9.504 0-19.488-4.128-19.488-19.136V241.6c0-23.872-18.88-42.624-42.752-42.624H296A41.92 41.92 0 0 0 253.728 241.6v540.192c0 23.872 18.272 43.232 42.272 43.232h193.376c9.504 0 19.136 9.984 19.136 19.488s-9.504 19.488-19.136 19.488H296c-47.744 0-81.248-39.232-81.248-82.208V241.6C214.752 198.624 252.864 160 296 160h431.52a81.312 81.312 0 0 1 81.728 81.6v138.976c-0.128 12.192-5.248 19.136-19.616 19.136z"  /><path d="M651.264 863.808h138.432a19.584 19.584 0 0 0 19.584-19.584v-138.432a19.584 19.584 0 1 0-39.168 0v91.168l-132.704-132.704a19.552 19.552 0 1 0-27.68 27.68l132.704 132.704h-91.168a19.52 19.52 0 0 0-19.584 19.584c0 10.816 8.768 19.584 19.584 19.584z m0 0"  /><path d="M527.2 458.67733334v42.368h75.232a15.168 15.168 0 0 1 0 30.304h-75.232v47.552a15.168 15.168 0 0 1-30.368 0v-47.552h-75.232a15.168 15.168 0 1 1 0-30.304h75.232v-42.368h-75.232a15.168 15.168 0 1 1 0-30.304h70.016l-79.904-68.672a15.136 15.136 0 0 1 19.808-22.848l80.512 69.216 80.48-69.216a15.136 15.136 0 0 1 19.808 22.848l-79.904 68.672h70.016a15.168 15.168 0 0 1 0 30.304h-75.232z"  /></svg>