<svg class="icon" style="width: 1em; height: 1em;vertical-align: middle;fill: currentColor;overflow: hidden;" viewBox="0 0 1024 1024" version="1.1" xmlns="http://www.w3.org/2000/svg"><path d="M826.88 736.832a22.976 22.976 0 1 1 0 46.016h-69.056v48.32c0 11.424-10.304 20.704-23.04 20.704-12.736 0-23.008-9.28-23.008-20.704v-48.32h-69.056a22.976 22.976 0 1 1 0-46.016h69.056v-46.016h-69.056a22.976 22.976 0 1 1 0-46.016h47.232l-44.128-82.432c-5.632-10.464-2.304-23.84 7.424-29.856 9.696-6.048 22.112-2.464 27.712 8l50.72 94.688a23.104 23.104 0 0 1 2.656 9.6h0.224a22.56 22.56 0 0 1 2.72-9.6l51.52-94.688a19.968 19.968 0 0 1 28.16-8 22.624 22.624 0 0 1 7.52 29.856l-44.832 82.432h47.264a22.976 22.976 0 1 1 0 46.016h-69.056v46.016h69.024zM201.344 603.36a25.504 25.504 0 0 0-25.472 25.472v201.024c0 14.016 11.456 25.472 25.472 25.472a25.536 25.536 0 0 0 25.472-25.472v-201.024a25.568 25.568 0 0 0-25.472-25.472zM328.96 478.4a25.536 25.536 0 0 0-25.472 25.472v326.144c0 14.016 11.456 25.472 25.472 25.472a25.536 25.536 0 0 0 25.472-25.472V503.872a25.504 25.504 0 0 0-25.472-25.472zM448.576 603.36a25.536 25.536 0 0 0-25.472 25.472v201.024c0 14.016 11.456 25.472 25.472 25.472a25.504 25.504 0 0 0 25.472-25.472v-201.024a25.568 25.568 0 0 0-25.472-25.472zM843.456 240.928l-123.168-26.112a20.896 20.896 0 0 0-24.832 16.224 20.896 20.896 0 0 0 16.224 24.832l65.504 13.888-185.472 146.336-155.744-130.368a25.6 25.6 0 0 0-34.112-2.304l-236.032 186.24a25.568 25.568 0 0 0-4.256 35.776 25.568 25.568 0 0 0 35.776 4.256l219.712-173.248 153.792 128.832a26.016 26.016 0 0 0 17.632 5.92 25.344 25.344 0 0 0 21.76-4.768l196.928-155.36-14.656 69.248a20.896 20.896 0 0 0 16.224 24.832 20.896 20.896 0 0 0 24.832-16.224l26.112-123.168a21.056 21.056 0 0 0-16.224-24.832z m0 0" /></svg>