<svg class="icon" style="width: 1em; height: 1em;vertical-align: middle;fill: currentColor;overflow: hidden;" viewBox="0 0 1024 1024" version="1.1" xmlns="http://www.w3.org/2000/svg"><path d="M856.8 497.664a19.328 19.328 0 0 0-27.392 0l-292.32 292.32a19.328 19.328 0 1 0 27.392 27.392l292.32-292.32a19.328 19.328 0 0 0 0-27.392zM822.08 704h-77.536c-10.72 0-19.392 5.28-19.392 16s8.672 16 19.392 16h77.536c10.72 0 19.392-5.28 19.392-16s-8.672-16-19.392-16zM822.08 768h-77.536c-10.72 0-19.392 5.28-19.392 16s8.672 16 19.392 16h77.536c10.72 0 19.392-5.28 19.392-16s-8.672-16-19.392-16zM592 648.672c10.72 0 16-8.672 16-19.392V576h59.04c10.72 0 19.392-5.28 19.392-16s-8.672-16-19.392-16H608v-62.976c0-10.72-5.28-19.392-16-19.392s-16 8.672-16 19.392V544h-57.248c-10.72 0-19.392 5.28-19.392 16s8.672 16 19.392 16H576v53.28c0 10.72 5.28 19.392 16 19.392zM205.216 575.456a25.504 25.504 0 0 0-25.472 25.472v201.024c0 14.016 11.456 25.472 25.472 25.472a25.536 25.536 0 0 0 25.472-25.472v-201.024a25.536 25.536 0 0 0-25.472-25.472zM332.832 450.496a25.536 25.536 0 0 0-25.472 25.472v326.144c0 14.016 11.456 25.472 25.472 25.472a25.536 25.536 0 0 0 25.472-25.472V475.968a25.504 25.504 0 0 0-25.472-25.472zM452.448 575.456a25.536 25.536 0 0 0-25.472 25.472v201.024c0 14.016 11.456 25.472 25.472 25.472a25.504 25.504 0 0 0 25.472-25.472v-201.024a25.536 25.536 0 0 0-25.472-25.472zM847.296 213.024l-123.136-26.112a20.896 20.896 0 0 0-24.832 16.224 20.896 20.896 0 0 0 16.224 24.832l65.504 13.888-185.472 146.336-155.744-130.368a25.6 25.6 0 0 0-34.112-2.304l-236.032 186.24a25.504 25.504 0 0 0 31.52 40l219.712-173.248 153.792 128.832a26.016 26.016 0 0 0 17.632 5.92 25.344 25.344 0 0 0 21.76-4.768l196.928-155.36-14.656 69.248a20.896 20.896 0 0 0 16.224 24.832 20.896 20.896 0 0 0 24.832-16.224l26.112-123.168a21.024 21.024 0 0 0-16.256-24.8z m0 0" /></svg>