<svg class="icon" style="width: 1em; height: 1em;vertical-align: middle;fill: currentColor;overflow: hidden;" viewBox="0 0 1024 1024" version="1.1" xmlns="http://www.w3.org/2000/svg"><path d="M181.504 552.544h263.968a22.048 22.048 0 0 0 0-44.032H181.504a22.048 22.048 0 0 0 0 44.032z m43.968-88h220.032a22.048 22.048 0 0 0 0-44.032H225.472a22.048 22.048 0 0 0 0 44.032z m44.032-87.968h175.968a22.048 22.048 0 0 0 0-44.032H269.504a22.048 22.048 0 0 0 0 44.032z m0 0M860.576 441.696l-85.248-163.392a21.888 21.888 0 0 0-14.304-10.464 20.48 20.48 0 0 0-7.424-1.28h-152.768v-22.016a22.048 22.048 0 0 0-22.016-22.016h-221.312a22.048 22.048 0 0 0 0 44.032h197.984v197.984c0 12.096 9.824 22.016 22.016 22.016h242.048v94.88c-3.488 45.408-40.288 81.12-86.624 81.12v0.096l-1.376-0.096h-11.84a87.84 87.84 0 0 0-152.32 0h-155.712a87.84 87.84 0 0 0-152.32 0H181.504a22.048 22.048 0 0 0 0 44.032h65.952c0 48.64 39.36 88 88 88s88-39.36 88-88h132.032c0 48.64 39.36 88 88 88s88-39.36 88-88c0.448 0 0.928 0 1.376-0.096v0.096c72.928 0 130.656-59.072 130.656-132.032v-115.52c-0.032-5.504 0.064-11.904-2.944-17.344z m-259.744 0.832V310.496h141.664l68.896 132.032h-210.56z m-265.344 308.032a44.032 44.032 0 1 1 0-88.064 44.032 44.032 0 0 1 0 88.064z m308 0a44.032 44.032 0 1 1 0-88.064 44.032 44.032 0 0 1 0 88.064z m0 0" /></svg>