<svg class="icon" style="width: 1em; height: 1em;vertical-align: middle;fill: currentColor;overflow: hidden;" viewBox="0 0 1024 1024" version="1.1" xmlns="http://www.w3.org/2000/svg"><path d="M628 505.056a77.216 77.216 0 0 1-90.24 13.28l-126.88 125.6a21.344 21.344 0 0 1-30.88 0 21.344 21.344 0 0 1 0-30.88l126.24-126.4c-15.36-29.44-11.68-66.08 13.28-90.4 14.72-14.72 33.76-22.08 52.8-22.08-20.48 21.28-19.84 55.04 0.8 76.32 21.28 21.28 55.04 21.28 76.32 0.8-0.16 20-6.72 39.04-21.44 53.76z m35.2-95.52c-5.12 5.92-14.72 13.92-27.2 25.76-13.92 13.92-32.96 13.92-46.24 0-13.92-13.92-13.92-33.12 0-46.24 11.68-12.48 25.6-27.84 24.96-27.84a97.44 97.44 0 0 0-110.72 19.68c-27.2 27.2-35.2 66.88-23.52 101.44l-115.84 115.2a44.16 44.16 0 0 0 0 61.76c16.8 16.96 44.8 16.96 62.4 0l115.84-116a98.624 98.624 0 0 0 101.28-23.52c29.28-29.44 35.2-73.6 19.04-110.24zM890.464 446.176a18.56 18.56 0 0 0-13.824-14.624 144.896 144.896 0 0 1-93.824-70.08 148.32 148.32 0 0 1-12.992-117.312 18.688 18.688 0 0 0-5.536-19.424 381.888 381.888 0 0 0-124.768-73.056 18.08 18.08 0 0 0-19.36 4.832 143.552 143.552 0 0 1-106.72 47.264 143.68 143.68 0 0 1-106.656-47.2 18.144 18.144 0 0 0-19.424-4.832 380.288 380.288 0 0 0-124.768 73.056 18.752 18.752 0 0 0-5.536 19.424 148.416 148.416 0 0 1-12.992 117.248 144.384 144.384 0 0 1-93.824 70.08 18.304 18.304 0 0 0-13.824 14.624c-4.64 24.64-6.944 49.216-6.944 72.928 0 23.744 2.304 48.32 6.944 72.928a18.432 18.432 0 0 0 13.824 14.592 144.832 144.832 0 0 1 93.824 70.112 148.576 148.576 0 0 1 12.992 117.312 18.688 18.688 0 0 0 5.536 19.424 381.888 381.888 0 0 0 124.768 73.056 18.112 18.112 0 0 0 19.36-4.832 143.84 143.84 0 0 1 106.72-47.2c40.8 0 78.688 16.736 106.656 47.2a18.176 18.176 0 0 0 19.36 4.896 380.384 380.384 0 0 0 124.768-73.056 18.752 18.752 0 0 0 5.536-19.424 148.352 148.352 0 0 1 13.056-117.312 144.704 144.704 0 0 1 93.824-70.08c7.04-1.632 12.48-7.36 13.824-14.592 4.64-24.672 6.944-49.248 6.944-72.928 0-23.744-2.304-48.32-6.944-73.024z m-33.92 127.616a183.584 183.584 0 0 0-105.408 84.448 188.064 188.064 0 0 0-19.52 134.624 345.216 345.216 0 0 1-93.472 54.688 178.752 178.752 0 0 0-124.704-50.144 181.76 181.76 0 0 0-124.704 50.144 343.904 343.904 0 0 1-93.408-54.688 185.024 185.024 0 0 0-19.52-134.624 183.68 183.68 0 0 0-105.472-84.448 356.352 356.352 0 0 1-4.352-54.624c0-17.792 1.472-36.16 4.352-54.688a183.552 183.552 0 0 0 105.344-84.448 188.064 188.064 0 0 0 19.52-134.624 343.04 343.04 0 0 1 93.472-54.72 181.696 181.696 0 0 0 124.768 50.208 179.2 179.2 0 0 0 124.768-50.144c33.952 13.216 65.312 31.584 93.472 54.688a188.224 188.224 0 0 0 19.456 134.624 183.456 183.456 0 0 0 105.408 84.448c2.88 18.56 4.384 36.896 4.384 54.688a361.44 361.44 0 0 1-4.384 54.592z" /></svg>