<svg class="icon" style="width: 1em; height: 1em;vertical-align: middle;fill: currentColor;overflow: hidden;" viewBox="0 0 1024 1024" version="1.1" xmlns="http://www.w3.org/2000/svg"><path d="M818.976 398.272c-10.368 0-21.248-4.512-21.248-20.864V225.792c0-26.048-20.608-46.496-46.624-46.496H280.448c-26.048 0-46.112 20.448-46.112 46.496v589.28c0 26.048 19.936 47.168 46.112 47.168h210.976c10.368 0 20.864 10.88 20.864 21.248s-10.368 21.248-20.864 21.248H280.448c-52.096 0-88.64-42.784-88.64-89.696V225.792c0-46.912 41.6-89.024 88.64-89.024h470.752c52.096 0 89.152 42.112 89.152 89.024v151.616c-0.128 13.28-5.696 20.864-21.376 20.864z"  /><path d="M532.672 466.48533334v46.24h82.048a16.544 16.544 0 0 1 0 33.056h-82.048v51.872a16.544 16.544 0 0 1-33.12 0v-51.872h-82.048a16.512 16.512 0 1 1 0-33.056h82.048v-46.24h-82.048a16.512 16.512 0 1 1 0-33.056h76.384l-87.168-74.944a16.48 16.48 0 1 1 21.632-24.896l87.84 75.488 87.776-75.488a16.544 16.544 0 0 1 23.296 1.664 16.448 16.448 0 0 1-1.664 23.232l-87.168 74.944h76.384a16.544 16.544 0 0 1 0 33.056h-82.144z"  /><path d="M779.008 777.536a5.696 5.696 0 0 0-5.728 5.728c0 6.976-1.28 14.592-4.448 20.96a51.584 51.584 0 0 1-12.064 17.76 55.04 55.04 0 0 1-17.76 12.064 59.072 59.072 0 0 1-20.96 4.448 5.696 5.696 0 1 0 0 11.424c8.896 0 17.152-1.888 25.376-5.088 7.616-3.168 15.232-8.256 21.568-14.592 6.336-6.336 10.784-13.344 13.952-20.96 3.168-8.256 5.088-16.512 5.088-25.376 0.672-3.808-1.856-6.368-5.024-6.368z m-86.336-55.84a101.696 101.696 0 0 0-11.424 6.336 63.488 63.488 0 0 0-10.144 8.256 105.088 105.088 0 0 0-8.256 9.536 32.512 32.512 0 0 0-5.728 11.424c-1.28 2.528 0 6.336 3.168 7.616 2.528 1.28 6.336 0 7.616-3.168 1.28-3.168 3.168-6.336 5.088-9.536 1.92-3.168 4.448-5.728 6.976-8.256 2.528-2.528 5.088-5.088 8.256-6.976 3.168-1.92 6.336-3.808 9.536-5.088 2.528-1.28 4.448-4.448 3.168-7.616-1.92-1.888-5.728-3.168-8.256-2.528z m0 0"  /><path d="M837.408 888.64l-40.64-40.64a99.136 99.136 0 0 0 23.488-65.376c0-13.344-2.528-26.656-7.616-38.72v-0.64a114.976 114.976 0 0 0-21.568-33.024l-0.64-0.64a103.904 103.904 0 0 0-33.024-22.208 100.928 100.928 0 0 0-39.36-7.616 105.28 105.28 0 0 0-93.952 64.128 100.928 100.928 0 0 0-7.616 39.36c0 13.344 2.528 26.656 7.616 38.72v0.64c5.088 12.704 12.704 23.488 22.208 33.024 9.536 9.536 20.96 17.152 33.024 22.208 12.064 5.088 25.376 7.616 39.36 7.616 13.952 0 27.296-2.528 39.36-7.616 9.536-3.808 18.4-9.536 26.016-15.872l40.64 40.64a9.216 9.216 0 0 0 13.344 0c3.168-4.48 3.168-10.176-0.64-13.984z m-59.68-46.336a90.176 90.176 0 0 1-27.296 18.4 85.824 85.824 0 0 1-31.744 6.336c-11.424 0-22.208-2.528-31.744-6.336-10.144-4.448-19.68-10.144-27.296-18.4a90.176 90.176 0 0 1-18.4-27.296v-0.64a85.824 85.824 0 0 1-6.336-31.744c0-11.424 2.528-22.208 6.336-31.744 4.448-10.144 10.144-19.04 18.4-27.296a83.584 83.584 0 0 1 59.04-24.768c11.424 0 22.208 2.528 31.744 6.336 10.144 4.448 19.68 10.144 27.296 18.4l0.64 0.64c7.616 7.616 13.344 16.512 17.76 26.656v0.64c3.808 9.536 6.336 20.32 6.336 31.744s-2.528 22.208-6.336 31.744a113.792 113.792 0 0 1-18.4 27.328z m0 0"  /></svg>