<svg class="icon" style="width: 1em; height: 1em;vertical-align: middle;fill: currentColor;overflow: hidden;" viewBox="0 0 1024 1024" version="1.1" xmlns="http://www.w3.org/2000/svg"><path d="M838.208 767.456a19.008 19.008 0 0 1 0 37.984h-57.024v39.904c0 9.44-8.512 17.088-19.008 17.088-10.496 0-19.008-7.648-19.008-17.088V805.44h-57.024a19.008 19.008 0 1 1 0-37.984h57.024v-37.984h-57.024a19.008 19.008 0 0 1 0-37.984h39.008l-36.448-68.032a18.848 18.848 0 0 1 6.112-24.672 16.128 16.128 0 0 1 22.88 6.592l41.856 78.176a19.04 19.04 0 0 1 2.208 7.904h0.192a18.432 18.432 0 0 1 2.24-7.904l42.528-78.176a16.48 16.48 0 0 1 23.232-6.592 18.688 18.688 0 0 1 6.208 24.672l-36.992 68.032h39.008a19.008 19.008 0 1 1 0 37.984h-57.024v37.984h57.056zM862.624 321.952v17.568c0 3.168 0 10.08-1.728 15.264a164.544 164.544 0 0 1-21.6 57.568 148.16 148.16 0 0 1-26.496 32.544c-4.896 4.32-9.504 8.64-14.688 12.672a154.112 154.112 0 0 1-38.016 19.296 158.944 158.944 0 0 1-25.92 8.064 121.92 121.92 0 0 1-25.92 3.168h-24.768a18.464 18.464 0 0 0-13.824 5.76L597.696 566.4l-263.712 265.152-7.776 7.488a98.272 98.272 0 0 1-21.888 14.976 87.68 87.68 0 0 1-28.8 9.216H241.664a94.976 94.976 0 0 1-28.8-10.08 97.248 97.248 0 0 1-28.8-24.768 100.576 100.576 0 0 1-17.28-33.12 86.4 86.4 0 0 1-3.744-30.528 92.704 92.704 0 0 1 12.672-42.912c4.32-7.872 9.632-15.136 15.84-21.6l337.408-338.56h1.728a18.72 18.72 0 0 0 4.896-15.84c0-6.912 0-13.536-1.728-20.448a106.336 106.336 0 0 1 0-14.976 205.44 205.44 0 0 1 3.168-21.6c3.552-14.816 9.152-29.088 16.704-42.336 6.976-12.672 15.584-24.384 25.632-34.848 4.8-5.088 10.016-9.824 15.552-14.112 6.624-5.184 13.824-9.504 20.736-14.112 8.448-5.344 17.536-9.6 27.072-12.672 7.936-2.688 16-4.896 24.192-6.624a194.56 194.56 0 0 1 25.056-4.032c9.632-0.384 19.296 0.32 28.8 2.016a25.12 25.12 0 0 1 14.112 6.336 20.48 20.48 0 0 1 4.608 22.752 46.4 46.4 0 0 1-11.232 16.128l-27.36 28.8-28.8 28.8a71.904 71.904 0 0 0-11.52 14.112c-4.8 7.616-6.368 16.832-4.32 25.632 2.048 8.128 6.336 15.488 12.384 21.312 12.096 12.384 24.48 24.192 36.832 36.576 4 3.968 8.672 7.2 13.824 9.504a31.616 31.616 0 0 0 18.144 2.592c8.48-1.888 16.128-6.432 21.888-12.96l35.424-35.968 28.8-28.8a21.376 21.376 0 0 1 19.296-6.048 19.296 19.296 0 0 1 16.704 15.552c0.224 4.416 0.224 8.832 0 13.248v2.304M256.64 722.112a49.728 49.728 0 0 0-36.864 84.48 49.856 49.856 0 0 0 85.536-34.4 50.24 50.24 0 0 0-49.792-50.4M250.88 160.16l8.352 1.728c4.704 1.28 9.312 2.816 13.824 4.608 10.112 4.448 19.232 10.912 26.784 19.008l14.08 13.504 13.824 13.248 35.136 36.288 28.8 28.8 18.72 19.008 17.568 18.144 19.296 18.432 23.04 23.328 7.776 8.352-26.496 25.92-8.928-9.792-34.848-34.848L271.04 208.8a29.024 29.024 0 0 0-11.232-8.064 10.624 10.624 0 0 0-12.096 8.352 14.08 14.08 0 0 0 5.184 12.672l19.296 19.296 149.984 149.408 15.264 14.688-31.68 31.68-2.88-3.744-3.168-4.032-131.264-131.296L224.384 253.44a35.52 35.52 0 0 0-7.776-6.912 10.56 10.56 0 0 0-15.52 8.64 12.768 12.768 0 0 0 2.88 8.352 31.424 31.424 0 0 0 3.712 4l177.344 178.496c2.304 2.304 4.896 4.32 7.488 6.336l-16.992 16.416-9.792 8.064s-2.88 1.44-2.88 0l-14.976-14.688-161.76-161.504a90.752 90.752 0 0 1-24.768-45.216v-25.312c1.216-6.72 3.136-13.28 5.76-19.584 3.936-7.936 9.088-15.232 15.264-21.6 5.6-6.976 12.32-13.024 19.872-17.856 7.744-5.088 16.32-8.768 25.344-10.944h23.616" /></svg>