<svg class="icon" style="width: 1em; height: 1em;vertical-align: middle;fill: currentColor;overflow: hidden;" viewBox="0 0 1024 1024" version="1.1" xmlns="http://www.w3.org/2000/svg"><path d="M408.544 399.712a2493.376 2493.376 0 0 1-16.064-14.944 104.32 104.32 0 0 1-34.848 6.4 105.856 105.856 0 0 1-105.6-105.6c0-58.112 47.456-105.6 105.6-105.6 58.112 0 105.6 47.456 105.6 105.6 0 5.568-0.8 10.912-1.664 16.256l16.384 16.224c2.816-10.432 4.768-21.184 4.768-32.48 0-69.216-55.904-125.12-125.12-125.12s-125.12 55.904-125.12 125.12a124.96 124.96 0 0 0 176.064 114.144zM777.92 662.112c-31.072-55.008-48.352-114.464-53.696-177.024-2.208-29.28-6.656-58.112-6.656-88.288 0-29.728-29.28-53.696-52.8-54.144-28.832-0.448-52.8 19.52-58.112 50.144-3.104 13.76-5.76 27.52-8.448 45.248-8.416-8-13.76-13.76-19.968-19.52-53.696-52.8-90.528-90.08-144.192-142.88-37.696-37.248-70.08-32.352-90.048-11.968-19.072 18.624-23.968 48.352 6.656 80.32 15.968 17.312 32.384 32.832 53.696 52.352 9.76 9.312 10.656 16.416 0 24.832-16.864 13.312-27.968 29.728-25.728 52.352 0.896 10.208-8.864 14.208-15.072 19.52-18.208 15.52-29.28 34.176-26.624 58.56 1.344 12.864-5.76 19.52-13.76 26.176-17.312 14.624-28.832 37.28-23.072 60.352 5.76 22.624 25.728 39.04 42.144 54.112 31.936 30.176 62.112 62.56 97.6 89.184 36.832 27.072 78.528 46.144 120.672 64.32 32.832 13.76 55.008 18.176 80.736-10.208 43.04-45.696 87.84-90.08 132.224-134.432 12.896-12.384 12.448-24.8 4.448-39.008z m-44.8 25.312c-43.04 39.488-83.424 82.08-123.328 124.672-9.312 9.76-19.968 9.312-27.072 6.208-41.696-17.76-86.08-35.488-122.016-63.008-27.968-21.728-53.696-46.144-78.976-70.976-17.312-16.864-59.456-43.936-43.04-72.768 14.208-24.832 34.592-7.104 48.352 4.896 8.864 8 14.208 19.52 28.832 4.448 13.312-14.208 2.656-19.072-4.896-26.624-8.864-8.864-16.864-18.176-26.624-25.728-15.52-11.968-17.76-23.072-2.656-37.728 24.832-23.968 46.144 8.864 63.456 26.176 8 7.552 14.656 3.552 21.728-3.104 11.968-11.552 5.76-17.312-2.656-24.832-14.208-13.312-28.384-26.176-41.248-39.936-14.208-14.624-8-31.488-2.656-37.28 5.76-6.208 16.416-19.072 27.968-8.864 16.416 14.656 30.624 29.728 41.248 39.04 8 6.656 13.76 17.76 27.52 4.448 12.864-12.864 4.448-19.072-4-27.072-47.04-46.144-94.048-93.632-141.984-139.328-11.52-11.104-16.416-21.728-4-34.176 11.104-11.552 23.072-6.656 33.28 3.552 35.936 34.592 71.424 70.976 107.808 106.464l111.808 110.464c5.76 5.76 11.552 14.656 21.28 4.448 6.208-7.104 11.968-11.552 5.76-23.968-12.864-24.416-11.968-51.456-9.312-78.528 1.312-16.416 5.312-27.52 23.968-28.832 21.28-1.344 19.52 15.52 20.416 27.52 6.656 83.872 10.208 167.712 51.456 244.896 4.032 7.104 16 20.416-0.416 35.52z" /></svg>