<svg class="icon" style="width: 1em; height: 1em;vertical-align: middle;fill: currentColor;overflow: hidden;" viewBox="0 0 1024 1024" version="1.1" xmlns="http://www.w3.org/2000/svg"><path d="M527.488 359.04a23.424 23.424 0 0 0-23.424-23.424h-164.48a23.424 23.424 0 1 0 0 46.848h164.48a23.168 23.168 0 0 0 23.424-23.424z m0 0M401.664 538.72h-62.08a23.424 23.424 0 1 0 0 46.848h62.08a23.424 23.424 0 0 0 23.424-23.424 23.68 23.68 0 0 0-23.424-23.424z m0 0M386.048 640.288h-50.592c-10.688 0-19.328 10.272-19.328 23.424 0 12.736 8.64 23.424 19.328 23.424h50.976c10.688 0 19.328-10.272 19.328-23.424-0.416-12.736-9.024-23.424-19.712-23.424z m0 0M444 460.608a23.424 23.424 0 0 0-23.424-23.424h-80.992a23.424 23.424 0 1 0 0 46.848h80.992a23.424 23.424 0 0 0 23.424-23.424z m0 0M870.016 583.552h-284.96l74.432-61.696a18.368 18.368 0 0 0 0-26.304 18.88 18.88 0 0 0-26.72 0l-111.424 92.096a18.56 18.56 0 0 0-5.344 14.4 18.24 18.24 0 0 0 5.344 14.4l111.424 92.096a18.88 18.88 0 0 0 26.72 0 18.368 18.368 0 0 0 0-26.304l-73.6-60.864h284.544a18.432 18.432 0 0 0 18.496-18.496 18.72 18.72 0 0 0-18.912-19.328z m0 0M957.184 421.12a18.144 18.144 0 0 0-5.344-14.4l-111.424-92.096a18.88 18.88 0 0 0-26.72 0 18.368 18.368 0 0 0 0 26.304l73.6 60.864h-284.128a18.432 18.432 0 0 0-18.496 18.496c0 10.272 8.224 18.496 18.496 18.496h284.96l-74.432 61.696a18.368 18.368 0 0 0 0 26.304 18.88 18.88 0 0 0 26.72 0l111.424-92.096a15.584 15.584 0 0 0 5.344-13.568z m0 0M773.376 714.72h-46.88a41.184 41.184 0 0 1-40.704 34.144H293.088c-23.04 0-41.536-18.496-41.536-41.536V312.576a41.44 41.44 0 0 1 41.152-39.072h392.704c20.576 0 37.824 15.232 40.704 34.944h62.496v-14.4c0-7.808-1.248-15.616-3.296-22.624-0.416-2.048-1.248-3.712-2.048-5.76a82.656 82.656 0 0 0-77.728-54.272H272.544c-38.656 0-70.72 26.304-80.192 62.08-0.832 2.496-1.216 5.376-1.632 8.256-0.416 1.216-0.416 2.88-0.416 4.096-0.416 2.88-0.416 5.76-0.416 8.64v435.072c0 2.88 0 5.76 0.416 8.64 0 1.216 0.416 2.88 0.416 4.096a82.56 82.56 0 0 0 81.824 70.304h434.24a82.656 82.656 0 0 0 77.728-54.272c0.832-2.048 1.248-3.712 2.048-5.76 2.048-7.392 3.296-14.816 3.296-22.624v-14.4l-16.48-0.8z m0 0" /></svg>