<svg class="icon" style="width: 1em; height: 1em;vertical-align: middle;fill: currentColor;overflow: hidden;" viewBox="0 0 1024 1024" version="1.1" xmlns="http://www.w3.org/2000/svg"><path d="M328 524.608c-8.128 0-17.312-8.384-17.312-16.512v-4.992c0-6.304 2.624-16.512 17.312-16.512h236.256c8.128 0 16.512 8.256 16.512 16.512v4.992c0 8.128-8.384 16.512-16.512 16.512H328z m0 0M328 308.288c-14.56 0-16.768-10.88-16.768-17.184 0-13.504 8.768-22.176 16.768-22.176h159.712c8.128 0 15.744 9.184 15.744 17.44v4.992c0 8.128-7.616 16.928-15.744 16.928H328z m0 0M328 417.088c-8.128 0-17.312-9.184-17.312-17.312v-4.992c0-8.128 9.056-16.928 17.312-16.928h339.04c8.128 0 17.312 8.8 17.312 16.928v4.192c-5.248 9.568-9.696 18.08-22.432 18.08H328z m0 0M803.008 499.84c-10.08 0-20.32-4.448-20.32-20.192V214.784c0-25.184-19.68-45.504-44.96-45.504H282.368c-25.184 0-45.088 20.32-45.088 45.504v570.08c0 25.184 19.808 46.4 45.088 46.4h262.368c10.08 0 20.192 9.568 20.192 19.68 0 10.08-10.08 19.68-20.192 19.68H282.368c-50.464 0-85.76-40.384-85.76-85.76V214.784c0-45.376 40.256-86.144 85.76-86.144h455.488c50.464 0 85.632 40.768 85.632 86.144v264.832c-0.16 12.864-5.408 20.224-20.48 20.224z m0 0M874.592 608.64a166.848 166.848 0 0 0-118.912-48.768 166.784 166.784 0 0 0-118.912 48.768 166.848 166.848 0 0 0-48.768 118.912c0 45.248 17.312 87.456 48.768 118.912a166.848 166.848 0 0 0 118.912 48.768 166.784 166.784 0 0 0 118.912-48.768 166.848 166.848 0 0 0 48.768-118.912 167.424 167.424 0 0 0-48.768-118.912z m-118.912 255.424c-73.952 0-136.48-62.528-136.48-136.48s62.528-136.48 136.48-136.48c36.32 0 70.4 13.888 96.096 38.944a135.36 135.36 0 0 1 40.512 97.536c-0.128 74.08-62.656 136.48-136.608 136.48z m0 0M811.52 725.216a11.712 11.712 0 0 0 11.936-11.808 11.712 11.712 0 0 0-11.936-11.808h-33.568l38.944-39.2c3.68-3.68 2.752-10.624-2.24-15.616a14.08 14.08 0 0 0-9.696-4.576 7.904 7.904 0 0 0-5.76 2.24l-44.704 44.704-44.704-44.704a7.936 7.936 0 0 0-5.76-2.24 14.08 14.08 0 0 0-9.696 4.448c-4.992 4.992-5.888 12.064-2.24 15.744l38.944 39.2h-31.328a11.712 11.712 0 0 0-11.936 11.808c0 6.816 5.376 11.808 11.936 11.808h42.336v23.584H699.84a11.712 11.712 0 0 0-11.936 11.808c0 6.816 5.376 11.808 11.936 11.808h42.208v27.808c0 7.072 6.688 12.832 13.76 12.832s13.76-5.76 13.76-12.832v-27.808h41.952a11.712 11.712 0 0 0 11.936-11.808 11.712 11.712 0 0 0-11.936-11.808h-41.952v-23.584h41.952z m0 0M627.712 505.6a22.72 22.72 0 1 0 45.376 0 22.72 22.72 0 0 0-45.376 0z m0 0" /></svg>