<svg class="icon" style="width: 1em; height: 1em;vertical-align: middle;fill: currentColor;overflow: hidden;" viewBox="0 0 1024 1024" version="1.1" xmlns="http://www.w3.org/2000/svg"><path d="M791.68 128.544H235.296a55.04 55.04 0 0 0-54.944 54.944V840c0 30.304 24.64 54.944 54.944 54.944H791.68a55.04 55.04 0 0 0 54.944-54.944V183.488a55.04 55.04 0 0 0-54.944-54.944z m6.432 711.424c0 3.552-2.88 6.432-6.432 6.432H235.296a6.432 6.432 0 0 1-6.432-6.432V183.488c0-3.552 2.88-6.432 6.432-6.432H791.68c3.552 0 6.432 2.88 6.432 6.432v656.48z m0 0"  /><path d="M512.096 556.864a24.256 24.256 0 0 0-24.256-24.256h-138.368a24.256 24.256 0 1 0 0 48.512h138.368a24.288 24.288 0 0 0 24.256-24.256z m-162.592-106.944h327.968a24.256 24.256 0 1 0 0-48.512H349.504a24.256 24.256 0 1 0 0 48.512z m0-126.368h327.968a24.256 24.256 0 1 0 0-48.512H349.504a24.256 24.256 0 1 0 0 48.512z m414.528 244.224l-99.456 24.288-76.416-68.16-7.584 102.08-88.416 51.616 94.72 38.784 21.728 100.032 66.176-78.112 101.888 10.24-53.856-87.072 41.216-93.696z m-109.76 119.776l-19.168 22.592-6.304-28.96-27.392-11.232 25.6-14.912 2.208-29.536 22.08 19.712 28.768-7.04-11.904 27.104 15.584 25.216-29.472-2.944z m0 0"  /></svg>