<svg class="icon" style="width: 1em; height: 1em;vertical-align: middle;fill: currentColor;overflow: hidden;" viewBox="0 0 1024 1024" version="1.1" xmlns="http://www.w3.org/2000/svg"><path d="M803.744 477.632a88.16 88.16 0 0 0-82.944 58.656h-66.688a141.888 141.888 0 0 0-72.672-149.504l25.536-84.512a88.064 88.064 0 1 0 20.768-173.632 88 88 0 0 0-88.032 88.032 88 88 0 0 0 54.816 81.568l-25.056 82.944a140.288 140.288 0 0 0-55.104-11.104 141.312 141.312 0 0 0-95.552 36.96L287.84 275.936l-1.408 1.504a88.064 88.064 0 0 0 24.16-60.704 88 88 0 1 0-176.064 0 88 88 0 0 0 148.704 63.872l-4.672 4.576 131.104 131.04a141.312 141.312 0 0 0-37.088 95.648c0 32.224 10.784 61.952 28.928 85.792L289.216 688.32a87.904 87.904 0 0 0-69.952-34.624 88.064 88.064 0 0 0 0 176.128 88.064 88.064 0 0 0 77.12-130.496l113.408-91.552a141.76 141.76 0 0 0 163.456 33.184l39.488 89.536a88.064 88.064 0 1 0 43.52-11.52c-11.264 0-21.92 2.208-31.808 5.92l-39.552-89.952a142.08 142.08 0 0 0 66.272-85.568h66.112a88 88 0 1 0 174.624 16.288 88.064 88.064 0 0 0-88.16-88.032z m0 0" /></svg>