<svg class="icon" style="width: 1em; height: 1em;vertical-align: middle;fill: currentColor;overflow: hidden;" viewBox="0 0 1024 1024" version="1.1" xmlns="http://www.w3.org/2000/svg"><path d="M495.04 423.296h213.088v71.872a21.792 21.792 0 1 0 43.488 0v-95.264a21.728 21.728 0 0 0-6.624-15.712l-247.584-248.544a21.536 21.536 0 0 0-16.032-7.104H214.112A43.52 43.52 0 0 0 170.656 172.16v620.608a43.52 43.52 0 0 0 43.456 43.648h225.024v-0.288a21.76 21.76 0 0 0 0-43.072v-0.288H227.136a13.12 13.12 0 0 1-13.056-13.152V185.248c0-7.232 5.856-13.088 13.024-13.088h245.152v229.408a21.76 21.76 0 0 0 22.784 21.76z m20.704-207.488l163.264 163.872h-163.264V215.744v0.064z m0 0M716.544 726.592l131.168-131.168a21.856 21.856 0 0 0-30.816-30.88l-131.168 131.168-131.168-131.168a21.824 21.824 0 0 0-30.88 30.88l131.168 131.168-131.168 131.136a21.856 21.856 0 0 0 9.504 37.056 21.76 21.76 0 0 0 21.344-6.208l131.168-131.168 131.168 131.168a21.824 21.824 0 0 0 30.816-30.88l-131.136-131.104z m0 0" /></svg>