<svg class="icon" style="width: 1em; height: 1em;vertical-align: middle;fill: currentColor;overflow: hidden;" viewBox="0 0 1024 1024" version="1.1" xmlns="http://www.w3.org/2000/svg"><path d="M684.768 895.072a168.032 168.032 0 1 1 0-336.128 168.032 168.032 0 1 1 0 336.128z m-126.048-168.064c0 27.136 8.736 52.064 23.328 72.64l175.36-175.36a125.248 125.248 0 0 0-72.64-23.328 126.016 126.016 0 0 0-126.048 126.048z m228.768-72.64l-175.36 175.36a125.248 125.248 0 0 0 72.64 23.328 126.08 126.08 0 0 0 126.048-126.048 125.024 125.024 0 0 0-23.328-72.64z m0 0M494.912 423.296h213.088v71.872a21.792 21.792 0 1 0 43.488 0v-95.264a21.728 21.728 0 0 0-6.624-15.712L497.28 135.648a21.536 21.536 0 0 0-16.032-7.104H213.984A43.52 43.52 0 0 0 170.528 172.16v620.608a43.52 43.52 0 0 0 43.456 43.648h225.024v-0.288a21.76 21.76 0 0 0 0-43.072v-0.288H227.008a13.12 13.12 0 0 1-13.056-13.152V185.248c0-7.232 5.856-13.088 13.024-13.088h245.152v229.408a21.76 21.76 0 0 0 22.784 21.76z m20.672-207.488l163.264 163.872h-163.264V215.744v0.064z m0 0" /></svg>