<svg class="icon" style="width: 1em; height: 1em;vertical-align: middle;fill: currentColor;overflow: hidden;" viewBox="0 0 1024 1024" version="1.1" xmlns="http://www.w3.org/2000/svg"><path d="M768.832 518.4a26.912 26.912 0 0 0-36.608 10.048c-30.4 53.632-171.264 232.608-224.8 300.16-54.592-67.328-198.88-246.752-229.312-300.256a26.784 26.784 0 0 0-36.608-10.272 26.24 26.24 0 0 0-10.048 36.192c39.712 70.016 246.624 321.984 255.424 332.704 5.152 6.208 12.736 8.128 20.768 8.128h0.096c8.128 0 15.744-2.048 20.864-8.352 8.576-10.72 210.656-261.728 250.272-331.648a26.848 26.848 0 0 0-10.048-36.704z m0 0M505.152 128.224c-172.032 0-311.936 129.408-311.936 288.384 0 13.92 1.28 28.352 3.744 42.72a26.88 26.88 0 1 0 52.992-9.088 205.056 205.056 0 0 1-3.008-33.6c0-129.408 115.84-234.656 258.208-234.656 142.368 0 258.208 105.344 258.208 234.656 0 11.008-0.96 22.368-3.008 33.92a26.816 26.816 0 1 0 52.864 9.184c2.56-14.56 3.84-29.12 3.84-43.136 0.064-158.976-139.872-288.384-311.904-288.384z m0 0M400.256 392.608a104.896 104.896 0 1 0 209.792 0 104.896 104.896 0 0 0-209.792 0z m0 0" /></svg>