<svg class="icon" style="width: 1em; height: 1em;vertical-align: middle;fill: currentColor;overflow: hidden;" viewBox="0 0 1024 1024" version="1.1" xmlns="http://www.w3.org/2000/svg"><path d="M828.576 629.568c-13.792 0-24.512 10.72-24.512 22.976h49.056c0-13.024-10.72-22.976-24.544-22.976z m0-207.68c13.792 0 24.512-10.72 24.512-22.976h-49.056c0.032 13.024 10.784 22.976 24.544 22.976z m31.424 36.768l-151.744 151.744-59.776-59.776c-9.184-9.184-23.744-9.184-32.192 0-9.184 9.184-9.184 23.744 0 32.192l72.032 72.032c4.608 4.608 13.792 6.912 20.704 6.912 6.88 0.768 16.096-1.536 20.704-6.912l164-164c9.184-9.184 9.184-23.744 0-32.192-10.72-9.184-25.28-9.184-33.728 0z m-55.936 193.888v110.336c0 16.864-16.096 30.656-34.496 30.656H216.32c-18.4 0-34.496-13.792-34.496-30.656V309.248c0-16.864 16.096-30.656 34.496-30.656h63.616V234.912H218.592c-47.52 0-85.824 34.496-85.824 77.408v449.056c0 42.912 37.536 77.408 84.288 77.408h549.44c48.288-0.768 86.592-35.264 86.592-78.176v-108.064h-49.024z m0-343.296v89.664h49.056V312.32c0-42.912-38.304-77.408-85.824-77.408h-61.312v43.68h63.616c18.368 0 34.464 13.792 34.464 30.656z m-459.008 55.936c17.632 0 33.728-14.56 33.728-32.192V185.088c0-17.632-15.328-32.192-33.728-32.192-17.632 0-32.192 14.56-32.192 32.192v147.904c-0.768 17.632 13.792 32.192 32.192 32.192z m295.008 0c17.632 0 33.728-14.56 33.728-32.192V185.088c0-17.632-15.328-32.192-33.728-32.192-17.632 0-32.192 14.56-32.192 32.192v147.904c-0.736 17.632 13.824 32.192 32.192 32.192z m-229.888-81.248h164V234.912h-164v49.024z m29.12 361.728c0-25.28 20.704-45.984 45.984-45.984s45.984 20.704 45.984 45.984-20.704 45.984-45.984 45.984-45.984-20.704-45.984-45.984z m0-158.624c0-25.28 20.704-45.984 45.984-45.984s45.984 20.704 45.984 45.984-20.704 45.984-45.984 45.984a46.144 46.144 0 0 1-45.984-45.984z m-167.04 159.392c0-25.28 20.704-45.984 45.984-45.984s45.984 20.704 45.984 45.984-20.704 45.984-45.984 45.984a46.112 46.112 0 0 1-45.984-45.984z m0-158.624c0-25.28 20.704-45.984 45.984-45.984s45.984 20.704 45.984 45.984-20.704 45.984-45.984 45.984a46.144 46.144 0 0 1-45.984-45.984z m0 0" /></svg>