<svg class="icon" style="width: 1em; height: 1em;vertical-align: middle;fill: currentColor;overflow: hidden;" viewBox="0 0 1024 1024" version="1.1" xmlns="http://www.w3.org/2000/svg"><path d="M583.36 861.984a32.896 32.896 0 0 0 65.152 6.272c-14.88-6.784-32.16-17.248-51.392-32.896a32.64 32.64 0 0 0-13.76 26.624z m-13.696-406.784a26.432 26.432 0 0 0-35.104 4.544l-120.736 149.696-39.68-44.448a26.688 26.688 0 0 0-35.296-2.848 23.84 23.84 0 0 0-3.04 34.912l59.872 67.072a25.824 25.824 0 0 0 19.136 8.416h0.64a25.6 25.6 0 0 0 19.36-9.376l139.68-173.216a24.096 24.096 0 0 0-4.832-34.752z m100.416-211.456v271.584a204 204 0 0 1 51.68-1.792V217.92a25.824 25.824 0 0 0-25.824-25.824h-85.6c12 14.144 19.616 32.032 20.896 51.648h38.848z m-148 568.128h-295.36V243.744h38.848a88.96 88.96 0 0 1 20.896-51.648H200.896a25.824 25.824 0 0 0-25.792 25.824v619.744c0 14.304 11.552 25.856 25.792 25.856h359.808a205.664 205.664 0 0 1-38.624-51.648zM354.368 310.816h188.032a58.176 58.176 0 0 0 58.112-58.08V249.6a58.176 58.176 0 0 0-58.144-58.112h-25.184v-4.64a58.208 58.208 0 0 0-58.112-58.112h-21.408a58.176 58.176 0 0 0-58.08 58.112v4.672h-25.216A58.208 58.208 0 0 0 296.256 249.6v3.136c0 32.032 26.08 58.08 58.112 58.08z m493.856 252.544c0-18.176-14.688-32.896-32.864-32.896h-0.032a32.896 32.896 0 0 0-32.864 34.592c-36.064-16.544-98.624-9.632-157.12 48.864-27.84 27.904-88.128 21.696-105.312 38.88-17.184 17.152-14.528 73.664 58.24 146.4 72.768 72.768 129.184 75.488 146.4 58.24 17.248-17.248 12.096-72.96 42.112-102.976 57.152-57.152 62.752-121.312 46.208-158.304a32.928 32.928 0 0 0 35.232-32.8z m-199.744 121.792c-14.976 18.304-40.256 38.56-71.68 41.056-25.792-14.944-23.872-35.104-23.872-35.104s35.232 5.056 82.56-30.784c50.208-38.016 71.808-87.424 134.4-69.6-44.256-2.176-100.384 68.672-121.408 94.432z m150.4-121.824a16.448 16.448 0 0 1 16.448-16.448h0.032a16.448 16.448 0 1 1-16.48 16.448z m0 0" /></svg>