<svg class="icon" style="width: 1em; height: 1em;vertical-align: middle;fill: currentColor;overflow: hidden;" viewBox="0 0 1024 1024" version="1.1" xmlns="http://www.w3.org/2000/svg"><path d="M896 800l-315.136 0-29.632-96L832 704c16.384 0 32.768-6.24 45.248-18.752C889.76 672.768 896 656.384 896 640L896 256c0-16.384-6.24-32.768-18.752-45.248C864.768 198.24 848.384 192 832 192L192 192C175.616 192 159.232 198.24 146.752 210.752 134.24 223.232 128 239.616 128 256l0 384c0 16.384 6.24 32.768 18.752 45.248C159.232 697.76 175.616 704 192 704l260.416 0-29.632 96L128 800c-8.832 0-16 7.168-16 16C112 824.832 119.168 832 128 832l768 0c8.832 0 16-7.168 16-16C912 807.168 904.832 800 896 800zM462.304 672 192 672c-8.192 0-16.384-3.136-22.624-9.376S160 648.192 160 640L160 256c0-8.192 3.136-16.384 9.376-22.624C175.616 227.136 183.808 224 192 224l640 0c8.192 0 16.384 3.136 22.624 9.376C860.864 239.616 864 247.808 864 256l0 384c0 8.192-3.136 16.384-9.376 22.624S840.192 672 832 672l-290.656 0L462.304 672z" /></svg>